SplineFontDB: 1.0
FontName: FreeSansOblique
FullName: Free Sans Oblique
FamilyName: FreeSans
Weight: Medium
Copyright: Copyleft 2002, 2003, 2005 Free Software Foundation.
Version: $Revision: 1.20 $
ItalicAngle: -12
UnderlinePosition: -151
UnderlineWidth: 50
Ascent: 800
Descent: 200
NeedsXUIDChange: 1
FSType: 0
PfmFamily: 33
TTFWeight: 400
TTFWidth: 5
LineGap: 90
VLineGap: 0
Panose: 2 11 5 4 2 2 2 9 2 4
OS2TypoAscent: 0
OS2TypoAOffset: 1
OS2TypoDescent: 0
OS2TypoDOffset: 1
OS2TypoLinegap: 0
OS2WinAscent: 0
OS2WinAOffset: 1
OS2WinDescent: 0
OS2WinDOffset: 1
HheadAscent: 0
HheadAOffset: 1
HheadDescent: 0
HheadDOffset: 1
OS2Vendor: 'PfEd'
ScriptLang: 5
 1 latn 1 dflt 
 1 armn 1 dflt 
 1 hebr 1 dflt 
 1 DFLT 1 dflt 
 1 grek 1 dflt 
ChainSub: class 0 0 'ccmp' 3 0 3 1
  Class: 3 i j
  Class: 101 gravecomb acutecomb uni0302 tildecomb uni0304 uni0306 uni0307 uni0308 uni030A uni030B uni030F uni0311
  FClass: 3 i j
  FClass: 101 gravecomb acutecomb uni0302 tildecomb uni0304 uni0306 uni0307 uni0308 uni030A uni030B uni030F uni0311
 1 0 1
  ClsList: 1
  BClsList:
  FClsList: 2
 1
  SeqLookup: 0 's001'
EndFPST
GenTags: 1 sb's001'
LangName: 1033 "" "" "" "" "" "" "" "" "" "" "" "" "" "The use of this font is granted subject to GNU General Public License." "http://www.gnu.org/copyleft/gpl.html" "" "" "" "" "The quick brown fox jumps over the lazy dog." 
LangName: 1060 "" "" "le+AX4A-e+AQ0A-e" "" "" "" "" "" "" "" "" "" "" "Dovoljena je uporaba v skladu z licenco GNU General Public License." "http://www.gnu.org/copyleft/gpl.html" "" "" "" "" "+AWAA-erif bo za vajo spet kuhal doma+AQ0A-e +AX4A-gance." 
Encoding: UnicodeBmp
UnicodeInterp: none
DisplaySize: -36
AntiAlias: 1
FitToEm: 1
WinInfo: 368 16 9
BeginPrivate: 8
UniqueID 7 5020908
BlueValues 31 [-23 0 524 544 729 749 686 709]
BlueScale 8 0.039625
StdHW 4 [78]
StdVW 4 [88]
StemSnapH 194 [68 73 78 83] 
systemdict /internaldict known
{1183615869 systemdict /internaldict get exec

StartChar: exclam
Encoding: 33 33 1
Width: 278
Flags: W
HStem: 0 103<146 208> 709 20G<279 363>
Fore
363 729 m 1
 289 379 l 1
 222 168 l 1
 182 168 l 1
 205 379 l 1
 279 729 l 1
 363 729 l 1
230 103 m 1
 208 0 l 1
 124 0 l 1
 146 103 l 1
 230 103 l 1
EndSplineSet
EndChar
StartChar: quotedbl
Encoding: 34 34 2
Width: 355
Flags: W
HStem: 464 245<202 217 361 376>
Fore
202 709 m 1
 296 709 l 1
 272 598 l 1
 217 464 l 1
 177 464 l 1
 178 598 l 1
 202 709 l 1
361 709 m 1
 455 709 l 1
 431 598 l 1
 376 464 l 1
 336 464 l 1
 337 598 l 1
 361 709 l 1
EndSplineSet
EndChar
StartChar: numbersign
Encoding: 35 35 3
Width: 556
Flags: W
HStem: 191 64<68 154 257 355 458 550> 439 64<157 252 355 453 556 635>
Fore
632 697 m 1
 555 503 l 1
 649 503 l 1
 635 439 l 1
 530 439 l 1
 457 255 l 1
 564 255 l 1
 550 191 l 1
 432 191 l 1
 349 -20 l 1
 273 -20 l 1
 356 191 l 1
 231 191 l 1
 148 -20 l 1
 72 -20 l 1
 155 191 l 1
 54 191 l 1
 68 255 l 1
 180 255 l 1
 253 439 l 1
 144 439 l 1
 157 503 l 1
 278 503 l 1
 355 697 l 1
 431 697 l 1
 355 503 l 1
 479 503 l 1
 556 697 l 1
 632 697 l 1
454 439 m 1
 330 439 l 1
 256 255 l 1
 381 255 l 1
 454 439 l 1
EndSplineSet
EndChar
StartChar: dollar
Encoding: 36 36 4
Width: 556
Flags: W
VStem: 69 83<134 152> 152.002 82.9977<469 501> 476.996 88.0041<211 243> 530 83<546 567>
Fore
407 770 m 1
 466 770 l 1
 455 716 l 1
 555 711 613 655 613 565 c 0
 613 549 612 539 607 519 c 1
 528 519 l 1
 529 534 l 1
 530 543 530 551 530 555 c 0
 530 607 495 643 440 646 c 1
 387 397 l 1
 469 372 484 365 508 349 c 0
 548 322 565 291 565 243 c 0
 565 168 532 88 481 43 c 0
 437 3 371 -21 298 -23 c 1
 276 -126 l 1
 217 -126 l 1
 239 -23 l 1
 122 -5 69 43 69 134 c 0
 69 157 71 174 77 208 c 1
 156 208 l 1
 155 197 l 1
 153 178 152 159 152 150 c 0
 152 95 180 67 253 46 c 1
 311 318 l 1
 239 343 218 352 197 370 c 0
 167 396 152 429 152 469 c 0
 152 535 182 609 227 650 c 0
 267 687 328 711 396 716 c 1
 407 770 l 1
330 405 m 1
 381 645 l 1
 339 642 305 627 279 602 c 128
 253 577 235 536 235 501 c 0
 235 452 261 426 330 405 c 1
368 309 m 1
 312 46 l 1
 417 54 477 114 477 211 c 0
 477 259 449 285 368 309 c 1
EndSplineSet
EndChar
StartChar: percent
Encoding: 37 37 5
Width: 889
Flags: W
HStem: -15.6262 65.6262<694 700> 254 65.1905<740 743> 346.042 65.9584<274 288> 616 65.1905<328 342>
VStem: 134.606 69.3944<492 496> 413 69.0691<534 540> 546.198 69.8017<124 134> 825 69.0692<172 174>
Fore
759 709 m 1
 825 709 l 1
 275 -20 l 1
 209 -20 l 1
 759 709 l 1
345 682 m 0
 423 682 483 625 483 552 c 0
 483 444 382 346 270 346 c 0
 192 346 134 402 134 478 c 0
 134 583 237 682 345 682 c 0
329 616 m 0
 265 616 204 557 204 494 c 0
 204 447 239 412 286 412 c 0
 351 412 413 472 413 534 c 0
 413 583 379 616 329 616 c 0
757 320 m 0
 835 320 895 263 895 190 c 0
 895 82 794 -16 682 -16 c 0
 604 -16 546 40 546 116 c 0
 546 221 649 320 757 320 c 0
741 254 m 0
 677 254 616 195 616 132 c 0
 616 85 651 50 698 50 c 0
 763 50 825 110 825 172 c 0
 825 221 791 254 741 254 c 0
EndSplineSet
EndChar
StartChar: ampersand
Encoding: 38 38 6
Width: 667
Flags: W
HStem: -22.8598 76.8598<253 280> 0 21G<528 634> 639 69.0067<435 450>
VStem: 83.938 87.3387<128 159> 247 83<521 537> 505 83<569 587>
Fore
565 334 m 1
 644 334 l 1
 632 273 593 202 544 151 c 1
 634 0 l 1
 528 0 l 1
 482 78 l 1
 391 3 333 -23 253 -23 c 0
 148 -23 83 35 83 128 c 0
 83 209 120 277 195 332 c 0
 221 350 249 368 288 390 c 1
 284 401 281 409 279 413 c 2
 261 455 l 2
 252 477 247 500 247 523 c 0
 247 620 346 709 455 709 c 0
 536 709 588 662 588 587 c 0
 588 500 531 434 407 378 c 1
 505 215 l 1
 537 252 553 285 565 334 c 1
377 434 m 1
 469 480 505 519 505 574 c 0
 505 614 479 639 436 639 c 0
 377 639 330 592 330 533 c 0
 330 505 336 492 377 434 c 1
448 137 m 1
 329 336 l 1
 217 276 171 224 171 159 c 128
 171 94 213 54 280 54 c 0
 329 54 375 76 448 137 c 1
EndSplineSet
EndChar
StartChar: quotesingle
Encoding: 39 39 7
Width: 191
Flags: W
HStem: 464 245<198 213>
Fore
198 709 m 1
 292 709 l 1
 268 598 l 1
 213 464 l 1
 173 464 l 1
 174 598 l 1
 198 709 l 1
EndSplineSet
EndChar
StartChar: parenleft
Encoding: 40 40 8
Width: 333
Flags: W
HStem: -213 21G<191 246> 709 20G<391 446>
VStem: 113 78<78 118>
Fore
391 729 m 1
 446 729 l 1
 278 523 191 301 191 79 c 0
 191 -23 209 -117 246 -213 c 1
 191 -213 l 1
 142 -127 113 -3 113 116 c 0
 113 319 217 547 391 729 c 1
EndSplineSet
EndChar
StartChar: parenright
Encoding: 41 41 9
Width: 333
Flags: W
HStem: -213 21G<-7 48> 709 20G<193 248>
VStem: 248 77<395 443>
Fore
48 -213 m 1
 -7 -213 l 1
 159 -10 248 215 248 431 c 0
 248 538 231 632 193 729 c 1
 248 729 l 1
 295 646 325 520 325 407 c 0
 325 275 290 148 216 15 c 0
 170 -68 111 -147 48 -213 c 1
EndSplineSet
EndChar
StartChar: asterisk
Encoding: 42 42 10
Width: 389
Flags: W
HStem: 709 20G<319 381>
Fore
319 729 m 1
 381 729 l 1
 352 617 l 1
 462 655 l 1
 471 593 l 1
 358 566 l 1
 411 475 l 1
 353 438 l 1
 309 534 l 1
 228 439 l 1
 181 479 l 1
 273 567 l 1
 169 598 l 1
 199 657 l 1
 299 617 l 1
 319 729 l 1
EndSplineSet
EndChar
StartChar: plus
Encoding: 43 43 11
Width: 584
Flags: W
HStem: 197 72<107 298 385 576> 197 276<369 384>
Fore
591 269 m 1
 576 197 l 1
 369 197 l 1
 325 -11 l 1
 255 -11 l 1
 299 197 l 1
 92 197 l 1
 107 269 l 1
 314 269 l 1
 358 473 l 1
 428 473 l 1
 384 269 l 1
 591 269 l 1
EndSplineSet
EndChar
StartChar: comma
Encoding: 44 44 12
Width: 278
Flags: W
HStem: 0 103<109 145>
Fore
109 103 m 1
 214 103 l 1
 188 -16 l 1
 171 -101 121 -150 55 -147 c 1
 63 -109 l 1
 111 -109 132 -82 146 0 c 1
 87 0 l 1
 109 103 l 1
EndSplineSet
KernsSLIFO: 1051 -55 3 0 1054 -47 3 0 1087 -105 3 0
EndChar
StartChar: hyphen
Encoding: 45 45 13
Width: 333
Flags: W
HStem: 240 72<112 336>
Fore
351 312 m 1
 336 240 l 1
 97 240 l 1
 112 312 l 1
 351 312 l 1
EndSplineSet
KernsSLIFO: 33 -12 3 0 52 -86 3 0 54 -51 3 0 55 -24 3 0 57 -97 3 0 126 -12 3 0 129 -12 3 0 130 -12 3 0 131 -17 3 0
EndChar
StartChar: period
Encoding: 46 46 14
Width: 278
Flags: W
HStem: 0 103<109 191>
Fore
213 103 m 1
 191 0 l 1
 87 0 l 1
 109 103 l 1
 213 103 l 1
EndSplineSet
KernsSLIFO: 1051 -56 3 0 1054 -48 3 0 1087 -106 3 0
EndChar
StartChar: slash
Encoding: 47 47 15
Width: 278
Flags: W
HStem: 709 20G<379 434>
Fore
379 729 m 1
 434 729 l 1
 43 -20 l 1
 -12 -20 l 1
 379 729 l 1
EndSplineSet
EndChar
StartChar: zero
Encoding: 48 48 16
Width: 556
Flags: HW
HStem: -23 77<274 290> 632 77<402 420>
VStem: 98 88<169 201> 510 88<489 521>
Fore
418 709 m 0
 531 709 598 636 598 514 c 0
 598 371 550 191 486 99 c 0
 428 15 362 -23 276 -23 c 0
 228 -23 179 -5 148 25 c 0
 116 56 98 109 98 170 c 0
 98 315 147 495 210 587 c 0
 266 669 335 709 418 709 c 0
406 632 m 0
 343 632 295 592 256 509 c 0
 218 426 186 276 186 181 c 0
 186 102 224 54 287 54 c 0
 352 54 399 92 439 178 c 0
 477 258 510 410 510 504 c 0
 510 585 471 632 406 632 c 0
EndSplineSet
EndChar
StartChar: one
Encoding: 49 49 17
Width: 556
Flags: HW
HStem: 0 21G<259 347>
Fore
367 505 m 1
 208 505 l 1
 221 568 l 1
 365 588 386 601 440 709 c 1
 498 709 l 1
 347 0 l 1
 259 0 l 1
 367 505 l 1
EndSplineSet
EndChar
StartChar: two
Encoding: 50 50 18
Width: 556
Flags: HW
HStem: 0 87<148 505> 632 77<400 434>
VStem: 532 88<524 539>
Fore
524 87 m 1
 505 0 l 1
 34 0 l 1
 78 161 124 215 297 307 c 1
 401 359 l 2
 484 401 532 461 532 525 c 128
 532 589 486 632 416 632 c 0
 358 632 308 607 277 563 c 0
 259 538 247 508 235 463 c 1
 147 463 l 1
 186 632 274 709 428 709 c 0
 496 709 544 691 578 653 c 0
 605 623 620 581 620 537 c 0
 620 437 555 354 422 287 c 2
 310 230 l 2
 219 185 164 136 147 87 c 1
 524 87 l 1
EndSplineSet
EndChar
StartChar: three
Encoding: 51 51 19
Width: 556
Flags: HW
HStem: -23 77<263 291> 327 73<306 343> 632 77<404 423>
VStem: 71 88<143 169> 467 88<233 249> 511 87.4053<544 553>
Fore
290 325 m 1
 306 400 l 1
 318 400 l 1
 324 400 l 2
 397 400 450 416 477 447 c 0
 498 470 511 507 511 545 c 0
 511 599 470 632 405 632 c 0
 349 632 301 609 271 568 c 0
 256 548 247 524 237 480 c 1
 149 480 l 1
 168 552 186 590 215 624 c 0
 264 679 334 709 417 709 c 0
 527 709 599 651 599 563 c 0
 599 474 562 415 477 367 c 1
 533 339 555 306 555 249 c 0
 555 184 527 112 481 63 c 0
 430 7 354 -23 264 -23 c 0
 139 -23 71 36 71 144 c 0
 71 162 72 176 76 206 c 1
 164 206 l 1
 162 193 l 1
 160 177 159 162 159 154 c 0
 159 93 206 54 277 54 c 0
 389 54 467 128 467 236 c 0
 467 293 418 327 335 327 c 0
 321 327 311 327 290 325 c 1
EndSplineSet
EndChar
StartChar: four
Encoding: 52 52 20
Width: 556
Flags: HW
HStem: 0 21G<326 414> 170 78<159 361 468 556>
Fore
362 170 m 1
 63 170 l 1
 83 262 l 1
 499 709 l 1
 565 709 l 1
 467 248 l 1
 573 248 l 1
 556 170 l 1
 450 170 l 1
 414 0 l 1
 326 0 l 1
 362 170 l 1
379 248 m 1
 444 556 l 1
 158 248 l 1
 379 248 l 1
EndSplineSet
EndChar
StartChar: five
Encoding: 53 53 21
Width: 556
Flags: HW
HStem: -23 77<270 294> 389.998 77.0023<353 381> 622 87<311 611>
VStem: 479 87.0656<269 295>
Fore
629 709 m 1
 611 622 l 1
 311 622 l 1
 241 424 l 1
 290 454 333 467 381 467 c 0
 494 467 567 399 567 295 c 0
 567 224 542 149 498 93 c 0
 439 15 364 -23 271 -23 c 0
 209 -23 157 -6 119 26 c 0
 84 55 70 93 70 152 c 2
 70 162 l 1
 70 174 l 1
 158 174 l 1
 161 94 204 54 283 54 c 0
 396 54 479 145 479 269 c 0
 479 346 433 390 353 390 c 0
 295 390 265 377 204 323 c 1
 124 323 l 1
 259 709 l 1
 629 709 l 1
EndSplineSet
EndChar
StartChar: six
Encoding: 54 54 22
Width: 556
Flags: HW
HStem: -23 77<285 301> 364.043 77.8545<364 388> 524 21G<522 610> 632 77<413 437>
VStem: 93 88<166 185> 478 88<255 272> 522 88<525 531>
Fore
610 524 m 1
 522 524 l 1
 523 526 523 528 523 529 c 128
 523 530 523 530 518 559 c 0
 512 589 504 601 481 616 c 0
 464 627 444 632 421 632 c 0
 320 632 238 527 209 358 c 1
 266 415 322 442 388 442 c 0
 495 442 566 374 566 271 c 0
 566 210 540 139 499 86 c 0
 444 14 371 -23 286 -23 c 0
 168 -23 93 51 93 167 c 0
 93 292 140 469 198 560 c 0
 261 659 341 709 435 709 c 0
 542 709 611 647 611 551 c 0
 611 545 611 535 610 524 c 1
364 365 m 0
 262 365 181 280 181 174 c 0
 181 103 230 54 299 54 c 0
 398 54 478 144 478 256 c 0
 478 321 432 365 364 365 c 0
EndSplineSet
EndChar
StartChar: seven
Encoding: 55 55 23
Width: 556
Flags: HW
HStem: 0 21G<137 235> 622 87<196 559>
Fore
671 709 m 1
 654 628 l 1
 483 460 302 189 235 0 c 1
 137 0 l 1
 227 211 335 369 560 622 c 1
 177 622 l 1
 196 709 l 1
 671 709 l 1
EndSplineSet
EndChar
StartChar: eight
Encoding: 56 56 24
Width: 556
Flags: HW
HStem: -23 77<280 298> 334 74<344 364> 632 77<406 426>
VStem: 74 88<146 162> 169 88<479 493> 472 88<225 241> 516 87.1517<544 553>
Fore
233 373 m 1
 221 383 l 2
 179 417 169 436 169 480 c 0
 169 535 192 590 234 632 c 0
 285 685 344 709 421 709 c 0
 485 709 533 692 566 657 c 0
 590 631 604 596 604 561 c 0
 604 518 587 470 560 436 c 0
 544 416 534 408 493 383 c 0
 490 381 485 378 477 373 c 1
 533 341 560 297 560 239 c 0
 560 182 535 120 492 72 c 0
 436 9 365 -23 281 -23 c 0
 155 -23 74 43 74 145 c 128
 74 247 128 325 233 373 c 1
407 632 m 0
 320 632 257 573 257 491 c 0
 257 439 297 408 364 408 c 0
 416 408 455 424 483 458 c 0
 503 482 516 516 516 545 c 0
 516 599 475 632 407 632 c 0
344 334 m 0
 243 334 162 257 162 160 c 0
 162 97 213 54 287 54 c 0
 392 54 472 129 472 226 c 0
 472 292 422 334 344 334 c 0
EndSplineSet
EndChar
StartChar: nine
Encoding: 57 57 25
Width: 556
Flags: HW
HStem: -23 77<257 275> 244.903 76.143<303 327> 632 77<387 406>
VStem: 84 87<153 161> 126 88<418 438> 511 88<505 527>
Fore
84 162 m 1
 171 162 l 1
 171 93 206 54 270 54 c 0
 371 54 441 144 481 324 c 1
 451 299 438 288 425 279 c 0
 393 257 346 244 303 244 c 0
 195 244 126 311 126 417 c 0
 126 476 148 540 190 600 c 0
 240 671 314 709 404 709 c 0
 466 709 517 690 551 654 c 0
 581 621 599 572 599 525 c 0
 599 464 582 359 557 266 c 0
 529 161 493 97 428 43 c 0
 376 -1 319 -23 258 -23 c 0
 152 -23 83 39 83 135 c 0
 83 141 83 151 84 162 c 1
392 632 m 0
 295 632 214 543 214 436 c 0
 214 364 256 321 327 321 c 0
 428 321 511 408 511 514 c 0
 511 581 460 632 392 632 c 0
EndSplineSet
EndChar
StartChar: colon
Encoding: 58 58 26
Width: 278
Flags: W
HStem: 0 103<132 214> 421 103<222 304>
Fore
236 103 m 1
 214 0 l 1
 110 0 l 1
 132 103 l 1
 236 103 l 1
326 524 m 1
 304 421 l 1
 200 421 l 1
 222 524 l 1
 326 524 l 1
EndSplineSet
EndChar
StartChar: semicolon
Encoding: 59 59 27
Width: 278
Flags: W
HStem: 0 103<132 168> 421 103<221 303>
Fore
325 524 m 1
 303 421 l 1
 199 421 l 1
 221 524 l 1
 325 524 l 1
132 103 m 1
 237 103 l 1
 211 -16 l 1
 194 -101 144 -150 78 -147 c 1
 86 -109 l 1
 134 -109 155 -82 169 0 c 1
 110 0 l 1
 132 103 l 1
EndSplineSet
EndChar
StartChar: less
Encoding: 60 60 28
Width: 584
Flags: W
Fore
87 198 m 1
 102 267 l 1
 635 474 l 1
 618 395 l 1
 196 231 l 1
 549 68 l 1
 532 -9 l 1
 87 198 l 1
EndSplineSet
EndChar
StartChar: equal
Encoding: 61 61 29
Width: 584
Flags: W
HStem: 111 72<89 558> 283 72<125 594>
Fore
609 355 m 1
 594 283 l 1
 111 283 l 1
 125 355 l 1
 609 355 l 1
572 183 m 1
 558 111 l 1
 74 111 l 1
 89 183 l 1
 572 183 l 1
EndSplineSet
EndChar
StartChar: greater
Encoding: 62 62 30
Width: 584
Flags: W
Fore
596 267 m 1
 581 198 l 1
 48 -9 l 1
 65 70 l 1
 487 234 l 1
 134 397 l 1
 151 474 l 1
 596 267 l 1
EndSplineSet
EndChar
StartChar: question
Encoding: 63 63 31
Width: 556
Flags: W
HStem: 0 103<261 329> 664 76.1606<424 440>
VStem: 534 96<576 591>
Fore
371 199 m 1
 281 199 l 1
 293 254 l 1
 307 315 322 333 429 417 c 0
 506 479 534 521 534 578 c 0
 534 629 490 664 427 664 c 0
 339 664 291 616 269 507 c 1
 184 507 l 1
 215 661 305 741 449 741 c 0
 501 741 543 730 572 707 c 0
 608 679 630 635 630 590 c 0
 630 513 588 448 485 370 c 0
 411 315 395 296 381 246 c 1
 371 199 l 1
351 103 m 1
 329 0 l 1
 239 0 l 1
 261 103 l 1
 351 103 l 1
EndSplineSet
EndChar
StartChar: at
Encoding: 64 64 32
Width: 1015
Flags: W
HStem: -142 77<445 480> 57.0022 69.9978<696 721> 62.0024 61.9976<445 478> 455 69<607 628> 664 77<656 688>
VStem: 80 88<178 210> 310 92<195 221> 953 83<413 436>
Fore
771 501 m 1
 853 501 l 1
 704 221 l 2
 687 189 680 172 680 163 c 0
 680 144 699 127 721 127 c 0
 830 127 953 280 953 414 c 0
 953 558 829 664 660 664 c 0
 413 664 168 431 168 196 c 0
 168 40 292 -65 475 -65 c 0
 536 -65 591 -56 679 -33 c 1
 692 -100 l 1
 618 -127 528 -142 447 -142 c 0
 332 -142 224 -96 153 -17 c 0
 104 38 80 104 80 182 c 0
 80 313 144 454 252 563 c 0
 363 674 523 741 681 741 c 0
 886 741 1036 611 1036 434 c 0
 1036 348 1006 253 959 193 c 0
 898 114 788 57 696 57 c 0
 665 57 638 63 623 73 c 0
 609 82 597 104 597 120 c 2
 597 125 l 1
 597 134 l 1
 590 129 584 124 582 122 c 0
 529 78 492 62 445 62 c 0
 364 62 310 117 310 201 c 0
 310 353 477 524 626 524 c 0
 685 524 723 494 735 435 c 1
 771 501 l 1
614 455 m 0
 566 455 516 427 473 376 c 0
 430 326 402 260 402 210 c 128
 402 160 434 124 478 124 c 128
 522 124 569 155 608 211 c 0
 651 271 682 346 682 390 c 0
 682 432 658 455 614 455 c 0
EndSplineSet
EndChar
StartChar: A
Encoding: 65 65 33
Width: 667
Flags: W
HStem: 0 21G<17 116 551 653> 219 78<284 513> 709 20G<432 552>
Fore
524 219 m 1
 239 219 l 1
 116 0 l 1
 17 0 l 1
 432 729 l 1
 552 729 l 1
 653 0 l 1
 551 0 l 1
 524 219 l 1
514 297 m 1
 474 630 l 1
 283 297 l 1
 514 297 l 1
EndSplineSet
KernsSLIFO: 12 -4 0 0 13 -8 0 0 14 -2 0 0 35 -41 0 0 39 -41 0 0 47 -37 0 0 49 -38 0 0 52 -103 0 0 53 -42 0 0 54 -81 0 0 55 -57 0 0 57 -104 0 0 65 -16 0 0 66 -5 0 0 67 -16 0 0 68 -14 0 0 69 -22 0 0 71 -17 0 0 79 -19 0 0 81 -15 0 0 84 -22 0 0 85 -18 0 0 86 -40 0 0 87 -29 0 0 89 -44 0 0 105 -51 0 0 132 -41 0 0 147 -37 0 0 150 -42 0 0 151 -42 0 0 152 -42 0 0 153 -42 0 0 164 -16 0 0 1051 -68 0 0 1054 -60 0 0 1061 -47 0 0
EndChar
StartChar: B
Encoding: 66 66 34
Width: 667
Flags: W
HStem: 0 82<191 431> 333 82<262 469> 647 82<311 511>
VStem: 576 96<240 258> 615 95.0671<561 584>
Fore
79 0 m 1
 234 729 l 1
 530 729 l 2
 599 729 641 714 675 678 c 0
 700 651 711 622 711 584 c 0
 711 495 662 423 575 384 c 1
 645 354 672 319 672 258 c 0
 672 193 650 134 607 87 c 0
 554 28 491 0 409 0 c 2
 79 0 l 1
261 415 m 1
 441 415 l 2
 507 415 547 429 577 461 c 0
 601 487 615 524 615 561 c 0
 615 620 576 647 491 647 c 2
 311 647 l 1
 261 415 l 1
190 82 m 1
 417 82 l 2
 473 82 511 99 542 139 c 0
 564 169 576 204 576 242 c 0
 576 301 539 333 470 333 c 2
 244 333 l 1
 190 82 l 1
EndSplineSet
KernsSLIFO: 33 -28 0 0 47 -14 0 0 54 -49 0 0 55 -27 0 0 57 -56 0 0 126 -28 0 0 127 -28 0 0 128 -28 0 0 129 -28 0 0 130 -28 0 0 131 -29 0 0 143 -14 0 0 144 -14 0 0 145 -14 0 0 147 -14 0 0 149 -2 0 0 271 -11 0 0
EndChar
StartChar: C
Encoding: 67 67 35
Width: 722
Flags: W
HStem: -23 81<366 384> 660 81<512 534>
VStem: 112 96<241 268>
Fore
770 503 m 1
 674 503 l 1
 666 611 616 660 515 660 c 0
 423 660 350 617 289 527 c 0
 238 451 208 351 208 260 c 0
 208 139 277 58 381 58 c 0
 460 58 536 95 578 155 c 0
 596 179 612 209 637 266 c 1
 735 266 l 1
 701 185 669 130 630 87 c 0
 565 16 473 -23 367 -23 c 0
 278 -23 215 4 169 62 c 0
 132 109 112 172 112 242 c 0
 112 367 161 505 240 600 c 0
 318 694 415 741 532 741 c 0
 626 741 697 704 738 634 c 0
 757 600 767 562 770 503 c 1
EndSplineSet
KernsSLIFO: 33 -43 0 0 40 -22 0 0 43 -20 0 0 47 -18 0 0 126 -43 0 0 129 -43 0 0 130 -43 0 0 131 -44 0 0 144 -18 0 0 147 -18 0 0
EndChar
StartChar: D
Encoding: 68 68 36
Width: 722
Flags: W
HStem: 0 82<201 393> 647 82<321 505>
VStem: 663 96<464 496>
Fore
89 0 m 1
 244 729 l 1
 526 729 l 2
 591 729 644 711 682 677 c 0
 729 635 759 561 759 488 c 0
 759 363 711 217 643 134 c 0
 570 45 479 0 371 0 c 2
 89 0 l 1
200 82 m 1
 372 82 l 2
 463 82 539 125 591 205 c 0
 631 268 663 388 663 480 c 0
 663 584 599 647 492 647 c 2
 321 647 l 1
 200 82 l 1
EndSplineSet
KernsSLIFO: 33 -50 0 0 42 -13 0 0 52 -56 0 0 54 -54 0 0 55 -31 0 0 56 -58 0 0 57 -74 0 0 125 -50 0 0 126 -50 0 0 127 -50 0 0 128 -50 0 0 129 -50 0 0 130 -50 0 0
EndChar
StartChar: E
Encoding: 69 69 37
Width: 667
Flags: W
HStem: 0 82<202 613> 332 82<273 650> 647 82<322 734>
Fore
255 332 m 1
 201 82 l 1
 630 82 l 1
 613 0 l 1
 90 0 l 1
 245 729 l 1
 751 729 l 1
 734 647 l 1
 322 647 l 1
 272 414 l 1
 668 414 l 1
 650 332 l 1
 255 332 l 1
EndSplineSet
EndChar
StartChar: F
Encoding: 70 70 38
Width: 611
Flags: W
HStem: 0 21G<90 184> 332 82<273 602> 647 82<322 717>
Fore
255 332 m 1
 184 0 l 1
 90 0 l 1
 245 729 l 1
 734 729 l 1
 717 647 l 1
 322 647 l 1
 272 414 l 1
 619 414 l 1
 602 332 l 1
 255 332 l 1
EndSplineSet
KernsSLIFO: 12 -113 0 0 13 -20 0 0 14 -113 0 0 33 -78 0 0 42 -59 0 0 47 -30 0 0 65 -45 0 0 69 -33 0 0 73 -19 0 0 74 -19 0 0 79 -30 0 0 82 -44 0 0 85 -42 0 0 125 -78 0 0 126 -78 0 0 127 -78 0 0 128 -78 0 0 129 -78 0 0 130 -78 0 0 147 -30 0 0 158 -45 0 0 161 -45 0 0 162 -45 0 0 163 -41 0 0 166 -33 0 0 176 -30 0 0 179 -30 0 0 181 -30 0 0 272 -33 0 0
EndChar
StartChar: G
Encoding: 71 71 39
Width: 778
Flags: W
HStem: -22.497 80.8346<378 411> 303 82<489 692> 660 81<525 557>
VStem: 109 96<260 281> 718 91<508.063 526>
Fore
793 385 m 1
 710 -4 l 1
 651 -4 l 1
 647 86 l 1
 609 54 590 40 566 26 c 0
 512 -5 443 -23 378 -23 c 0
 310 -23 245 -2 199 36 c 0
 143 81 109 167 109 261 c 0
 109 391 167 527 263 623 c 0
 341 701 439 741 555 741 c 0
 712 741 809 658 809 525 c 2
 809 519 l 1
 809 515 l 1
 809 508 l 1
 718 508 l 1
 717 554 707 581 681 607 c 0
 648 642 598 660 537 660 c 0
 440 660 354 617 293 538 c 0
 240 468 205 365 205 277 c 0
 205 220 219 167 242 132 c 0
 273 86 337 58 411 58 c 0
 480 58 538 79 592 123 c 0
 643 165 672 211 687 277 c 2
 693 303 l 1
 471 303 l 1
 489 385 l 1
 793 385 l 1
EndSplineSet
KernsSLIFO: 33 -14 0 0 52 -53 0 0 54 -53 0 0 55 -31 0 0 57 -72 0 0 125 -14 0 0 126 -14 0 0 127 -14 0 0 128 -14 0 0 129 -14 0 0 130 -14 0 0 131 -11 0 0
EndChar
StartChar: H
Encoding: 72 72 40
Width: 722
Flags: W
HStem: 0 21G<83 177 550 644> 332 82<266 620> 709 20G<238 332 705 799>
Fore
621 332 m 1
 248 332 l 1
 177 0 l 1
 83 0 l 1
 238 729 l 1
 332 729 l 1
 265 414 l 1
 638 414 l 1
 705 729 l 1
 799 729 l 1
 644 0 l 1
 550 0 l 1
 621 332 l 1
EndSplineSet
EndChar
StartChar: I
Encoding: 73 73 41
Width: 278
Flags: W
HStem: 0 21G<100 194> 709 20G<255 349>
Fore
349 729 m 1
 194 0 l 1
 100 0 l 1
 255 729 l 1
 349 729 l 1
EndSplineSet
EndChar
StartChar: J
Encoding: 74 74 42
Width: 500
Flags: W
HStem: -22.8565 80.8565<223 239> 709 20G<487 581>
VStem: 47 96<122 137>
Fore
487 729 m 1
 581 729 l 1
 465 182 l 2
 437 51 345 -23 213 -23 c 0
 164 -23 130 -13 102 9 c 0
 68 37 47 79 47 122 c 0
 47 136 49 153 53 170 c 1
 67 234 l 1
 161 234 l 1
 147 168 l 1
 144 156 143 145 143 134 c 0
 143 89 179 58 233 58 c 0
 270 58 307 75 331 102 c 0
 353 127 366 160 378 216 c 2
 487 729 l 1
EndSplineSet
KernsSLIFO: 33 -39 0 0 129 -39 0 0 130 -39 0 0 131 -39 0 0
EndChar
StartChar: K
Encoding: 75 75 43
Width: 667
Flags: W
HStem: 0 21G<79 173 548 658> 709 20G<234 328 693 813>
Fore
226 249 m 1
 173 0 l 1
 79 0 l 1
 234 729 l 1
 328 729 l 1
 249 356 l 1
 693 729 l 1
 813 729 l 1
 452 431 l 1
 658 0 l 1
 548 0 l 1
 380 376 l 1
 226 249 l 1
EndSplineSet
KernsSLIFO: 13 -53 0 0 35 -56 0 0 39 -57 0 0 47 -53 0 0 51 -48 0 0 52 14 0 0 65 -23 0 0 69 -46 0 0 79 -42 0 0 85 -32 0 0 89 -76 0 0 144 -53 0 0 147 -53 0 0 161 -23 0 0 162 -23 0 0 163 -20 0 0 176 -42 0 0 179 -42 0 0 185 -32 0 0 271 -49 0 0
EndChar
StartChar: L
Encoding: 76 76 44
Width: 556
Flags: W
HStem: 0 82<192 534> 709 20G<235 329>
Fore
329 729 m 1
 191 82 l 1
 551 82 l 1
 534 0 l 1
 80 0 l 1
 235 729 l 1
 329 729 l 1
EndSplineSet
KernsSLIFO: 13 -140 0 0 33 8 0 0 35 -52 0 0 39 -53 0 0 47 -51 0 0 51 -28 0 0 52 -112 0 0 53 -46 0 0 54 -115 0 0 55 -77 0 0 57 -128 0 0 85 -17 0 0 89 -68 0 0 126 8 0 0 129 8 0 0 130 8 0 0 131 11 0 0 132 -51 0 0 143 -51 0 0 144 -51 0 0 145 -51 0 0 146 -51 0 0 147 -51 0 0 153 -46 0 0 185 -17 0 0 1051 -153 0 0 1054 -145 0 0
EndChar
StartChar: M
Encoding: 77 77 45
Width: 833
Flags: W
HStem: 0 21G<75 164 370 467 672 761> 709 20G<230 359 785 916>
Fore
467 0 m 1
 370 0 l 1
 293 605 l 1
 164 0 l 1
 75 0 l 1
 230 729 l 1
 359 729 l 1
 439 102 l 1
 785 729 l 1
 916 729 l 1
 761 0 l 1
 672 0 l 1
 801 605 l 1
 467 0 l 1
EndSplineSet
EndChar
StartChar: N
Encoding: 78 78 46
Width: 722
Flags: W
HStem: 0 21G<76 165 540 646> 709 20G<231 335 712 801>
Fore
801 729 m 1
 646 0 l 1
 540 0 l 1
 291 591 l 1
 165 0 l 1
 76 0 l 1
 231 729 l 1
 335 729 l 1
 585 131 l 1
 712 729 l 1
 801 729 l 1
EndSplineSet
KernsSLIFO: 12 -15 0 0 14 -15 0 0 33 -19 0 0 35 -15 0 0 39 -14 0 0 47 -11 0 0 65 -17 0 0 69 -11 0 0 79 -8 0 0 85 -8 0 0 126 -19 0 0 129 -19 0 0 130 -19 0 0 131 -16 0 0 132 -14 0 0 144 -11 0 0 147 -11 0 0 158 -17 0 0 161 -17 0 0 162 -17 0 0 163 -13 0 0 166 -11 0 0 176 -8 0 0 179 -8 0 0 181 -4 0 0 185 -9 0 0
EndChar
StartChar: O
Encoding: 79 79 47
Width: 778
Flags: W
HStem: -23 81<390 408> 660 81<520 539>
VStem: 104 96<249 281> 732 96<441 466>
Fore
537 741 m 0
 628 741 707 713 756 664 c 0
 800 619 828 543 828 464 c 0
 828 306 752 144 635 54 c 0
 570 4 485 -23 391 -23 c 0
 306 -23 225 6 177 54 c 0
 131 100 104 177 104 263 c 0
 104 390 157 522 246 614 c 0
 327 699 424 741 537 741 c 0
525 660 m 0
 431 660 342 613 284 533 c 0
 231 460 200 363 200 271 c 0
 200 213 214 164 241 130 c 0
 276 86 339 58 404 58 c 0
 501 58 589 104 647 185 c 0
 700 257 732 355 732 446 c 0
 732 505 718 553 691 588 c 0
 657 632 593 660 525 660 c 0
EndSplineSet
KernsSLIFO: 33 -43 0 0 52 -54 0 0 54 -48 0 0 55 -25 0 0 56 -52 0 0 57 -71 0 0 126 -43 0 0 129 -43 0 0 130 -43 0 0 131 -47 0 0
EndChar
StartChar: P
Encoding: 80 80 48
Width: 667
Flags: W
HStem: 0 21G<91 185> 309 82<269 481> 647 82<323 539>
VStem: 637 95.3369<549 560>
Fore
251 309 m 1
 185 0 l 1
 91 0 l 1
 246 729 l 1
 548 729 l 2
 670 729 733 674 733 568 c 0
 733 487 697 411 634 361 c 0
 589 325 542 309 479 309 c 2
 251 309 l 1
268 391 m 1
 462 391 l 2
 526 391 569 410 602 452 c 0
 625 482 637 515 637 550 c 0
 637 613 595 647 517 647 c 2
 323 647 l 1
 268 391 l 1
EndSplineSet
KernsSLIFO: 12 -138 0 0 13 -45 0 0 14 -138 0 0 33 -86 0 0 42 -85 0 0 65 -39 0 0 69 -38 0 0 79 -34 0 0 126 -86 0 0 129 -86 0 0 130 -86 0 0 131 -93 0 0 158 -39 0 0 161 -39 0 0 162 -39 0 0 163 -35 0 0 166 -38 0 0 176 -34 0 0 179 -34 0 0 181 -35 0 0 272 -38 0 0
EndChar
StartChar: Q
Encoding: 81 81 49
Width: 778
Flags: W
HStem: -23 81<389 424> 660 81<520 539>
VStem: 104 96<261 293> 732 96<437 469>
Fore
733 -1 m 1
 673 -59 l 1
 586 28 l 1
 513 -11 467 -23 390 -23 c 0
 210 -23 104 84 104 264 c 0
 104 417 182 575 301 664 c 0
 370 715 448 741 537 741 c 128
 626 741 707 712 755 664 c 0
 801 617 828 539 828 456 c 0
 828 312 765 175 655 76 c 1
 733 -1 l 1
524 205 m 1
 598 132 l 1
 685 216 732 327 732 446 c 0
 732 505 718 553 691 588 c 0
 656 633 593 660 525 660 c 0
 431 660 342 613 285 533 c 0
 232 461 200 363 200 272 c 0
 200 138 278 58 409 58 c 0
 450 58 479 65 528 87 c 1
 466 149 l 1
 524 205 l 1
EndSplineSet
EndChar
StartChar: R
Encoding: 82 82 50
Width: 722
Flags: W
HStem: 0 21G<93 187 566 679> 314 82<272 509> 647 82<325 585>
VStem: 562.216 101.604<47 76> 593.995 96.005<239 264> 674 95.263<557 560>
Fore
254 314 m 1
 187 0 l 1
 93 0 l 1
 248 729 l 1
 584 729 l 2
 712 729 770 681 770 575 c 0
 770 513 743 446 703 409 c 0
 685 393 669 382 630 360 c 1
 677 329 690 308 690 264 c 0
 690 246 682 194 669 126 c 0
 665 105 663 88 663 76 c 0
 663 54 671 35 684 23 c 1
 679 0 l 1
 566 0 l 1
 563 21 562 32 562 47 c 0
 562 79 562 79 586 179 c 0
 591 201 594 222 594 239 c 0
 594 288 558 314 493 314 c 2
 254 314 l 1
271 396 m 1
 502 396 l 2
 566 396 608 413 637 449 c 0
 659 477 674 521 674 558 c 0
 674 582 666 605 653 619 c 0
 634 640 608 647 555 647 c 2
 325 647 l 1
 271 396 l 1
EndSplineSet
KernsSLIFO: 13 -4 0 0 35 -21 0 0 39 -21 0 0 47 -17 0 0 52 -33 0 0 53 -21 0 0 54 -49 0 0 55 -27 0 0 57 -54 0 0 65 -21 0 0 69 -16 0 0 79 -13 0 0 85 -13 0 0 89 -16 0 0 132 -21 0 0 144 -17 0 0 147 -17 0 0 153 -21 0 0 158 -21 0 0 161 -21 0 0 162 -21 0 0 163 -17 0 0 166 -16 0 0 176 -13 0 0 179 -13 0 0 183 -14 0 0 185 -14 0 0 271 -14 0 0 272 -16 0 0
EndChar
StartChar: S
Encoding: 83 83 51
Width: 667
Flags: W
HStem: -23 81<318 361> 660 81<457 490>
VStem: 89.0062 91.9938<171 191> 178.621 96.1936<492 518> 572.995 96.0048<209 237> 621.995 92.0051<551 571>
Fore
706 515 m 1
 618 515 l 1
 621 535 622 542 622 551 c 0
 622 580 609 612 590 629 c 0
 568 649 526 660 470 660 c 0
 404 660 355 644 318 611 c 0
 289 584 274 553 274 518 c 0
 274 474 298 454 375 432 c 2
 547 383 l 2
 594 370 623 350 645 315 c 0
 660 291 669 263 669 237 c 0
 669 181 633 108 582 61 c 0
 523 6 435 -23 330 -23 c 0
 179 -23 89 49 89 169 c 0
 89 190 91 206 98 232 c 1
 185 232 l 1
 182 213 181 204 181 191 c 0
 181 100 233 58 346 58 c 0
 426 58 485 77 526 114 c 0
 554 140 573 178 573 209 c 0
 573 257 540 286 460 309 c 2
 289 357 l 2
 222 376 178 429 178 492 c 0
 178 543 209 614 250 656 c 0
 304 712 385 741 488 741 c 0
 566 741 619 725 660 689 c 0
 693 660 714 614 714 571 c 0
 714 556 712 543 706 515 c 1
EndSplineSet
KernsSLIFO: 33 -31 0 0 52 -38 0 0 54 -52 0 0 55 -31 0 0 57 -58 0 0 84 -11 0 0 126 -31 0 0 129 -31 0 0 130 -31 0 0 131 -31 0 0
EndChar
StartChar: T
Encoding: 84 84 52
Width: 611
Flags: W
HStem: 0 21G<261 355> 647 82<175 398 493 731>
Fore
493 647 m 1
 355 0 l 1
 261 0 l 1
 399 647 l 1
 158 647 l 1
 175 729 l 1
 748 729 l 1
 731 647 l 1
 493 647 l 1
EndSplineSet
KernsSLIFO: 12 -105 0 0 13 -82 0 0 14 -105 0 0 26 -152 0 0 27 -140 0 0 33 -104 0 0 35 -53 0 0 39 -55 0 0 42 -108 0 0 47 -50 0 0 51 -32 0 0 54 2 0 0 55 7 0 0 57 10 0 0 65 -107 0 0 67 -96 0 0 69 -102 0 0 71 -94 0 0 73 -12 0 0 74 -12 0 0 79 -99 0 0 82 -98 0 0 83 -98 0 0 85 -98 0 0 86 -106 0 0 87 -103 0 0 89 -110 0 0 105 -126 0 0 125 -104 0 0 126 -104 0 0 127 -104 0 0 128 -104 0 0 129 -104 0 0 130 -104 0 0 131 -106 0 0 143 -50 0 0 144 -50 0 0 145 -50 0 0 146 -50 0 0 147 -50 0 0 149 -42 0 0 163 -104 0 0 181 -94 0 0 271 -44 0 0 1061 -123 0 0
EndChar
StartChar: U
Encoding: 85 85 53
Width: 722
Flags: W
HStem: -23 81<362 383> 709 20G<240 334 706 800>
VStem: 124.924 95.1499<155 173>
Fore
706 729 m 1
 800 729 l 1
 691 217 l 2
 660 71 531 -23 363 -23 c 0
 286 -23 220 -2 179 35 c 0
 147 64 124 114 124 155 c 0
 124 170 131 218 138 251 c 2
 240 729 l 1
 334 729 l 1
 225 217 l 1
 222 201 220 187 220 173 c 0
 220 104 285 58 381 58 c 0
 494 58 576 118 597 217 c 2
 706 729 l 1
EndSplineSet
KernsSLIFO: 12 -35 0 0 14 -32 0 0 33 -45 0 0 77 -17 0 0 78 -16 0 0 80 -8 0 0 82 -16 0 0 126 -45 0 0 127 -45 0 0 128 -45 0 0 129 -45 0 0 130 -45 0 0 131 -48 0 0
EndChar
StartChar: V
Encoding: 86 86 54
Width: 667
Flags: W
HStem: 0 21G<292 392> 709 20G<185 282 701 800>
Fore
392 0 m 1
 292 0 l 1
 185 729 l 1
 282 729 l 1
 365 112 l 1
 701 729 l 1
 800 729 l 1
 392 0 l 1
EndSplineSet
KernsSLIFO: 12 -94 0 0 13 -44 0 0 14 -94 0 0 26 -76 0 0 27 -75 0 0 33 -77 0 0 35 -50 0 0 39 -50 0 0 47 -46 0 0 51 -44 0 0 52 7 0 0 65 -71 0 0 69 -64 0 0 71 -57 0 0 73 -14 0 0 79 -61 0 0 82 -51 0 0 85 -52 0 0 89 -28 0 0 105 -88 0 0 125 -77 0 0 126 -77 0 0 127 -77 0 0 128 -77 0 0 129 -77 0 0 130 -77 0 0 131 -84 0 0 143 -46 0 0 144 -46 0 0 145 -46 0 0 146 -46 0 0 147 -46 0 0 149 -34 0 0 163 -66 0 0 181 -57 0 0 1061 -84 0 0
EndChar
StartChar: W
Encoding: 87 87 55
Width: 944
Flags: W
HStem: 0 21G<209 311 642 744> 709 20G<177 277 580 676 980 1084>
Fore
744 0 m 1
 642 0 l 1
 601 592 l 1
 311 0 l 1
 209 0 l 1
 177 729 l 1
 277 729 l 1
 292 137 l 1
 580 729 l 1
 676 729 l 1
 717 137 l 1
 980 729 l 1
 1084 729 l 1
 744 0 l 1
EndSplineSet
KernsSLIFO: 12 -62 0 0 13 -19 0 0 14 -62 0 0 26 -62 0 0 27 -62 0 0 33 -56 0 0 35 -30 0 0 39 -30 0 0 47 -26 0 0 51 -31 0 0 52 11 0 0 65 -46 0 0 69 -39 0 0 71 -32 0 0 73 -10 0 0 79 -36 0 0 82 -36 0 0 85 -36 0 0 89 -15 0 0 105 -63 0 0 125 -56 0 0 126 -56 0 0 127 -56 0 0 128 -56 0 0 129 -56 0 0 130 -56 0 0 131 -62 0 0 143 -26 0 0 144 -26 0 0 145 -26 0 0 146 -26 0 0 147 -26 0 0 149 -14 0 0 163 -42 0 0 181 -32 0 0 1061 -60 0 0
EndChar
StartChar: X
Encoding: 88 88 56
Width: 667
Flags: W
HStem: 0 21G<22 137 535 650> 709 20G<194 307 680 794>
Fore
471 374 m 1
 650 0 l 1
 535 0 l 1
 401 304 l 1
 137 0 l 1
 22 0 l 1
 361 374 l 1
 194 729 l 1
 307 729 l 1
 432 444 l 1
 680 729 l 1
 794 729 l 1
 471 374 l 1
EndSplineSet
KernsSLIFO: 13 -57 0 0 35 -53 0 0 47 -50 0 0 49 -51 0 0 65 -27 0 0 69 -51 0 0 79 -46 0 0 85 -36 0 0 89 -67 0 0 147 -50 0 0
EndChar
StartChar: Y
Encoding: 89 89 57
Width: 667
Flags: W
HStem: 0 21G<293 387> 709 20G<168 280 705 816>
Fore
448 286 m 1
 387 0 l 1
 293 0 l 1
 354 286 l 1
 168 729 l 1
 280 729 l 1
 416 372 l 1
 705 729 l 1
 816 729 l 1
 448 286 l 1
EndSplineSet
KernsSLIFO: 12 -117 0 0 13 -89 0 0 14 -117 0 0 26 -97 0 0 27 -97 0 0 33 -102 0 0 35 -68 0 0 39 -69 0 0 47 -64 0 0 51 -49 0 0 52 15 0 0 65 -100 0 0 69 -97 0 0 71 -89 0 0 73 -6 0 0 79 -93 0 0 80 -63 0 0 85 -73 0 0 86 -48 0 0 105 -128 0 0 125 -102 0 0 126 -102 0 0 127 -102 0 0 128 -102 0 0 129 -102 0 0 130 -102 0 0 131 -108 0 0 143 -64 0 0 144 -64 0 0 145 -64 0 0 146 -64 0 0 147 -64 0 0 149 -55 0 0 163 -95 0 0 181 -89 0 0 1061 -124 0 0
EndChar
StartChar: Z
Encoding: 90 90 58
Width: 611
Flags: W
HStem: 0 82<164 584> 647 82<212 600>
Fore
737 729 m 1
 719 645 l 1
 163 82 l 1
 601 82 l 1
 584 0 l 1
 28 0 l 1
 46 84 l 1
 601 647 l 1
 195 647 l 1
 212 729 l 1
 737 729 l 1
EndSplineSet
KernsSLIFO: 86 -44 0 0 89 -44 0 0
EndChar
StartChar: bracketleft
Encoding: 91 91 59
Width: 278
Flags: W
HStem: -213 72<119 205> 657 72<288 390>
Fore
405 729 m 1
 390 657 l 1
 288 657 l 1
 118 -141 l 1
 220 -141 l 1
 205 -213 l 1
 19 -213 l 1
 219 729 l 1
 405 729 l 1
EndSplineSet
EndChar
StartChar: backslash
Encoding: 92 92 60
Width: 278
Flags: W
HStem: 709 20G<147 202>
Fore
147 729 m 1
 202 729 l 1
 280 -20 l 1
 225 -20 l 1
 147 729 l 1
EndSplineSet
EndChar
StartChar: bracketright
Encoding: 93 93 61
Width: 278
Flags: W
HStem: -213 72<-8 95> 657 72<177 264>
Fore
-23 -213 m 1
 -8 -141 l 1
 95 -141 l 1
 265 657 l 1
 162 657 l 1
 177 729 l 1
 364 729 l 1
 164 -213 l 1
 -23 -213 l 1
EndSplineSet
EndChar
StartChar: asciicircum
Encoding: 94 94 62
Width: 469
Flags: W
Fore
349 709 m 1
 422 709 l 1
 496 329 l 1
 427 329 l 1
 369 628 l 1
 187 329 l 1
 115 329 l 1
 349 709 l 1
EndSplineSet
EndChar
StartChar: underscore
Encoding: 95 95 63
Width: 556
Flags: W
HStem: -176 50<-48 540>
Fore
551 -126 m 1
 540 -176 l 1
 -59 -176 l 1
 -48 -126 l 1
 551 -126 l 1
EndSplineSet
EndChar
StartChar: grave
Encoding: 96 96 64
Width: 333
Flags: W
HStem: 720 20G<179 285>
Fore
285 740 m 1
 357 592 l 1
 304 592 l 1
 179 740 l 1
 285 740 l 1
EndSplineSet
EndChar
StartChar: a
Encoding: 97 97 65
Width: 556
Flags: W
HStem: -22.5409 72.3163<209 242> 462 76.3338<369 385>
VStem: 65 88<104 121> 477.989 90.0112<398 426>
Fore
552 51 m 1
 539 -14 l 1
 533 -15 527 -16 525 -17 c 0
 500 -23 497 -23 486 -23 c 0
 438 -23 410 2 410 43 c 2
 410 47 l 1
 410 54 l 1
 369 18 354 8 322 -3 c 0
 286 -16 244 -23 209 -23 c 0
 119 -23 65 25 65 105 c 0
 65 163 95 216 147 249 c 0
 196 280 238 290 372 302 c 0
 445 309 464 320 473 361 c 1
 476 379 l 1
 477 387 478 394 478 398 c 0
 478 435 432 462 372 462 c 0
 329 462 287 447 265 425 c 0
 251 411 244 397 235 369 c 1
 151 369 l 1
 170 480 255 539 394 539 c 0
 499 539 568 494 568 426 c 0
 568 416 568 416 562 389 c 1
 498 88 l 1
 497 85 497 82 497 78 c 0
 497 58 509 49 535 49 c 0
 539 49 543 49 552 51 c 1
431 164 m 2
 451 258 l 1
 407 243 399 242 305 229 c 0
 256 222 226 214 202 199 c 0
 172 181 153 148 153 115 c 0
 153 73 185 49 242 49 c 0
 330 49 418 102 431 164 c 2
EndSplineSet
KernsSLIFO: 74 -10 0 0 86 -26 0 0 87 -16 0 0 89 -33 0 0 1051 -23 0 0
EndChar
StartChar: b
Encoding: 98 98 66
Width: 556
Flags: W
HStem: -23 77<292 310> 0 21G<54 129> 461.997 77.0033<383 411> 709 20G<209 293>
VStem: 500 88<323 345>
Fore
209 729 m 1
 293 729 l 1
 235 454 l 1
 266 487 279 498 296 509 c 0
 326 527 371 539 411 539 c 0
 512 539 588 455 588 343 c 0
 588 240 544 126 477 55 c 0
 432 8 361 -23 294 -23 c 0
 250 -23 209 -8 183 18 c 0
 168 33 159 47 146 78 c 1
 129 0 l 1
 54 0 l 1
 209 729 l 1
383 462 m 0
 323 462 270 427 231 361 c 0
 203 313 185 245 185 183 c 0
 185 104 228 54 296 54 c 0
 361 54 413 87 454 155 c 0
 483 203 500 267 500 324 c 0
 500 410 456 462 383 462 c 0
EndSplineSet
KernsSLIFO: 86 -21 0 0 87 -10 0 0 89 -28 0 0
EndChar
StartChar: c
Encoding: 99 99 67
Width: 500
Flags: W
HStem: -23 77<262 284> 462 77<364 383>
VStem: 76 88<169 185> 467.996 86.004<370 392>
Fore
551 348 m 1
 467 348 l 1
 468 357 468 364 468 370 c 0
 468 427 429 462 366 462 c 0
 305 462 255 432 218 373 c 0
 185 321 164 245 164 181 c 0
 164 103 208 54 277 54 c 0
 349 54 404 98 434 180 c 1
 518 180 l 1
 502 124 486 90 460 60 c 0
 414 6 345 -23 263 -23 c 0
 199 -23 154 -4 120 39 c 0
 92 74 76 123 76 170 c 0
 76 262 110 371 157 432 c 0
 210 501 291 539 381 539 c 0
 438 539 479 524 510 492 c 0
 536 465 554 425 554 392 c 0
 554 389 553 378 552 363 c 2
 551 348 l 1
EndSplineSet
KernsSLIFO: 72 -7 0 0 75 -1 0 0
EndChar
StartChar: d
Encoding: 100 100 68
Width: 556
Flags: W
HStem: -22.9975 76.9975<244 278> 0 21G<414 495> 462 77<345 372> 709 20G<566 650>
VStem: 73 88<169 201>
Fore
650 729 m 1
 495 0 l 1
 414 0 l 1
 430 76 l 1
 416 48 403 33 373 15 c 0
 333 -9 287 -23 244 -23 c 0
 140 -23 73 53 73 170 c 0
 73 381 197 539 363 539 c 0
 434 539 474 513 506 448 c 1
 566 729 l 1
 650 729 l 1
355 462 m 0
 291 462 243 430 205 361 c 0
 178 310 161 246 161 190 c 0
 161 104 204 54 278 54 c 0
 339 54 388 88 427 155 c 0
 457 207 473 268 473 327 c 0
 473 412 429 462 355 462 c 0
EndSplineSet
EndChar
StartChar: e
Encoding: 101 101 69
Width: 556
Flags: W
HStem: -23 77<281 298> 234 72<196 489> 462 77<372 391>
VStem: 84 88<169 190> 491.902 87.17<339 368>
Fore
563 234 m 1
 177 234 l 1
 173 219 172 209 172 188 c 0
 172 103 217 54 296 54 c 0
 363 54 416 90 452 159 c 1
 536 159 l 1
 505 51 402 -23 282 -23 c 0
 225 -23 181 -7 146 27 c 0
 107 64 84 119 84 173 c 0
 84 254 121 368 168 431 c 0
 218 498 302 539 389 539 c 0
 497 539 580 464 580 368 c 0
 580 341 575 299 566 251 c 2
 563 234 l 1
195 306 m 1
 489 306 l 1
 491 322 492 329 492 339 c 0
 492 414 447 462 376 462 c 0
 295 462 221 398 195 306 c 1
EndSplineSet
KernsSLIFO: 84 -16 0 0 86 -26 0 0 87 -16 0 0 88 -35 0 0 89 -33 0 0 1051 -20 0 0
EndChar
StartChar: f
Encoding: 102 102 70
Width: 278
Flags: W
HStem: 0 21G<89 173> 457 67<130 185 285 356> 660 72<355 377>
Fore
370 524 m 1
 356 457 l 1
 270 457 l 1
 173 0 l 1
 89 0 l 1
 186 457 l 1
 116 457 l 1
 130 524 l 1
 200 524 l 1
 219 613 l 2
 235 687 291 732 368 732 c 0
 384 732 395 731 413 727 c 1
 398 658 l 1
 384 660 378 660 371 660 c 0
 328 660 310 643 299 593 c 2
 284 524 l 1
 370 524 l 1
EndSplineSet
KernsSLIFO: 65 -20 0 0 69 -21 0 0 70 12 0 0 73 -10 0 0 74 -11 0 0 76 -12 0 0 79 -18 0 0 83 -8 0 0 84 16 0 0 158 -20 0 0 161 -20 0 0 162 -20 0 0 163 -15 0 0 166 -21 0 0 176 -18 0 0 179 -18 0 0 181 -16 0 0 272 -20 0 0 1051 -8 0 0
EndChar
StartChar: g
Encoding: 103 103 71
Width: 556
Flags: W
HStem: -218 72<207 228> -16.8153 72.6922<247 271> 462 77<352 371> 504 20G<525 601>
VStem: 33 85<-75 -73> 74 88<166 186>
Fore
525 524 m 1
 601 524 l 1
 508 85 l 2
 481 -42 454 -103 404 -151 c 0
 359 -194 288 -218 209 -218 c 0
 102 -218 32 -168 32 -91 c 0
 32 -87 32 -81 33 -73 c 1
 34 -60 l 1
 118 -60 l 1
 118 -68 l 1
 118 -74 l 2
 118 -119 158 -146 226 -146 c 0
 332 -146 386 -92 415 44 c 2
 419 63 l 1
 369 10 310 -17 247 -17 c 0
 145 -17 74 59 74 168 c 0
 74 260 112 373 165 439 c 0
 214 501 292 539 369 539 c 0
 403 539 435 528 461 509 c 0
 483 493 493 479 508 446 c 1
 525 524 l 1
363 462 m 0
 300 462 244 425 208 360 c 0
 179 308 162 244 162 184 c 0
 162 105 204 55 271 55 c 0
 331 55 390 93 423 154 c 0
 451 203 469 277 469 339 c 0
 469 414 427 462 363 462 c 0
EndSplineSet
KernsSLIFO: 65 -17 0 0 69 -11 0 0 76 -8 0 0 82 -9 0 0 161 -17 0 0 162 -17 0 0 163 -13 0 0 166 -11 0 0 176 -8 0 0 179 -8 0 0
EndChar
StartChar: h
Encoding: 104 104 72
Width: 556
Flags: W
HStem: 0 21G<70 154 406 490> 466.996 72.0044<400 439> 709 20G<225 309>
VStem: 484.996 89.0044<382 413>
Fore
225 729 m 1
 309 729 l 1
 252 459 l 1
 315 518 364 539 439 539 c 0
 523 539 574 492 574 413 c 0
 574 401 573 389 570 376 c 1
 490 0 l 1
 406 0 l 1
 479 343 l 1
 485 370 485 370 485 382 c 0
 485 433 451 467 400 467 c 0
 309 467 239 399 215 289 c 1
 154 0 l 1
 70 0 l 1
 225 729 l 1
EndSplineSet
KernsSLIFO: 89 -31 0 0 1051 -19 0 0
EndChar
StartChar: i
Encoding: 105 105 73
Width: 222
Flags: HW
HStem: 0 21G<66 150> 504 20G<177 261> 626 103<221 283>
Fore
305 729 m 1
 283 626 l 1
 199 626 l 1
 221 729 l 1
 305 729 l 1
EndSplineSet
Refer: 238 305 N 1 0 0 1 -28.5 0 2
KernsSLIFO: 52 -16 0 0 74 -10 0 0
Substitution: 0 65534 's001' dotlessi
EndChar
StartChar: j
Encoding: 106 106 74
Width: 222
Flags: HW
HStem: -217.878 71.8777<-33 -17> 504 20G<180 264> 626 103<224 286>
Fore
308 729 m 1
 286 626 l 1
 202 626 l 1
 224 729 l 1
 308 729 l 1
EndSplineSet
Refer: 1085 63166 S 1 0 0 1 0 0 2
Substitution: 0 65534 's001' dotlessj
EndChar
StartChar: k
Encoding: 107 107 75
Width: 500
Flags: W
HStem: 0 21G<58 142 406 502> 504 20G<476 584> 709 20G<213 297>
Fore
297 729 m 1
 207 306 l 1
 476 524 l 1
 584 524 l 1
 362 343 l 1
 502 0 l 1
 406 0 l 1
 292 291 l 1
 185 203 l 1
 142 0 l 1
 58 0 l 1
 213 729 l 1
 297 729 l 1
EndSplineSet
KernsSLIFO: 12 -13 0 0 13 -49 0 0 14 -13 0 0 65 -14 0 0 69 -33 0 0 71 -26 0 0 79 -30 0 0 83 -14 0 0 85 -22 0 0 158 -14 0 0 161 -14 0 0 162 -14 0 0 163 -12 0 0 166 -33 0 0 176 -30 0 0 179 -30 0 0 185 -16 0 0
EndChar
StartChar: l
Encoding: 108 108 76
Width: 222
Flags: HW
HStem: 0 21G<68 152> 709 20G<223 307>
Fore
307 729 m 1
 152 0 l 1
 68 0 l 1
 223 729 l 1
 307 729 l 1
EndSplineSet
KernsSLIFO: 86 -11 0 0 89 -15 0 0
EndChar
StartChar: m
Encoding: 109 109 77
Width: 833
Flags: W
HStem: 0 21G<71 155 377 461 683 767> 466.996 72.0039<376 423 688 725> 504 20G<182 258>
VStem: 763.996 88.0042<390 428>
Fore
182 524 m 1
 258 524 l 1
 245 459 l 1
 309 519 355 539 423 539 c 0
 489 539 528 512 544 456 c 1
 603 513 660 539 725 539 c 0
 771 539 798 529 820 505 c 0
 840 482 852 454 852 428 c 0
 852 417 849 384 846 373 c 1
 767 0 l 1
 683 0 l 1
 755 341 l 1
 764 375 764 375 764 390 c 0
 764 438 735 467 688 467 c 0
 616 467 547 407 531 329 c 1
 461 0 l 1
 377 0 l 1
 454 361 l 1
 457 374 458 387 458 398 c 0
 458 439 425 467 376 467 c 0
 309 467 241 405 225 329 c 2
 155 0 l 1
 71 0 l 1
 182 524 l 1
EndSplineSet
KernsSLIFO: 80 -3 0 0 86 -24 0 0 87 -14 0 0 89 -30 0 0
EndChar
StartChar: n
Encoding: 110 110 78
Width: 556
Flags: W
HStem: 0 21G<70 154 406 490> 466.995 72.0047<399 438> 504 20G<181 257>
VStem: 485.994 88.0059<386 414>
Fore
181 524 m 1
 257 524 l 1
 244 459 l 1
 296 512 362 539 438 539 c 0
 521 539 574 490 574 414 c 0
 574 401 573 389 570 376 c 1
 490 0 l 1
 406 0 l 1
 480 349 l 1
 484 365 486 380 486 386 c 0
 486 432 449 467 399 467 c 0
 309 467 239 399 215 289 c 1
 154 0 l 1
 70 0 l 1
 181 524 l 1
EndSplineSet
KernsSLIFO: 52 -103 0 0 80 -3 0 0 86 -24 0 0 87 -14 0 0 89 -31 0 0 1051 -19 0 0
EndChar
StartChar: o
Encoding: 111 111 79
Width: 556
Flags: W
HStem: -23 77<268 288> 462 77<368 386>
VStem: 80 88<164 186> 488 88<329 353>
Fore
384 539 m 0
 442 539 487 523 521 490 c 0
 556 456 576 405 576 352 c 0
 576 265 543 156 497 93 c 0
 441 16 365 -23 269 -23 c 0
 157 -23 80 53 80 164 c 0
 80 249 113 359 158 423 c 0
 209 497 291 539 384 539 c 0
371 462 m 0
 305 462 249 425 212 357 c 0
 185 307 168 241 168 184 c 0
 168 104 212 54 283 54 c 0
 352 54 406 90 444 159 c 0
 471 209 488 274 488 333 c 0
 488 414 445 462 371 462 c 0
EndSplineSet
KernsSLIFO: 52 -106 0 0 84 -17 0 0 86 -27 0 0 87 -16 0 0 88 -35 0 0 89 -34 0 0 1051 -23 0 0
EndChar
StartChar: p
Encoding: 112 112 80
Width: 556
Flags: W
HStem: -213 21G<7 91> -23 77<285 311> 461.538 76.4731<379 412> 504 20G<164 245>
VStem: 498 88<315 345>
Fore
7 -213 m 1
 164 524 l 1
 245 524 l 1
 227 440 l 1
 240 467 252 480 284 500 c 0
 324 526 368 539 412 539 c 0
 519 539 586 464 586 344 c 0
 586 246 552 142 498 76 c 0
 447 13 372 -23 294 -23 c 0
 223 -23 182 3 151 68 c 1
 91 -213 l 1
 7 -213 l 1
379 462 m 0
 317 462 267 428 230 361 c 0
 200 309 183 244 183 184 c 0
 183 104 229 54 302 54 c 0
 367 54 417 87 454 155 c 0
 481 205 498 270 498 324 c 0
 498 410 454 462 379 462 c 0
EndSplineSet
KernsSLIFO: 84 -10 0 0 89 -28 0 0
EndChar
StartChar: q
Encoding: 113 113 81
Width: 556
Flags: W
HStem: -213 21G<366 450> -22.4659 77.0681<248 276> 462 77<359 375> 504 20G<532 607>
VStem: 71 88<171 188>
Fore
450 -213 m 1
 366 -213 l 1
 425 62 l 1
 391 28 379 17 363 7 c 0
 334 -11 288 -23 248 -23 c 0
 147 -23 71 61 71 173 c 0
 71 276 115 390 182 461 c 0
 227 509 298 539 366 539 c 0
 439 539 490 503 513 438 c 1
 532 524 l 1
 607 524 l 1
 450 -213 l 1
364 462 m 0
 300 462 244 427 205 361 c 0
 178 316 159 244 159 186 c 0
 159 106 205 54 276 54 c 0
 336 54 388 89 428 155 c 0
 456 203 474 271 474 333 c 0
 474 412 431 462 364 462 c 0
EndSplineSet
KernsSLIFO: 67 -2 0 0 85 -5 0 0
EndChar
StartChar: r
Encoding: 114 114 82
Width: 333
Flags: W
HStem: 0 21G<69 153> 451.139 87.8615<385.028 404 404.016 417.905> 504 20G<180 256>
Fore
180 524 m 1
 256 524 l 1
 239 442 l 1
 301 513 346 539 404 539 c 0
 415 539 423 538 436 536 c 1
 418 451 l 1
 308 455 237 394 211 272 c 2
 153 0 l 1
 69 0 l 1
 180 524 l 1
EndSplineSet
KernsSLIFO: 12 -77 0 0 13 -54 0 0 14 -77 0 0 26 -31 0 0 27 -30 0 0 65 -16 0 0 67 -11 0 0 68 -8 0 0 69 -17 0 0 70 17 0 0 71 -8 0 0 72 -8 0 0 73 -6 0 0 74 -6 0 0 75 -2 0 0 76 -7 0 0 77 -9 0 0 78 -8 0 0 79 -14 0 0 81 -10 0 0 82 -8 0 0 83 -4 0 0 84 21 0 0 85 -7 0 0 86 18 0 0 87 21 0 0 88 9 0 0 89 15 0 0 157 -16 0 0 158 -16 0 0 159 -16 0 0 161 -16 0 0 162 -16 0 0 163 -11 0 0 164 -11 0 0 165 -17 0 0 166 -17 0 0 167 -17 0 0 175 -14 0 0 176 -14 0 0 177 -14 0 0 179 -14 0 0 181 -14 0 0 272 -16 0 0 1051 -6 0 0
EndChar
StartChar: s
Encoding: 115 115 83
Width: 500
Flags: W
HStem: -23 77<241 269> 462 77<333 358>
VStem: 61.498 93.0539<105 131> 123.892 87.6412<345 367> 404.81 87.2468<150 173> 430.377 89.1996<400 421>
Fore
514 378 m 1
 430 378 l 1
 431 386 431 393 431 400 c 0
 431 439 398 462 339 462 c 0
 295 462 265 452 241 429 c 0
 223 412 211 387 211 367 c 0
 211 341 240 321 296 307 c 2
 372 288 l 2
 460 266 493 234 493 173 c 0
 493 54 396 -23 247 -23 c 0
 131 -23 61 25 61 105 c 0
 61 121 62 133 67 156 c 1
 156 156 l 1
 155 146 154 137 154 131 c 0
 154 81 193 54 262 54 c 0
 305 54 348 67 373 88 c 0
 389 101 405 132 405 150 c 0
 405 159 399 174 392 183 c 0
 383 194 368 200 335 209 c 2
 261 228 l 2
 158 255 123 284 123 345 c 0
 123 392 147 444 183 479 c 0
 224 518 285 539 356 539 c 0
 453 539 520 491 520 421 c 0
 520 408 519 399 514 378 c 1
EndSplineSet
KernsSLIFO: 84 -15 0 0 1051 -24 0 0
EndChar
StartChar: t
Encoding: 116 116 84
Width: 278
Flags: W
HStem: -22.0467 71.8808<186 219> 457 67<122 178 278 352> 457 211<263 277>
VStem: 97.8996 85.2698<56 76>
Fore
366 524 m 1
 352 457 l 1
 263 457 l 1
 185 90 l 1
 184 84 183 79 183 76 c 0
 183 60 197 49 219 49 c 0
 231 49 236 50 267 57 c 1
 251 -16 l 1
 237 -20 206 -23 186 -23 c 0
 131 -23 97 7 97 56 c 0
 97 66 98 77 100 87 c 2
 179 457 l 1
 108 457 l 1
 122 524 l 1
 193 524 l 1
 224 668 l 1
 308 668 l 1
 277 524 l 1
 366 524 l 1
EndSplineSet
KernsSLIFO: 26 -37 0 0 27 -36 0 0 51 -17 0 0 65 -10 0 0 69 -22 0 0 72 -14 0 0 79 -19 0 0 158 -10 0 0 161 -10 0 0 162 -10 0 0 163 -7 0 0 166 -22 0 0 176 -19 0 0 179 -19 0 0 1051 -7 0 0
EndChar
StartChar: u
Encoding: 117 117 85
Width: 556
Flags: W
HStem: -22.9987 71.9987<226 268> 0 21G<407 483> 504 20G<177 261 510 594>
Fore
483 0 m 1
 407 0 l 1
 419 57 l 1
 361 1 304 -23 226 -23 c 0
 140 -23 88 18 88 86 c 0
 88 99 89 110 91 120 c 2
 177 524 l 1
 261 524 l 1
 182 153 l 2
 180 143 179 134 179 126 c 0
 179 79 214 49 268 49 c 0
 353 49 424 119 447 227 c 2
 510 524 l 1
 594 524 l 1
 483 0 l 1
EndSplineSet
KernsSLIFO: 1051 -14 0 0
EndChar
StartChar: v
Encoding: 118 118 86
Width: 500
Flags: W
HStem: 0 21G<196 287> 504 20G<122 214 507 598>
Fore
287 0 m 1
 196 0 l 1
 122 524 l 1
 214 524 l 1
 263 102 l 1
 507 524 l 1
 598 524 l 1
 287 0 l 1
EndSplineSet
KernsSLIFO: 12 -76 0 0 13 -19 0 0 14 -76 0 0 26 -32 0 0 27 -31 0 0 65 -30 0 0 67 -22 0 0 69 -29 0 0 71 -20 0 0 76 -8 0 0 79 -25 0 0 83 -17 0 0 157 -30 0 0 158 -30 0 0 159 -30 0 0 160 -30 0 0 161 -30 0 0 162 -30 0 0 163 -25 0 0 165 -29 0 0 166 -29 0 0 167 -29 0 0 175 -25 0 0 176 -25 0 0 179 -25 0 0 181 -25 0 0
EndChar
StartChar: w
Encoding: 119 119 87
Width: 722
Flags: W
HStem: 0 21G<158 254 461 556> 504 20G<118 209 417 522 729 820>
Fore
556 0 m 1
 461 0 l 1
 449 418 l 1
 254 0 l 1
 158 0 l 1
 118 524 l 1
 209 524 l 1
 228 116 l 1
 417 524 l 1
 522 524 l 1
 533 116 l 1
 729 524 l 1
 820 524 l 1
 556 0 l 1
EndSplineSet
KernsSLIFO: 12 -57 0 0 13 -8 0 0 14 -57 0 0 26 -32 0 0 27 -31 0 0 65 -26 0 0 67 -14 0 0 69 -20 0 0 71 -13 0 0 76 -8 0 0 79 -17 0 0 83 -14 0 0 157 -26 0 0 158 -26 0 0 159 -26 0 0 160 -26 0 0 161 -26 0 0 162 -26 0 0 163 -22 0 0 165 -20 0 0 166 -20 0 0 167 -20 0 0 175 -17 0 0 176 -17 0 0 179 -17 0 0 181 -14 0 0
EndChar
StartChar: x
Encoding: 120 120 88
Width: 500
Flags: W
HStem: 0 21G<17 115 379 473> 504 20G<138 231 486 583>
Fore
350 267 m 1
 473 0 l 1
 379 0 l 1
 289 200 l 1
 115 0 l 1
 17 0 l 1
 256 267 l 1
 138 524 l 1
 231 524 l 1
 319 332 l 1
 486 524 l 1
 583 524 l 1
 350 267 l 1
EndSplineSet
KernsSLIFO: 65 -30 0 0 67 -30 0 0 69 -36 0 0 79 -33 0 0 81 -28 0 0 166 -36 0 0
EndChar
StartChar: y
Encoding: 121 121 89
Width: 500
Flags: W
HStem: -218 81<56 72> 504 20G<132 222 501 590>
Fore
501 524 m 1
 590 524 l 1
 222 -110 l 2
 179 -184 128 -218 57 -218 c 0
 38 -218 26 -216 8 -208 c 1
 24 -133 l 1
 51 -136 58 -137 68 -137 c 0
 105 -137 121 -127 148 -85 c 2
 200 -4 l 1
 132 524 l 1
 222 524 l 1
 268 117 l 1
 501 524 l 1
EndSplineSet
KernsSLIFO: 12 -80 0 0 13 -24 0 0 14 -80 0 0 26 -40 0 0 27 -40 0 0 65 -36 0 0 67 -28 0 0 69 -35 0 0 71 -26 0 0 76 -14 0 0 79 -31 0 0 83 -23 0 0 157 -36 0 0 158 -36 0 0 159 -36 0 0 160 -36 0 0 161 -36 0 0 162 -36 0 0 163 -31 0 0 165 -35 0 0 166 -35 0 0 167 -35 0 0 175 -31 0 0 176 -31 0 0 179 -31 0 0 181 -30 0 0
EndChar
StartChar: z
Encoding: 122 122 90
Width: 500
Flags: W
HStem: 0 72<148 458> 452 72<165 443>
Fore
557 524 m 1
 539 449 l 1
 147 72 l 1
 473 72 l 1
 458 0 l 1
 31 0 l 1
 49 74 l 1
 444 452 l 1
 150 452 l 1
 165 524 l 1
 557 524 l 1
EndSplineSet
EndChar
StartChar: braceleft
Encoding: 123 123 91
Width: 334
Flags: W
HStem: -213 66<211 231> 664 65<383 417>
VStem: 98.6584 76.3416<-117 -113> 148 76<139 164>
Fore
431 729 m 1
 417 664 l 1
 401 664 l 2
 351 664 334 649 323 597 c 2
 284 416 l 1
 270 345 232 290 176 259 c 1
 213 235 224 213 224 162 c 0
 224 140 222 120 218 101 c 2
 179 -80 l 1
 176 -92 175 -103 175 -113 c 0
 175 -137 191 -147 229 -147 c 2
 245 -147 l 1
 231 -213 l 1
 184 -213 l 2
 130 -213 98 -184 98 -134 c 0
 98 -118 100 -98 104 -80 c 2
 139 86 l 1
 145 113 148 137 148 153 c 0
 148 193 128 218 91 224 c 1
 106 293 l 1
 164 303 194 342 212 431 c 1
 248 597 l 1
 258 641 268 663 290 687 c 0
 316 715 348 729 384 729 c 2
 431 729 l 1
EndSplineSet
EndChar
StartChar: bar
Encoding: 124 124 92
Width: 260
Flags: W
HStem: 709 20G<255 315>
Fore
255 729 m 1
 315 729 l 1
 114 -212 l 1
 54 -212 l 1
 255 729 l 1
EndSplineSet
EndChar
StartChar: braceright
Encoding: 125 125 93
Width: 334
Flags: W
HStem: -213 65<-2 33> 664 65<184 204>
VStem: 191 76<347 379> 240 76.0573<629 635>
Fore
-16 -213 m 1
 -2 -148 l 1
 14 -148 l 2
 64 -148 81 -133 92 -81 c 2
 131 100 l 1
 148 190 173 226 239 257 c 1
 206 286 191 319 191 362 c 0
 191 379 193 397 197 416 c 2
 236 597 l 1
 239 609 240 620 240 630 c 0
 240 654 224 664 186 664 c 2
 170 664 l 1
 184 729 l 1
 231 729 l 2
 282 729 317 696 317 647 c 0
 317 633 315 616 311 597 c 2
 276 431 l 1
 270 401 267 379 267 359 c 0
 267 322 287 299 324 293 c 1
 309 223 l 1
 251 214 217 169 203 85 c 1
 167 -81 l 2
 158 -123 147 -148 127 -171 c 0
 100 -203 76 -213 31 -213 c 2
 -16 -213 l 1
EndSplineSet
EndChar
StartChar: asciitilde
Encoding: 126 126 94
Width: 584
Flags: W
HStem: 268.005 67.9951<458 475> 372 65.0338<260 265>
Fore
542 411 m 1
 594 411 l 1
 587 370 578 347 560 323 c 0
 535 289 496 268 458 268 c 0
 434 268 406 278 384 294 c 2
 299 357 l 2
 288 365 270 372 260 372 c 0
 229 372 205 345 189 293 c 1
 137 293 l 1
 162 387 211 438 275 438 c 0
 293 438 311 432 326 422 c 2
 428 353 l 2
 446 341 460 336 475 336 c 0
 510 336 531 360 542 411 c 1
EndSplineSet
EndChar
StartChar: exclamdown
Encoding: 161 161 95
Width: 333
Flags: W
HStem: 421 103<233 295>
Fore
76 -205 m 1
 150 145 l 1
 217 356 l 1
 257 356 l 1
 234 145 l 1
 160 -205 l 1
 76 -205 l 1
211 421 m 1
 233 524 l 1
 317 524 l 1
 295 421 l 1
 211 421 l 1
EndSplineSet
EndChar
StartChar: cent
Encoding: 162 162 96
Width: 556
Flags: W
VStem: 96 88<168 200> 498.997 86.0035<371 392>
Fore
407 463 m 1
 320 53 l 1
 391 61 434 98 465 180 c 1
 549 180 l 1
 514 49 438 -15 304 -23 c 1
 283 -120 l 1
 243 -120 l 1
 264 -22 l 1
 161 -11 96 64 96 171 c 0
 96 286 142 402 214 467 c 0
 262 510 312 531 383 538 c 1
 402 628 l 1
 442 628 l 1
 423 538 l 1
 448 538 465 535 485 528 c 0
 542 507 585 448 585 392 c 0
 585 389 584 378 583 363 c 2
 582 348 l 1
 498 348 l 1
 499 357 499 365 499 371 c 0
 499 422 472 452 419 461 c 2
 407 463 l 1
281 56 m 1
 366 460 l 1
 328 453 302 440 276 415 c 0
 221 362 184 269 184 183 c 0
 184 113 221 64 281 56 c 1
EndSplineSet
EndChar
StartChar: sterling
Encoding: 163 163 97
Width: 556
Flags: W
HStem: -22.6715 93.061<401 424> 321 55<107 189 299 435> 652 77<423 443>
VStem: 160 96<473 498> 218 83<270 285> 540 87.0427<555 569>
Fore
447 376 m 1
 435 321 l 1
 298 321 l 1
 299 310 l 1
 300 297 301 287 301 283 c 0
 301 264 294 234 283 210 c 0
 261 161 242 140 169 86 c 0
 163 81 153 74 136 61 c 1
 192 89 230 100 269 100 c 0
 291 100 299 99 322 91 c 0
 367 76 397 70 424 70 c 0
 455 70 476 77 518 101 c 1
 543 31 l 1
 500 -4 449 -23 401 -23 c 0
 365 -23 329 -14 262 12 c 0
 242 19 222 23 199 23 c 0
 162 23 127 12 81 -14 c 1
 44 52 l 1
 161 129 218 200 218 271 c 0
 218 286 217 292 208 321 c 1
 95 321 l 1
 107 376 l 1
 190 376 l 1
 188 382 185 390 181 398 c 0
 164 438 160 455 160 480 c 0
 160 610 295 729 442 729 c 0
 553 729 628 669 628 579 c 0
 628 557 626 539 619 497 c 1
 531 497 l 1
 538 523 540 536 540 554 c 0
 540 614 495 652 424 652 c 0
 329 652 256 582 256 492 c 0
 256 466 256 466 278 404 c 0
 279 403 283 389 287 376 c 1
 447 376 l 1
EndSplineSet
EndChar
StartChar: currency
Encoding: 164 164 98
Width: 556
Flags: W
HStem: 160.01 76.9904<311 327> 448 76.158<368 382>
VStem: 156.863 78.1369<322 323> 458 78.0389<364 373>
Fore
526 191 m 1
 456 137 l 1
 414 190 l 1
 386 171 348 160 309 160 c 128
 270 160 238 169 219 185 c 1
 154 133 l 1
 110 191 l 1
 170 240 l 1
 161 257 156 281 156 305 c 0
 156 328 161 354 171 378 c 0
 180 400 180 400 211 441 c 2
 214 445 l 1
 172 500 l 1
 238 556 l 1
 283 498 l 1
 310 514 351 525 385 525 c 0
 422 525 458 514 478 496 c 1
 546 552 l 1
 593 494 l 1
 524 438 l 1
 533 422 537 406 537 381 c 0
 537 334 513 274 483 245 c 1
 526 191 l 1
369 448 m 0
 300 448 235 388 235 323 c 0
 235 274 274 237 325 237 c 0
 394 237 458 299 458 364 c 0
 458 411 419 448 369 448 c 0
EndSplineSet
EndChar
StartChar: yen
Encoding: 165 165 99
Width: 556
Flags: W
HStem: 0 21G<237 325> 175 51<111 273 374 535> 303 51<138 291 420 562>
Fore
573 354 m 1
 562 303 l 1
 390 303 l 1
 373 226 l 1
 545 226 l 1
 535 175 l 1
 362 175 l 1
 325 0 l 1
 237 0 l 1
 274 175 l 1
 100 175 l 1
 111 226 l 1
 285 226 l 1
 302 303 l 1
 127 303 l 1
 138 354 l 1
 292 354 l 1
 162 709 l 1
 247 709 l 1
 363 387 l 1
 611 709 l 1
 696 709 l 1
 419 354 l 1
 573 354 l 1
EndSplineSet
EndChar
StartChar: brokenbar
Encoding: 166 166 100
Width: 260
Flags: W
HStem: 709 20G<255 315>
Fore
255 729 m 1
 315 729 l 1
 229 328 l 1
 169 328 l 1
 255 729 l 1
140 189 m 1
 200 189 l 1
 114 -212 l 1
 54 -212 l 1
 140 189 l 1
EndSplineSet
EndChar
StartChar: section
Encoding: 167 167 101
Width: 556
Flags: W
HStem: -213 77<223 246> 524 21G<491 575> 652 76.1329<417 431>
VStem: 63.0894 87.9106<-69 -57> 104.004 87.9961<274 309> 221 92<541 555> 350 91.0283<-34 -16> 470.992 88.0078<231 267> 501 87.1085<575 587>
Fore
575 524 m 1
 491 524 l 1
 498 544 501 559 501 575 c 0
 501 622 468 652 418 652 c 0
 362 652 313 605 313 553 c 0
 313 530 321 518 355 491 c 2
 482 390 l 2
 516 363 525 354 535 342 c 0
 551 320 559 295 559 267 c 0
 559 223 537 166 507 131 c 0
 484 104 452 84 412 71 c 1
 434 41 442 18 442 -16 c 0
 442 -57 422 -104 387 -142 c 1
 348 -187 289 -213 225 -213 c 0
 127 -213 63 -158 63 -75 c 0
 63 -54 66 -41 74 -14 c 1
 159 -14 l 1
 153 -35 151 -46 151 -59 c 0
 151 -104 188 -136 238 -136 c 0
 299 -136 350 -89 350 -34 c 0
 350 -5 340 14 312 38 c 2
 167 162 l 2
 121 201 104 232 104 274 c 0
 104 315 124 365 152 397 c 0
 175 423 187 431 247 463 c 1
 229 486 221 510 221 540 c 0
 221 638 324 729 436 729 c 0
 526 729 589 673 589 594 c 0
 589 573 588 569 577 533 c 0
 577 532 576 529 575 524 c 1
236 229 m 2
 374 108 l 1
 438 141 471 183 471 231 c 0
 471 261 450 296 418 322 c 2
 287 428 l 1
 217 388 192 357 192 309 c 0
 192 277 202 258 236 229 c 2
EndSplineSet
EndChar
StartChar: dieresis
Encoding: 168 168 102
Width: 333
Flags: W
HStem: 612 103<181 263 342 424>
Fore
285 715 m 1
 263 612 l 1
 159 612 l 1
 181 715 l 1
 285 715 l 1
446 715 m 1
 424 612 l 1
 320 612 l 1
 342 715 l 1
 446 715 l 1
EndSplineSet
EndChar
StartChar: copyright
Encoding: 169 169 103
Width: 737
Flags: W
HStem: -22 62<359 377> 126.009 61.9911<402 418> 530 62<487 504> 680 62<502 535>
VStem: 55 70<280 303> 249 72<283 314> 766 70<426 442>
Fore
637 437 m 1
 566 437 l 1
 563 503 540 530 488 530 c 0
 440 530 398 504 366 456 c 0
 338 413 321 354 321 301 c 0
 321 234 359 188 416 188 c 0
 471 188 517 231 547 312 c 1
 618 312 l 1
 594 251 578 224 552 196 c 0
 509 149 459 126 400 126 c 0
 306 126 249 189 249 292 c 0
 249 367 278 448 326 506 c 0
 374 562 435 592 503 592 c 0
 593 592 635 543 637 437 c 1
530 742 m 0
 707 742 836 614 836 440 c 0
 836 200 607 -22 361 -22 c 0
 184 -22 55 106 55 281 c 0
 55 520 284 742 530 742 c 0
516 680 m 0
 314 680 125 493 125 293 c 0
 125 147 231 40 375 40 c 0
 577 40 766 227 766 428 c 0
 766 573 660 680 516 680 c 0
EndSplineSet
EndChar
StartChar: ordfeminine
Encoding: 170 170 104
Width: 370
Flags: W
HStem: 303 51<118 395> 399.012 49.9881<233 249> 403 44<414 417> 691 51<313 336>
VStem: 136 60<478 488> 381.926 58.0743<659 660>
Fore
406 354 m 1
 395 303 l 1
 107 303 l 1
 118 354 l 1
 406 354 l 1
432 449 m 1
 423 405 l 1
 418 404 414 403 413 403 c 0
 396 399 394 399 387 399 c 0
 359 399 343 414 340 442 c 1
 310 414 272 399 231 399 c 0
 170 399 136 428 136 479 c 0
 136 516 154 548 186 568 c 0
 215 586 241 592 320 600 c 0
 364 605 371 608 378 633 c 2
 380 641 l 2
 381 646 382 651 382 656 c 0
 382 664 381 667 371 679 c 0
 365 685 342 691 320 691 c 0
 296 691 270 682 259 669 c 0
 249 658 245 650 240 634 c 1
 184 634 l 1
 196 677 202 690 218 705 c 0
 243 729 285 742 337 742 c 0
 401 742 441 717 441 676 c 0
 441 669 441 661 440 658 c 1
 399 468 l 1
 398 465 398 463 398 461 c 0
 398 454 406 447 415 447 c 0
 417 447 420 447 424 448 c 2
 432 449 l 1
353 515 m 2
 363 566 l 1
 346 560 336 558 312 555 c 0
 255 547 242 544 224 533 c 0
 208 523 196 503 196 486 c 0
 196 461 214 449 249 449 c 0
 294 449 347 483 353 515 c 2
EndSplineSet
EndChar
StartChar: guillemotleft
Encoding: 171 171 105
Width: 556
Flags: W
Fore
147 227 m 1
 166 316 l 1
 343 438 l 1
 325 355 l 1
 204 271 l 1
 290 188 l 1
 272 106 l 1
 147 227 l 1
352 227 m 1
 371 316 l 1
 548 438 l 1
 530 355 l 1
 409 271 l 1
 495 188 l 1
 477 106 l 1
 352 227 l 1
EndSplineSet
EndChar
StartChar: logicalnot
Encoding: 172 172 106
Width: 584
Flags: W
HStem: 305 72<114 533>
Fore
114 377 m 1
 619 377 l 1
 558 86 l 1
 488 86 l 1
 534 305 l 1
 99 305 l 1
 114 377 l 1
EndSplineSet
EndChar
StartChar: macron
Encoding: 175 175 108
Width: 333
Flags: W
HStem: 627 69<175 435>
Fore
450 696 m 1
 435 627 l 1
 160 627 l 1
 175 696 l 1
 450 696 l 1
EndSplineSet
EndChar
StartChar: degree
Encoding: 176 176 109
Width: 606
Flags: W
HStem: 383 43<435 451> 643 43<435 451>
VStem: 291 45<527 543> 549 45<527 543>
Fore
442 686 m 0
 526 686 594 618 594 535 c 0
 594 450 526 383 441 383 c 0
 359 383 291 452 291 535 c 128
 291 618 359 686 442 686 c 0
443 643 m 0
 384 643 336 594 336 535 c 128
 336 476 384 426 441 426 c 0
 501 426 549 474 549 535 c 0
 549 594 501 643 443 643 c 0
EndSplineSet
EndChar
StartChar: plusminus
Encoding: 177 177 110
Width: 584
Flags: W
HStem: 0 72<65 534> 357 72<141 332 419 610> 357 276<403 418>
Fore
625 429 m 1
 610 357 l 1
 403 357 l 1
 359 149 l 1
 288 149 l 1
 333 357 l 1
 126 357 l 1
 141 429 l 1
 348 429 l 1
 391 633 l 1
 462 633 l 1
 418 429 l 1
 625 429 l 1
549 72 m 1
 534 0 l 1
 50 0 l 1
 65 72 l 1
 549 72 l 1
EndSplineSet
EndChar
StartChar: twosuperior
Encoding: 178 178 111
Width: 390
Flags: W
HStem: 284 60<182 400> 654 55<324 347>
VStem: 403 65<588 605>
Fore
412 344 m 1
 400 284 l 1
 100 284 l 1
 128 385 155 416 265 472 c 2
 328 503 l 2
 375 525 403 559 403 594 c 0
 403 630 376 654 335 654 c 0
 279 654 247 624 230 555 c 1
 167 555 l 1
 191 662 246 709 345 709 c 0
 420 709 468 668 468 603 c 0
 468 543 427 493 344 452 c 2
 276 419 l 2
 222 392 200 375 181 344 c 1
 412 344 l 1
EndSplineSet
EndChar
StartChar: threesuperior
Encoding: 179 179 112
Width: 390
Flags: W
HStem: 270 55<246 268> 475 52<267 299> 654 55<327 340>
VStem: 123 65<372 383> 365 65<416 434> 390 64.5529<605 608>
Fore
256 474 m 1
 267 527 l 1
 279 527 l 1
 283 527 l 2
 356 527 390 552 390 606 c 0
 390 636 366 654 328 654 c 0
 296 654 269 642 252 619 c 0
 243 608 238 596 231 565 c 1
 168 565 l 1
 181 613 191 636 211 657 c 0
 242 691 286 709 338 709 c 0
 409 709 455 673 455 618 c 0
 455 567 436 535 386 504 c 1
 417 489 430 467 430 434 c 0
 430 340 351 270 247 270 c 0
 167 270 123 307 123 373 c 0
 123 383 124 392 126 414 c 1
 190 414 l 1
 189 402 l 1
 188 393 188 387 188 381 c 0
 188 347 215 325 256 325 c 0
 321 325 365 365 365 425 c 0
 365 457 336 475 287 475 c 0
 280 475 272 475 256 474 c 1
EndSplineSet
EndChar
StartChar: acute
Encoding: 180 180 113
Width: 333
Flags: W
HStem: 720 20G<346 458>
Fore
346 740 m 1
 458 740 l 1
 278 592 l 1
 218 592 l 1
 346 740 l 1
EndSplineSet
EndChar
StartChar: mu
Encoding: 181 181 114
Width: 556
Flags: W
HStem: -22.9981 72.9981<231 266> 504 20G<176 260 509 593>
Fore
554 49 m 1
 540 -14 l 1
 534 -15 529 -16 527 -17 c 0
 505 -22 499 -23 486 -23 c 0
 432 -23 411 -5 411 41 c 0
 411 45 412 52 414 60 c 1
 360 4 300 -23 231 -23 c 0
 194 -23 171 -15 150 6 c 1
 102 -220 l 1
 18 -220 l 1
 176 524 l 1
 260 524 l 1
 183 160 l 2
 181 150 180 141 180 130 c 0
 180 80 213 50 266 50 c 0
 352 50 423 120 446 227 c 1
 509 524 l 1
 593 524 l 1
 500 88 l 1
 499 85 499 81 499 77 c 0
 499 57 512 46 537 46 c 0
 543 46 546 47 554 49 c 1
EndSplineSet
EndChar
StartChar: paragraph
Encoding: 182 182 115
Width: 537
Flags: W
HStem: 665 64<460 542 607 663>
Fore
677 729 m 1
 663 665 l 1
 607 665 l 1
 428 -178 l 1
 364 -178 l 1
 543 665 l 1
 460 665 l 1
 281 -178 l 1
 217 -178 l 1
 310 259 l 1
 207 262 145 329 145 436 c 0
 145 588 281 729 427 729 c 2
 677 729 l 1
EndSplineSet
EndChar
StartChar: periodcentered
Encoding: 183 183 116
Width: 278
Flags: W
HStem: 192 103<188 271>
Fore
293 295 m 1
 271 192 l 1
 166 192 l 1
 188 295 l 1
 293 295 l 1
EndSplineSet
EndChar
StartChar: cedilla
Encoding: 184 184 117
Width: 333
Flags: W
HStem: -214 43<113 136> -20 20G<165 206>
VStem: 186 77.1123<-118 -114>
Fore
165 0 m 1
 206 0 l 1
 176 -56 l 1
 189 -54 193 -54 197 -54 c 0
 234 -54 264 -77 264 -105 c 0
 264 -168 203 -214 119 -214 c 0
 81 -214 52 -206 1 -180 c 1
 29 -142 l 1
 70 -163 95 -171 123 -171 c 0
 160 -171 186 -148 186 -116 c 0
 186 -104 172 -94 155 -94 c 0
 151 -94 151 -94 135 -97 c 2
 128 -98 l 1
 115 -92 l 1
 165 0 l 1
EndSplineSet
EndChar
StartChar: onesuperior
Encoding: 185 185 118
Width: 390
Flags: W
Fore
302 580 m 1
 205 580 l 1
 215 626 l 1
 306 638 316 644 349 709 c 1
 393 709 l 1
 303 284 l 1
 239 284 l 1
 302 580 l 1
EndSplineSet
EndChar
StartChar: ordmasculine
Encoding: 186 186 119
Width: 365
Flags: W
HStem: 303 51<125 377> 399 52<263 278> 690 52<322 338>
VStem: 149 60<510 527> 392 60<607 629>
Fore
388 354 m 1
 377 303 l 1
 114 303 l 1
 125 354 l 1
 388 354 l 1
336 742 m 0
 369 742 399 732 417 716 c 0
 437 697 452 660 452 627 c 0
 452 576 431 508 404 470 c 0
 370 424 321 399 262 399 c 0
 195 399 149 444 149 509 c 0
 149 565 169 635 197 672 c 0
 229 716 281 742 336 742 c 0
327 690 m 0
 261 690 209 618 209 525 c 0
 209 478 234 451 276 451 c 0
 341 451 392 524 392 617 c 0
 392 662 367 690 327 690 c 0
EndSplineSet
EndChar
StartChar: guillemotright
Encoding: 187 187 120
Width: 556
Flags: W
Fore
319 317 m 1
 300 228 l 1
 121 106 l 1
 139 189 l 1
 262 273 l 1
 174 356 l 1
 192 438 l 1
 319 317 l 1
518 317 m 1
 499 228 l 1
 320 106 l 1
 338 189 l 1
 461 273 l 1
 373 356 l 1
 391 438 l 1
 518 317 l 1
EndSplineSet
KernsSLIFO: 33 -58 3 0 52 -132 3 0 54 -96 3 0 55 -68 3 0 57 -137 3 0 126 -58 3 0 129 -58 3 0 130 -58 3 0 131 -62 3 0
EndChar
StartChar: onequarter
Encoding: 188 188 121
Width: 947
Flags: W
HStem: 0 21G<777 840> 100 55<689 797 874 926>
Fore
302 580 m 1
 205 580 l 1
 215 626 l 1
 306 638 316 644 349 709 c 1
 393 709 l 1
 303 284 l 1
 239 284 l 1
 302 580 l 1
818 709 m 1
 876 709 l 1
 270 -20 l 1
 212 -20 l 1
 818 709 l 1
798 100 m 1
 614 100 l 1
 627 160 l 1
 883 425 l 1
 930 425 l 1
 873 155 l 1
 938 155 l 1
 926 100 l 1
 861 100 l 1
 840 0 l 1
 777 0 l 1
 798 100 l 1
810 155 m 1
 844 316 l 1
 688 155 l 1
 810 155 l 1
EndSplineSet
EndChar
StartChar: onehalf
Encoding: 189 189 122
Width: 947
Flags: W
HStem: 0 60<679 897> 370 55<824 844>
VStem: 900 65<309 321>
Fore
302 580 m 1
 205 580 l 1
 215 626 l 1
 306 638 316 644 349 709 c 1
 393 709 l 1
 303 284 l 1
 239 284 l 1
 302 580 l 1
808 709 m 1
 866 709 l 1
 260 -20 l 1
 202 -20 l 1
 808 709 l 1
909 60 m 1
 897 0 l 1
 597 0 l 1
 625 101 652 132 762 188 c 2
 825 219 l 2
 872 241 900 275 900 310 c 0
 900 346 873 370 832 370 c 0
 776 370 744 340 727 271 c 1
 664 271 l 1
 688 378 743 425 842 425 c 0
 917 425 965 384 965 319 c 0
 965 259 924 209 841 168 c 2
 773 135 l 2
 719 108 697 91 678 60 c 1
 909 60 l 1
EndSplineSet
EndChar
StartChar: threequarters
Encoding: 190 190 123
Width: 947
Flags: W
HStem: 0 21G<777 840> 100 55<689 797 874 926> 270 55<246 268> 475 52<267 299> 654 55<327 340>
VStem: 123 65<372 383> 365 65<416 434> 390 64.4781<604 608>
Fore
256 474 m 1
 267 527 l 1
 279 527 l 1
 283 527 l 2
 356 527 390 552 390 606 c 0
 390 636 366 654 328 654 c 0
 296 654 269 642 252 619 c 0
 243 608 238 596 231 565 c 1
 168 565 l 1
 181 613 191 636 211 657 c 0
 242 691 286 709 338 709 c 0
 409 709 455 673 455 618 c 0
 455 567 436 535 386 504 c 1
 417 489 430 467 430 434 c 0
 430 340 351 270 247 270 c 0
 167 270 123 307 123 373 c 0
 123 383 124 392 126 414 c 1
 190 414 l 1
 189 402 l 1
 188 393 188 387 188 381 c 0
 188 347 215 325 256 325 c 0
 321 325 365 365 365 425 c 0
 365 457 336 475 287 475 c 0
 280 475 272 475 256 474 c 1
838 709 m 1
 896 709 l 1
 290 -20 l 1
 232 -20 l 1
 838 709 l 1
798 100 m 1
 614 100 l 1
 627 160 l 1
 883 425 l 1
 930 425 l 1
 873 155 l 1
 938 155 l 1
 926 100 l 1
 861 100 l 1
 840 0 l 1
 777 0 l 1
 798 100 l 1
810 155 m 1
 844 316 l 1
 688 155 l 1
 810 155 l 1
EndSplineSet
EndChar
StartChar: questiondown
Encoding: 191 191 124
Width: 611
Flags: W
HStem: -216.813 76.8133<278 290> 421 103<386 454>
VStem: 86.6492 94.3508<-72 -53>
Fore
344 325 m 1
 434 325 l 1
 422 270 l 1
 408 209 390 187 285 107 c 1
 213 50 181 1 181 -53 c 0
 181 -106 223 -140 288 -140 c 0
 376 -140 424 -92 446 17 c 1
 531 17 l 1
 500 -138 410 -217 266 -217 c 0
 199 -217 154 -200 121 -162 c 0
 99 -137 86 -104 86 -72 c 0
 86 -26 105 26 137 68 c 0
 157 94 182 117 230 154 c 0
 304 209 320 228 334 278 c 1
 344 325 l 1
364 421 m 1
 386 524 l 1
 476 524 l 1
 454 421 l 1
 364 421 l 1
EndSplineSet
EndChar
StartChar: Agrave
Encoding: 192 192 125
Width: 667
Flags: W
HStem: 0 21G<17 116 551 653> 219 78<284 513> 709 20G<432 552>
Fore
524 219 m 1
 239 219 l 1
 116 0 l 1
 17 0 l 1
 432 729 l 1
 552 729 l 1
 653 0 l 1
 551 0 l 1
 524 219 l 1
514 297 m 1
 474 630 l 1
 283 297 l 1
 514 297 l 1
483 939 m 1
 555 791 l 1
 502 791 l 1
 377 939 l 1
 483 939 l 1
EndSplineSet
KernsSLIFO: 12 -4 0 0 14 -2 0 0 35 -41 0 0 39 -41 0 0 47 -37 0 0 49 -38 0 0 52 -103 0 0 53 -42 0 0 54 -81 0 0 55 -57 0 0 57 -104 0 0
EndChar
StartChar: Aacute
Encoding: 193 193 126
Width: 667
Flags: W
HStem: 0 21G<17 116 551 653> 219 78<284 513> 709 20G<432 552>
Fore
524 219 m 1
 239 219 l 1
 116 0 l 1
 17 0 l 1
 432 729 l 1
 552 729 l 1
 653 0 l 1
 551 0 l 1
 524 219 l 1
514 297 m 1
 474 630 l 1
 283 297 l 1
 514 297 l 1
555 939 m 1
 667 939 l 1
 487 791 l 1
 427 791 l 1
 555 939 l 1
EndSplineSet
KernsSLIFO: 12 -4 0 0 13 -9 0 0 14 -3 0 0 35 -42 0 0 39 -42 0 0 47 -38 0 0 49 -39 0 0 52 -103 0 0 53 -43 0 0 54 -81 0 0 55 -57 0 0 57 -104 0 0 65 -16 0 0 66 -6 0 0 67 -17 0 0 68 -15 0 0 69 -23 0 0 71 -17 0 0 79 -20 0 0 81 -16 0 0 84 -23 0 0 85 -20 0 0 86 -40 0 0 87 -29 0 0 89 -44 0 0 105 -51 0 0 1051 -68 0 0 1061 -48 0 0
EndChar
StartChar: Acircumflex
Encoding: 194 194 127
Width: 667
Flags: W
HStem: 0 21G<17 116 551 653> 219 78<284 513> 709 20G<432 552>
Fore
524 219 m 1
 239 219 l 1
 116 0 l 1
 17 0 l 1
 432 729 l 1
 552 729 l 1
 653 0 l 1
 551 0 l 1
 524 219 l 1
514 297 m 1
 474 630 l 1
 283 297 l 1
 514 297 l 1
486 940 m 1
 581 940 l 1
 645 790 l 1
 582 790 l 1
 526 889 l 1
 422 790 l 1
 358 790 l 1
 486 940 l 1
EndSplineSet
KernsSLIFO: 12 -4 0 0 14 -2 0 0 35 -41 0 0 39 -41 0 0 47 -37 0 0 49 -38 0 0 52 -103 0 0 53 -42 0 0 54 -81 0 0 55 -57 0 0 57 -104 0 0
EndChar
StartChar: Atilde
Encoding: 195 195 128
Width: 667
Flags: W
HStem: 0 21G<17 116 551 653> 219 78<284 513> 709 20G<432 552> 811 70<571 581> 843 70<432 449>
Fore
524 219 m 1
 239 219 l 1
 116 0 l 1
 17 0 l 1
 432 729 l 1
 552 729 l 1
 653 0 l 1
 551 0 l 1
 524 219 l 1
514 297 m 1
 474 630 l 1
 283 297 l 1
 514 297 l 1
627 918 m 1
 680 918 l 1
 659 853 617 811 572 811 c 0
 550 811 533 815 469 837 c 0
 458 841 448 843 442 843 c 0
 423 843 411 837 399 819 c 0
 397 817 395 814 392 810 c 1
 339 810 l 1
 351 845 359 862 371 877 c 0
 387 898 418 913 443 913 c 0
 460 913 477 909 516 896 c 0
 542 887 569 881 579 881 c 0
 599 881 609 889 627 918 c 1
EndSplineSet
KernsSLIFO: 12 -4 0 0 14 -4 0 0 35 -43 0 0 39 -42 0 0 47 -39 0 0 49 -40 0 0 52 -103 0 0 53 -44 0 0 54 -81 0 0 55 -57 0 0 57 -104 0 0
EndChar
StartChar: Adieresis
Encoding: 196 196 129
Width: 667
Flags: W
HStem: 0 21G<17 116 551 653> 219 78<284 513> 709 20G<432 552> 811 103<397 479 558 640>
Fore
524 219 m 1
 239 219 l 1
 116 0 l 1
 17 0 l 1
 432 729 l 1
 552 729 l 1
 653 0 l 1
 551 0 l 1
 524 219 l 1
514 297 m 1
 474 630 l 1
 283 297 l 1
 514 297 l 1
501 914 m 1
 479 811 l 1
 375 811 l 1
 397 914 l 1
 501 914 l 1
662 914 m 1
 640 811 l 1
 536 811 l 1
 558 914 l 1
 662 914 l 1
EndSplineSet
KernsSLIFO: 12 -4 0 0 13 -8 0 0 14 -3 0 0 35 -42 0 0 39 -41 0 0 47 -38 0 0 49 -39 0 0 52 -103 0 0 53 -43 0 0 54 -81 0 0 55 -57 0 0 57 -104 0 0 65 -16 0 0 66 -5 0 0 67 -17 0 0 68 -14 0 0 71 -17 0 0 79 -19 0 0 81 -15 0 0 84 -22 0 0 85 -19 0 0 86 -40 0 0 87 -29 0 0 89 -44 0 0 105 -51 0 0 1051 -68 0 0 1054 -60 0 0 1061 -48 0 0
EndChar
StartChar: Aring
Encoding: 197 197 130
Width: 667
Flags: W
HStem: 0 21G<17 116 551 653> 219 78<284 513> 709 20G<432 552> 778 44<498 508> 909 44<523 534>
VStem: 425 46<848 859> 560 44.0744<873 880>
Fore
524 219 m 1
 239 219 l 1
 116 0 l 1
 17 0 l 1
 432 729 l 1
 552 729 l 1
 653 0 l 1
 551 0 l 1
 524 219 l 1
514 297 m 1
 474 630 l 1
 283 297 l 1
 514 297 l 1
533 953 m 0
 574 953 605 924 605 886 c 0
 605 830 553 778 496 778 c 0
 456 778 425 809 425 848 c 0
 425 901 479 953 533 953 c 0
526 909 m 0
 498 909 471 883 471 857 c 0
 471 836 486 822 506 822 c 0
 533 822 560 848 560 874 c 0
 560 894 545 909 526 909 c 0
EndSplineSet
KernsSLIFO: 12 -4 0 0 13 -8 0 0 14 -2 0 0 35 -41 0 0 39 -41 0 0 47 -37 0 0 49 -38 0 0 52 -103 0 0 53 -42 0 0 54 -81 0 0 55 -57 0 0 57 -104 0 0 65 -16 0 0 66 -5 0 0 67 -16 0 0 68 -14 0 0 69 -22 0 0 71 -17 0 0 79 -19 0 0 81 -15 0 0 84 -22 0 0 85 -18 0 0 86 -40 0 0 87 -29 0 0 89 -44 0 0 105 -51 0 0 1051 -68 0 0 1054 -60 0 0 1061 -47 0 0
EndChar
StartChar: AE
Encoding: 198 198 131
Width: 1000
Flags: W
HStem: 0 82<580 950> 214 81<294 512> 332 82<651 983> 647 82<505 604 699 1070>
Fore
513 214 m 1
 244 214 l 1
 114 0 l 1
 11 0 l 1
 465 729 l 1
 1087 729 l 1
 1070 647 l 1
 699 647 l 1
 650 414 l 1
 1001 414 l 1
 983 332 l 1
 632 332 l 1
 579 82 l 1
 967 82 l 1
 950 0 l 1
 468 0 l 1
 513 214 l 1
531 295 m 1
 605 647 l 1
 505 647 l 1
 293 295 l 1
 531 295 l 1
EndSplineSet
EndChar
StartChar: Ccedilla
Encoding: 199 199 132
Width: 722
Flags: W
HStem: -214 43<288 311> -23 81<369 384> 660 81<512 534>
VStem: 112 96<241 268> 361 77.1123<-118 -114>
Fore
368 -23 m 1
 351 -56 l 1
 364 -54 367 -54 372 -54 c 0
 409 -54 439 -77 439 -105 c 0
 439 -168 378 -214 294 -214 c 0
 256 -214 227 -206 176 -180 c 1
 204 -142 l 1
 244 -163 270 -171 298 -171 c 0
 335 -171 361 -148 361 -116 c 0
 361 -104 347 -94 330 -94 c 0
 325 -94 325 -94 310 -97 c 2
 303 -98 l 1
 290 -92 l 1
 328 -21 l 1
 261 -11 232 1 197 32 c 0
 142 81 112 156 112 242 c 0
 112 367 161 505 240 600 c 0
 318 694 415 741 532 741 c 0
 626 741 697 704 738 634 c 0
 757 600 767 562 770 503 c 1
 674 503 l 1
 666 611 616 660 515 660 c 0
 423 660 350 617 289 527 c 0
 238 451 208 351 208 260 c 0
 208 139 277 58 381 58 c 0
 460 58 536 95 578 155 c 0
 596 179 612 209 637 266 c 1
 735 266 l 1
 656 68 542 -21 368 -23 c 1
EndSplineSet
KernsSLIFO: 33 -44 0 0
EndChar
StartChar: Egrave
Encoding: 200 200 133
Width: 667
Flags: W
HStem: 0 82<202 613> 332 82<273 650> 647 82<322 734>
Fore
255 332 m 1
 201 82 l 1
 630 82 l 1
 613 0 l 1
 90 0 l 1
 245 729 l 1
 751 729 l 1
 734 647 l 1
 322 647 l 1
 272 414 l 1
 668 414 l 1
 650 332 l 1
 255 332 l 1
495 939 m 1
 567 791 l 1
 514 791 l 1
 389 939 l 1
 495 939 l 1
EndSplineSet
EndChar
StartChar: Eacute
Encoding: 201 201 134
Width: 667
Flags: W
HStem: 0 82<202 613> 332 82<273 650> 647 82<322 734>
Fore
255 332 m 1
 201 82 l 1
 630 82 l 1
 613 0 l 1
 90 0 l 1
 245 729 l 1
 751 729 l 1
 734 647 l 1
 322 647 l 1
 272 414 l 1
 668 414 l 1
 650 332 l 1
 255 332 l 1
582 939 m 1
 694 939 l 1
 514 791 l 1
 454 791 l 1
 582 939 l 1
EndSplineSet
EndChar
StartChar: Ecircumflex
Encoding: 202 202 135
Width: 667
Flags: W
HStem: 0 82<202 613> 332 82<273 650> 647 82<322 734>
Fore
255 332 m 1
 201 82 l 1
 630 82 l 1
 613 0 l 1
 90 0 l 1
 245 729 l 1
 751 729 l 1
 734 647 l 1
 322 647 l 1
 272 414 l 1
 668 414 l 1
 650 332 l 1
 255 332 l 1
495 940 m 1
 590 940 l 1
 654 790 l 1
 591 790 l 1
 535 889 l 1
 431 790 l 1
 367 790 l 1
 495 940 l 1
EndSplineSet
EndChar
StartChar: Edieresis
Encoding: 203 203 136
Width: 667
Flags: W
HStem: 0 82<202 613> 332 82<273 650> 647 82<322 734> 811 103<401 483 562 644>
Fore
255 332 m 1
 201 82 l 1
 630 82 l 1
 613 0 l 1
 90 0 l 1
 245 729 l 1
 751 729 l 1
 734 647 l 1
 322 647 l 1
 272 414 l 1
 668 414 l 1
 650 332 l 1
 255 332 l 1
505 914 m 1
 483 811 l 1
 379 811 l 1
 401 914 l 1
 505 914 l 1
666 914 m 1
 644 811 l 1
 540 811 l 1
 562 914 l 1
 666 914 l 1
EndSplineSet
EndChar
StartChar: Igrave
Encoding: 204 204 137
Width: 278
Flags: W
HStem: 0 21G<100 194> 709 20G<255 349>
Fore
349 729 m 1
 194 0 l 1
 100 0 l 1
 255 729 l 1
 349 729 l 1
306 939 m 1
 378 791 l 1
 325 791 l 1
 200 939 l 1
 306 939 l 1
EndSplineSet
EndChar
StartChar: Iacute
Encoding: 205 205 138
Width: 278
Flags: W
HStem: 0 21G<100 194> 709 20G<255 349>
Fore
349 729 m 1
 194 0 l 1
 100 0 l 1
 255 729 l 1
 349 729 l 1
367 939 m 1
 479 939 l 1
 299 791 l 1
 239 791 l 1
 367 939 l 1
EndSplineSet
EndChar
StartChar: Icircumflex
Encoding: 206 206 139
Width: 278
Flags: W
HStem: 0 21G<100 194> 709 20G<255 349>
Fore
349 729 m 1
 194 0 l 1
 100 0 l 1
 255 729 l 1
 349 729 l 1
295 940 m 1
 390 940 l 1
 454 790 l 1
 391 790 l 1
 335 889 l 1
 231 790 l 1
 167 790 l 1
 295 940 l 1
EndSplineSet
EndChar
StartChar: Idieresis
Encoding: 207 207 140
Width: 278
Flags: W
HStem: 0 21G<100 194> 709 20G<255 349> 804 103<202 284 363 445>
Fore
349 729 m 1
 194 0 l 1
 100 0 l 1
 255 729 l 1
 349 729 l 1
306 907 m 1
 284 804 l 1
 180 804 l 1
 202 907 l 1
 306 907 l 1
467 907 m 1
 445 804 l 1
 341 804 l 1
 363 907 l 1
 467 907 l 1
EndSplineSet
EndChar
StartChar: Eth
Encoding: 208 208 141
Width: 722
Flags: W
HStem: 0 82<201 393> 341 67<106 160 271 422> 647 82<321 505>
VStem: 663 96<464 496>
Fore
161 341 m 1
 93 341 l 1
 106 408 l 1
 176 408 l 1
 244 729 l 1
 526 729 l 2
 591 729 644 711 682 677 c 0
 729 635 759 561 759 488 c 0
 759 363 711 217 643 134 c 0
 570 45 479 0 371 0 c 2
 89 0 l 1
 161 341 l 1
255 341 m 1
 200 82 l 1
 372 82 l 2
 463 82 539 125 591 205 c 0
 631 268 663 389 663 480 c 0
 663 585 599 647 492 647 c 2
 321 647 l 1
 270 408 l 1
 436 408 l 1
 422 341 l 1
 255 341 l 1
EndSplineSet
EndChar
StartChar: Ntilde
Encoding: 209 209 142
Width: 722
Flags: W
HStem: 0 21G<76 165 540 646> 709 20G<231 335 712 801> 811 70<613 623> 843 70<476 492>
Fore
801 729 m 1
 646 0 l 1
 540 0 l 1
 291 591 l 1
 165 0 l 1
 76 0 l 1
 231 729 l 1
 335 729 l 1
 585 131 l 1
 712 729 l 1
 801 729 l 1
669 918 m 1
 722 918 l 1
 701 853 659 811 614 811 c 0
 592 811 575 815 511 837 c 0
 500 841 490 843 484 843 c 0
 465 843 453 837 441 819 c 0
 439 817 437 814 434 810 c 1
 381 810 l 1
 393 845 401 862 413 877 c 0
 429 898 460 913 485 913 c 0
 502 913 519 909 558 896 c 0
 584 887 611 881 621 881 c 0
 641 881 651 889 669 918 c 1
EndSplineSet
EndChar
StartChar: Ograve
Encoding: 210 210 143
Width: 778
Flags: W
HStem: -23 81<390 408> 660 81<520 540>
VStem: 104 96<249 281> 732 96<441 466>
Fore
537 741 m 0
 628 741 707 713 756 664 c 0
 800 619 828 543 828 464 c 0
 828 306 752 144 635 54 c 0
 570 4 485 -23 391 -23 c 0
 306 -23 225 6 177 54 c 0
 131 100 104 177 104 263 c 0
 104 390 157 522 246 614 c 0
 327 699 424 741 537 741 c 0
525 660 m 0
 431 660 342 613 284 533 c 0
 231 460 200 363 200 271 c 0
 200 213 214 164 241 130 c 0
 276 86 339 58 404 58 c 0
 501 58 589 104 647 185 c 0
 700 257 732 355 732 446 c 0
 732 505 718 553 691 588 c 0
 657 632 593 660 525 660 c 0
538 939 m 1
 610 791 l 1
 557 791 l 1
 432 939 l 1
 538 939 l 1
EndSplineSet
KernsSLIFO: 52 -54 0 0 54 -48 0 0 57 -71 0 0
EndChar
StartChar: Oacute
Encoding: 211 211 144
Width: 778
Flags: W
HStem: -23 81<390 408> 660 81<520 539>
VStem: 104 96<249 281> 732 96<441 466>
Fore
537 741 m 0
 628 741 707 713 756 664 c 0
 800 619 828 543 828 464 c 0
 828 306 752 144 635 54 c 0
 570 4 485 -23 391 -23 c 0
 306 -23 225 6 177 54 c 0
 131 100 104 177 104 263 c 0
 104 390 157 522 246 614 c 0
 327 699 424 741 537 741 c 0
525 660 m 0
 431 660 342 613 284 533 c 0
 231 460 200 363 200 271 c 0
 200 213 214 164 241 130 c 0
 276 86 339 58 404 58 c 0
 501 58 589 104 647 185 c 0
 700 257 732 355 732 446 c 0
 732 505 718 553 691 588 c 0
 657 632 593 660 525 660 c 0
621 939 m 1
 733 939 l 1
 553 791 l 1
 493 791 l 1
 621 939 l 1
EndSplineSet
KernsSLIFO: 33 -43 0 0 52 -54 0 0 54 -48 0 0 55 -25 0 0 57 -71 0 0
EndChar
StartChar: Ocircumflex
Encoding: 212 212 145
Width: 778
Flags: W
HStem: -23 81<390 412> 660 81<520 540>
VStem: 104 96<249 281> 732 96<441 466>
Fore
537 741 m 0
 628 741 707 713 756 664 c 0
 800 619 828 543 828 464 c 0
 828 306 752 144 635 54 c 0
 570 4 485 -23 391 -23 c 0
 306 -23 225 6 177 54 c 0
 131 100 104 177 104 263 c 0
 104 390 157 522 246 614 c 0
 327 699 424 741 537 741 c 0
525 660 m 0
 431 660 342 613 284 533 c 0
 231 460 200 363 200 271 c 0
 200 213 214 164 241 130 c 0
 276 86 339 58 404 58 c 0
 501 58 589 104 647 185 c 0
 700 257 732 355 732 446 c 0
 732 505 718 553 691 588 c 0
 657 632 593 660 525 660 c 0
538 940 m 1
 633 940 l 1
 697 790 l 1
 634 790 l 1
 578 889 l 1
 474 790 l 1
 410 790 l 1
 538 940 l 1
EndSplineSet
KernsSLIFO: 52 -54 0 0 54 -48 0 0 57 -71 0 0
EndChar
StartChar: Otilde
Encoding: 213 213 146
Width: 778
Flags: W
HStem: -23 81<390 408> 660 81<508 539> 811 70<637 649> 843 70<504 512>
VStem: 104 96<249 281> 732 96<441 466>
Fore
537 741 m 0
 628 741 707 713 756 664 c 0
 800 619 828 543 828 464 c 0
 828 306 752 144 635 54 c 0
 570 4 485 -23 391 -23 c 0
 306 -23 225 6 177 54 c 0
 131 100 104 177 104 263 c 0
 104 390 157 522 246 614 c 0
 327 699 424 741 537 741 c 0
525 660 m 0
 431 660 342 613 284 533 c 0
 231 460 200 363 200 271 c 0
 200 213 214 164 241 130 c 0
 276 86 339 58 404 58 c 0
 501 58 589 104 647 185 c 0
 700 257 732 355 732 446 c 0
 732 505 718 553 691 588 c 0
 657 632 593 660 525 660 c 0
694 918 m 1
 747 918 l 1
 726 853 684 811 639 811 c 0
 617 811 600 815 536 837 c 0
 525 841 515 843 509 843 c 0
 490 843 478 837 466 819 c 0
 464 817 462 814 459 810 c 1
 406 810 l 1
 418 845 426 862 438 877 c 0
 454 898 485 913 510 913 c 0
 527 913 544 909 583 896 c 0
 609 887 636 881 646 881 c 0
 666 881 676 889 694 918 c 1
EndSplineSet
KernsSLIFO: 52 -54 0 0 54 -48 0 0 57 -71 0 0
EndChar
StartChar: Odieresis
Encoding: 214 214 147
Width: 778
Flags: W
HStem: -23 81<390 408> 660 81<520 539> 811 103<446 528 607 689>
VStem: 104 96<249 281> 732 96<441 466>
Fore
537 741 m 0
 628 741 707 713 756 664 c 0
 800 619 828 543 828 464 c 0
 828 306 752 144 635 54 c 0
 570 4 485 -23 391 -23 c 0
 306 -23 225 6 177 54 c 0
 131 100 104 177 104 263 c 0
 104 390 157 522 246 614 c 0
 327 699 424 741 537 741 c 0
525 660 m 0
 431 660 342 613 284 533 c 0
 231 460 200 363 200 271 c 0
 200 213 214 164 241 130 c 0
 276 86 339 58 404 58 c 0
 501 58 589 104 647 185 c 0
 700 257 732 355 732 446 c 0
 732 505 718 553 691 588 c 0
 657 632 593 660 525 660 c 0
550 914 m 1
 528 811 l 1
 424 811 l 1
 446 914 l 1
 550 914 l 1
711 914 m 1
 689 811 l 1
 585 811 l 1
 607 914 l 1
 711 914 l 1
EndSplineSet
KernsSLIFO: 33 -43 0 0 52 -54 0 0 54 -48 0 0 55 -25 0 0 56 -52 0 0 57 -71 0 0
EndChar
StartChar: multiply
Encoding: 215 215 148
Width: 584
Flags: W
Fore
529 427 m 1
 568 377 l 1
 390 231 l 1
 507 84 l 1
 446 34 l 1
 330 181 l 1
 152 35 l 1
 113 84 l 1
 291 231 l 1
 176 377 l 1
 236 426 l 1
 351 281 l 1
 529 427 l 1
EndSplineSet
EndChar
StartChar: Oslash
Encoding: 216 216 149
Width: 778
Flags: W
HStem: -23 81<377 400> 660 81<496 528>
VStem: 88 96<248 296> 716 96<440 472>
Fore
32 15 m 1
 126 100 l 1
 102 141 88 205 88 268 c 0
 88 390 142 522 229 614 c 0
 309 698 407 741 519 741 c 0
 616 741 701 709 745 657 c 1
 832 735 l 1
 867 696 l 1
 775 613 l 1
 800 570 812 519 812 463 c 0
 812 305 734 140 618 54 c 0
 550 4 467 -23 378 -23 c 0
 285 -23 209 5 158 57 c 1
 67 -24 l 1
 32 15 l 1
202 168 m 1
 672 592 l 1
 636 635 575 660 508 660 c 0
 327 660 184 486 184 265 c 0
 184 225 189 198 202 168 c 1
700 546 m 1
 230 123 l 1
 264 83 325 58 391 58 c 0
 484 58 574 106 632 185 c 0
 684 256 716 355 716 443 c 0
 716 485 710 521 700 546 c 1
EndSplineSet
KernsSLIFO: 33 -47 0 0
EndChar
StartChar: Ugrave
Encoding: 217 217 150
Width: 722
Flags: HW
Fore
514 939 m 1
 586 791 l 1
 532 791 l 1
 408 939 l 1
 514 939 l 1
706 729 m 1
 800 729 l 1
 691 217 l 2
 660 71 531 -23 363 -23 c 0
 286 -23 220 -2 179 35 c 0
 147 64 124 114 124 155 c 0
 124 171 131 217 138 251 c 1
 240 729 l 1
 334 729 l 1
 225 217 l 2
 222 202 220 187 220 174 c 0
 220 104 285 58 381 58 c 0
 494 58 576 118 597 217 c 2
 706 729 l 1
EndSplineSet
KernsSLIFO: 33 -45 0 0
EndChar
StartChar: Uacute
Encoding: 218 218 151
Width: 722
Flags: W
HStem: -23 81<362 383> 709 20G<240 334 706 800>
VStem: 124.895 95.2169<155 174>
Fore
591 939 m 1
 703 939 l 1
 523 791 l 1
 463 791 l 1
 591 939 l 1
706 729 m 1
 800 729 l 1
 691 217 l 2
 660 71 531 -23 363 -23 c 0
 286 -23 220 -2 179 35 c 0
 147 64 124 114 124 155 c 0
 124 171 131 217 138 251 c 1
 240 729 l 1
 334 729 l 1
 225 217 l 2
 222 202 220 187 220 174 c 0
 220 104 285 58 381 58 c 0
 494 58 576 118 597 217 c 2
 706 729 l 1
EndSplineSet
KernsSLIFO: 12 -35 0 0 14 -32 0 0 33 -45 0 0 77 -17 0 0 78 -16 0 0 80 -8 0 0 82 -16 0 0
EndChar
StartChar: Ucircumflex
Encoding: 219 219 152
Width: 722
Flags: W
HStem: -23 81<362 391> 709 20G<240 334 706 800>
VStem: 124.895 95.2169<155 174>
Fore
517 940 m 1
 611 940 l 1
 676 790 l 1
 612 790 l 1
 556 889 l 1
 453 790 l 1
 389 790 l 1
 517 940 l 1
706 729 m 1
 800 729 l 1
 691 217 l 2
 660 71 531 -23 363 -23 c 0
 286 -23 220 -2 179 35 c 0
 147 64 124 114 124 155 c 0
 124 171 131 217 138 251 c 1
 240 729 l 1
 334 729 l 1
 225 217 l 2
 222 202 220 187 220 174 c 0
 220 104 285 58 381 58 c 0
 494 58 576 118 597 217 c 2
 706 729 l 1
EndSplineSet
KernsSLIFO: 33 -45 0 0
EndChar
StartChar: Udieresis
Encoding: 220 220 153
Width: 722
Flags: W
HStem: -23 81<362 383> 709 20G<240 334 706 800> 811 103<428 509 589 670>
VStem: 124.895 95.2169<155 174>
Fore
532 914 m 1
 509 811 l 1
 406 811 l 1
 428 914 l 1
 532 914 l 1
693 914 m 1
 670 811 l 1
 567 811 l 1
 589 914 l 1
 693 914 l 1
706 729 m 1
 800 729 l 1
 691 217 l 2
 660 71 531 -23 363 -23 c 0
 286 -23 220 -2 179 35 c 0
 147 64 124 114 124 155 c 0
 124 171 131 217 138 251 c 1
 240 729 l 1
 334 729 l 1
 225 217 l 2
 222 202 220 187 220 174 c 0
 220 104 285 58 381 58 c 0
 494 58 576 118 597 217 c 2
 706 729 l 1
EndSplineSet
KernsSLIFO: 12 -35 0 0 14 -32 0 0 33 -44 0 0 66 -8 0 0 77 -17 0 0 78 -16 0 0 80 -8 0 0 82 -16 0 0
EndChar
StartChar: Yacute
Encoding: 221 221 154
Width: 667
Flags: W
HStem: 0 21G<293 387> 709 20G<168 280 705 816>
Fore
448 286 m 1
 387 0 l 1
 293 0 l 1
 354 286 l 1
 168 729 l 1
 280 729 l 1
 416 372 l 1
 705 729 l 1
 816 729 l 1
 448 286 l 1
564 939 m 1
 676 939 l 1
 496 791 l 1
 436 791 l 1
 564 939 l 1
EndSplineSet
EndChar
StartChar: Thorn
Encoding: 222 222 155
Width: 667
Flags: W
HStem: 0 21G<91 185> 191 82<244 459> 529 82<316 507> 709 20G<246 340>
VStem: 612 96<431 448>
Fore
226 191 m 1
 185 0 l 1
 91 0 l 1
 246 729 l 1
 340 729 l 1
 315 611 l 1
 523 611 l 2
 645 611 708 556 708 450 c 0
 708 369 672 293 609 243 c 0
 564 207 517 191 454 191 c 2
 226 191 l 1
243 273 m 1
 437 273 l 2
 501 273 544 292 577 334 c 0
 600 364 612 397 612 432 c 0
 612 495 570 529 492 529 c 2
 297 529 l 1
 243 273 l 1
EndSplineSet
EndChar
StartChar: germandbls
Encoding: 223 223 156
Width: 611
Flags: W
HStem: -15 79<294 328> 0 21G<55 143> 354 73<373.125 400.15> 652 76<422 444>
VStem: 518 94<252 269> 555 91<563 585>
Back
376 349 m 1
 394 431 l 1
 492 430 567 488 567 565 c 0
 567 619 530 652 468 652 c 0
 391 652 340 612 324 538 c 1
 210 0 l 1
 126 0 l 1
 240 538 l 2
 254 604 275 639 321 676 c 0
 367 713 414 729 473 729 c 0
 586 729 655 673 655 582 c 0
 655 502 612 437 535 403 c 1
 592 378 619 337 619 278 c 0
 619 211 592 134 552 82 c 0
 497 11 422 -23 324 -23 c 0
 311 -23 306 -22 298 -19 c 1
 315 59 l 1
 325 59 l 2
 334 58 341 58 344 58 c 0
 448 58 531 144 531 251 c 0
 531 317 491 349 407 349 c 2
 397 349 l 1
 376 349 l 1
EndSplineSet
Fore
373 427 m 1
 493 427 539 481 552 540 c 0
 554 548 555 556 555 564 c 0
 555 616 512 652 424 652 c 0
 311 652 270 595 252 510 c 2
 143 0 l 1
 55 0 l 1
 168 532 l 2
 193 647 291 728 441 728 c 0
 571 728 646 673 646 585 c 0
 646 573 644 561 642 548 c 0
 621 451 554 415 528 400 c 1
 586 383 612 321 612 267 c 0
 612 255 611 244 609 234 c 0
 571 57 447 -15 304 -15 c 0
 275 -15 266 -11 253 -8 c 1
 268 67 l 1
 283 65 298 64 312 64 c 0
 421 64 492 113 514 214 c 0
 517 229 518 242 518 254 c 0
 518 328 461 354 373 354 c 2
 357 354 l 1
 373 427 l 1
EndSplineSet
EndChar
StartChar: agrave
Encoding: 224 224 157
Width: 556
Flags: W
HStem: -22.5409 72.3163<209 242> 462 76.3338<369 391> 720 20G<285 391>
VStem: 65 88<104 121> 477.989 90.0112<398 426>
Fore
552 51 m 1
 539 -14 l 1
 533 -15 527 -16 525 -17 c 0
 500 -23 497 -23 486 -23 c 0
 438 -23 410 2 410 43 c 2
 410 47 l 1
 410 54 l 1
 369 18 354 8 322 -3 c 0
 286 -16 244 -23 209 -23 c 0
 119 -23 65 25 65 105 c 0
 65 163 95 216 147 249 c 0
 196 280 238 290 372 302 c 0
 445 309 464 320 473 361 c 1
 476 379 l 1
 477 387 478 394 478 398 c 0
 478 435 432 462 372 462 c 0
 329 462 287 447 265 425 c 0
 251 411 244 397 235 369 c 1
 151 369 l 1
 170 480 255 539 394 539 c 0
 499 539 568 494 568 426 c 0
 568 416 568 416 562 389 c 1
 498 88 l 1
 497 85 497 82 497 78 c 0
 497 58 509 49 535 49 c 0
 539 49 543 49 552 51 c 1
431 164 m 2
 451 258 l 1
 407 243 399 242 305 229 c 0
 256 222 226 214 202 199 c 0
 172 181 153 148 153 115 c 0
 153 73 185 49 242 49 c 0
 330 49 418 102 431 164 c 2
391 740 m 1
 463 592 l 1
 410 592 l 1
 285 740 l 1
 391 740 l 1
EndSplineSet
KernsSLIFO: 86 -26 0 0 87 -16 0 0 89 -33 0 0
EndChar
StartChar: aacute
Encoding: 225 225 158
Width: 556
Flags: W
HStem: -22.5409 72.3163<209 242> 462 76.3338<369 391> 720 20G<458 570>
VStem: 65 88<104 121> 477.989 90.0112<398 426>
Fore
552 51 m 1
 539 -14 l 1
 533 -15 527 -16 525 -17 c 0
 500 -23 497 -23 486 -23 c 0
 438 -23 410 2 410 43 c 2
 410 47 l 1
 410 54 l 1
 369 18 354 8 322 -3 c 0
 286 -16 244 -23 209 -23 c 0
 119 -23 65 25 65 105 c 0
 65 163 95 216 147 249 c 0
 196 280 238 290 372 302 c 0
 445 309 464 320 473 361 c 1
 476 379 l 1
 477 387 478 394 478 398 c 0
 478 435 432 462 372 462 c 0
 329 462 287 447 265 425 c 0
 251 411 244 397 235 369 c 1
 151 369 l 1
 170 480 255 539 394 539 c 0
 499 539 568 494 568 426 c 0
 568 416 568 416 562 389 c 1
 498 88 l 1
 497 85 497 82 497 78 c 0
 497 58 509 49 535 49 c 0
 539 49 543 49 552 51 c 1
431 164 m 2
 451 258 l 1
 407 243 399 242 305 229 c 0
 256 222 226 214 202 199 c 0
 172 181 153 148 153 115 c 0
 153 73 185 49 242 49 c 0
 330 49 418 102 431 164 c 2
458 740 m 1
 570 740 l 1
 390 592 l 1
 330 592 l 1
 458 740 l 1
EndSplineSet
KernsSLIFO: 86 -26 0 0 87 -16 0 0 89 -33 0 0
EndChar
StartChar: acircumflex
Encoding: 226 226 159
Width: 556
Flags: W
HStem: -22.5409 72.3163<209 242> 462 76.3338<369 385> 721 20G<393 488>
VStem: 65 88<104 121> 477.989 90.0112<398 426>
Fore
552 51 m 1
 539 -14 l 1
 533 -15 527 -16 525 -17 c 0
 500 -23 497 -23 486 -23 c 0
 438 -23 410 2 410 43 c 2
 410 47 l 1
 410 54 l 1
 369 18 354 8 322 -3 c 0
 286 -16 244 -23 209 -23 c 0
 119 -23 65 25 65 105 c 0
 65 163 95 216 147 249 c 0
 196 280 238 290 372 302 c 0
 445 309 464 320 473 361 c 1
 476 379 l 1
 477 387 478 394 478 398 c 0
 478 435 432 462 372 462 c 0
 329 462 287 447 265 425 c 0
 251 411 244 397 235 369 c 1
 151 369 l 1
 170 480 255 539 394 539 c 0
 499 539 568 494 568 426 c 0
 568 416 568 416 562 389 c 1
 498 88 l 1
 497 85 497 82 497 78 c 0
 497 58 509 49 535 49 c 0
 539 49 543 49 552 51 c 1
431 164 m 2
 451 258 l 1
 407 243 399 242 305 229 c 0
 256 222 226 214 202 199 c 0
 172 181 153 148 153 115 c 0
 153 73 185 49 242 49 c 0
 330 49 418 102 431 164 c 2
393 741 m 1
 488 741 l 1
 552 591 l 1
 489 591 l 1
 433 690 l 1
 329 591 l 1
 265 591 l 1
 393 741 l 1
EndSplineSet
EndChar
StartChar: atilde
Encoding: 227 227 160
Width: 556
Flags: W
HStem: -22.5409 72.3163<209 242> 462 76.3338<369 385> 612 70<473 487> 644 70<337 353>
VStem: 65 88<104 121> 477.989 90.0112<398 426>
Fore
552 51 m 1
 539 -14 l 1
 533 -15 527 -16 525 -17 c 0
 500 -23 497 -23 486 -23 c 0
 438 -23 410 2 410 43 c 2
 410 47 l 1
 410 54 l 1
 369 18 354 8 322 -3 c 0
 286 -16 244 -23 209 -23 c 0
 119 -23 65 25 65 105 c 0
 65 163 95 216 147 249 c 0
 196 280 238 290 372 302 c 0
 445 309 464 320 473 361 c 1
 476 379 l 1
 477 387 478 394 478 398 c 0
 478 435 432 462 372 462 c 0
 329 462 287 447 265 425 c 0
 251 411 244 397 235 369 c 1
 151 369 l 1
 170 480 255 539 394 539 c 0
 499 539 568 494 568 426 c 0
 568 416 568 416 562 389 c 1
 498 88 l 1
 497 85 497 82 497 78 c 0
 497 58 509 49 535 49 c 0
 539 49 543 49 552 51 c 1
431 164 m 2
 451 258 l 1
 407 243 399 242 305 229 c 0
 256 222 226 214 202 199 c 0
 172 181 153 148 153 115 c 0
 153 73 185 49 242 49 c 0
 330 49 418 102 431 164 c 2
530 719 m 1
 583 719 l 1
 562 654 520 612 475 612 c 0
 453 612 436 616 372 638 c 0
 361 642 351 644 345 644 c 0
 326 644 314 638 302 620 c 0
 300 618 298 615 295 611 c 1
 242 611 l 1
 254 646 262 663 274 678 c 0
 290 699 321 714 346 714 c 0
 363 714 380 710 419 697 c 0
 445 688 472 682 482 682 c 0
 502 682 512 690 530 719 c 1
EndSplineSet
EndChar
StartChar: adieresis
Encoding: 228 228 161
Width: 556
Flags: W
HStem: -22.5409 72.3163<209 242> 462 76.3338<369 385> 612 103<299 381 460 542>
VStem: 65 88<104 121> 477.989 90.0112<398 426>
Fore
552 51 m 1
 539 -14 l 1
 533 -15 527 -16 525 -17 c 0
 500 -23 497 -23 486 -23 c 0
 438 -23 410 2 410 43 c 2
 410 47 l 1
 410 54 l 1
 369 18 354 8 322 -3 c 0
 286 -16 244 -23 209 -23 c 0
 119 -23 65 25 65 105 c 0
 65 163 95 216 147 249 c 0
 196 280 238 290 372 302 c 0
 445 309 464 320 473 361 c 1
 476 379 l 1
 477 387 478 394 478 398 c 0
 478 435 432 462 372 462 c 0
 329 462 287 447 265 425 c 0
 251 411 244 397 235 369 c 1
 151 369 l 1
 170 480 255 539 394 539 c 0
 499 539 568 494 568 426 c 0
 568 416 568 416 562 389 c 1
 498 88 l 1
 497 85 497 82 497 78 c 0
 497 58 509 49 535 49 c 0
 539 49 543 49 552 51 c 1
431 164 m 2
 451 258 l 1
 407 243 399 242 305 229 c 0
 256 222 226 214 202 199 c 0
 172 181 153 148 153 115 c 0
 153 73 185 49 242 49 c 0
 330 49 418 102 431 164 c 2
403 715 m 1
 381 612 l 1
 277 612 l 1
 299 715 l 1
 403 715 l 1
564 715 m 1
 542 612 l 1
 438 612 l 1
 460 715 l 1
 564 715 l 1
EndSplineSet
KernsSLIFO: 86 -26 0 0 87 -16 0 0 89 -33 0 0
EndChar
StartChar: aring
Encoding: 229 229 162
Width: 556
Flags: W
HStem: -22.5409 72.3163<209 242> 462 76.3338<369 385> 579 44<406 417> 710 44<430 442>
VStem: 65 88<104 121> 333 46<649 660> 468 44.0744<674 681> 477.989 90.0112<398 426>
Fore
552 51 m 1
 539 -14 l 1
 533 -15 527 -16 525 -17 c 0
 500 -23 497 -23 486 -23 c 0
 438 -23 410 2 410 43 c 2
 410 47 l 1
 410 54 l 1
 369 18 354 8 322 -3 c 0
 286 -16 244 -23 209 -23 c 0
 119 -23 65 25 65 105 c 0
 65 163 95 216 147 249 c 0
 196 280 238 290 372 302 c 0
 445 309 464 320 473 361 c 1
 476 379 l 1
 477 387 478 394 478 398 c 0
 478 435 432 462 372 462 c 0
 329 462 287 447 265 425 c 0
 251 411 244 397 235 369 c 1
 151 369 l 1
 170 480 255 539 394 539 c 0
 499 539 568 494 568 426 c 0
 568 416 568 416 562 389 c 1
 498 88 l 1
 497 85 497 82 497 78 c 0
 497 58 509 49 535 49 c 0
 539 49 543 49 552 51 c 1
431 164 m 2
 451 258 l 1
 407 243 399 242 305 229 c 0
 256 222 226 214 202 199 c 0
 172 181 153 148 153 115 c 0
 153 73 185 49 242 49 c 0
 330 49 418 102 431 164 c 2
441 754 m 0
 482 754 513 725 513 687 c 0
 513 631 461 579 404 579 c 0
 364 579 333 610 333 649 c 0
 333 702 387 754 441 754 c 0
434 710 m 0
 406 710 379 684 379 658 c 0
 379 637 394 623 414 623 c 0
 441 623 468 649 468 675 c 0
 468 695 453 710 434 710 c 0
EndSplineSet
KernsSLIFO: 86 -26 0 0 87 -16 0 0 89 -33 0 0
EndChar
StartChar: ae
Encoding: 230 230 163
Width: 889
Flags: W
HStem: -23 77<615 635> -22.4746 72.2874<201 237> 234 72<531 824> 462 77<362 388 711 729>
VStem: 59 88<104 121> 826.997 88.0026<339 370>
Fore
225 369 m 1
 141 369 l 1
 157 427 170 454 194 478 c 0
 235 517 304 539 387 539 c 0
 451 539 486 528 522 499 c 0
 541 483 543 481 546 474 c 1
 591 514 660 539 728 539 c 0
 830 539 915 462 915 370 c 0
 915 342 910 299 901 251 c 2
 898 234 l 1
 512 234 l 1
 508 216 507 204 507 181 c 2
 507 169 l 1
 507 163 l 2
 507 135 524 101 550 79 c 0
 570 62 597 54 632 54 c 0
 698 54 751 90 787 159 c 1
 871 159 l 1
 839 50 737 -23 616 -23 c 0
 536 -23 481 9 442 79 c 1
 375 14 288 -23 201 -23 c 128
 114 -23 59 27 59 105 c 0
 59 163 90 217 141 249 c 0
 191 279 234 289 363 300 c 0
 435 307 453 318 463 361 c 1
 468 386 l 1
 469 393 470 399 470 405 c 0
 470 440 430 462 366 462 c 0
 287 462 246 435 225 369 c 1
421 164 m 2
 441 257 l 1
 404 244 398 243 299 229 c 0
 247 222 220 214 196 199 c 0
 166 180 147 148 147 115 c 0
 147 72 179 49 237 49 c 0
 321 49 408 104 421 164 c 2
530 306 m 1
 824 306 l 1
 826 321 827 328 827 339 c 0
 827 414 783 462 712 462 c 0
 629 462 561 404 530 306 c 1
EndSplineSet
KernsSLIFO: 86 -26 0 0 87 -15 0 0 89 -32 0 0
EndChar
StartChar: ccedilla
Encoding: 231 231 164
Width: 500
Flags: W
HStem: -214 43<188 213> 462 77<364 383>
VStem: 76 88<169 186> 263 77.1123<-118 -114> 467.736 85.2833<370 393>
Fore
271 -23 m 1
 253 -56 l 1
 266 -54 270 -54 274 -54 c 0
 311 -54 341 -77 341 -105 c 0
 341 -168 280 -214 196 -214 c 0
 158 -214 129 -206 78 -180 c 1
 106 -142 l 1
 147 -163 172 -171 200 -171 c 0
 237 -171 263 -148 263 -116 c 0
 263 -104 248 -94 232 -94 c 0
 227 -94 227 -94 212 -97 c 2
 205 -98 l 1
 192 -92 l 1
 230 -22 l 1
 183 -13 163 -4 139 19 c 0
 100 55 76 112 76 170 c 0
 76 262 110 371 157 432 c 0
 210 501 291 539 381 539 c 0
 438 539 479 524 510 492 c 0
 536 465 554 425 554 393 c 0
 554 390 553 379 552 363 c 2
 551 348 l 1
 467 348 l 1
 468 357 468 364 468 370 c 0
 468 427 429 462 366 462 c 0
 305 462 255 432 218 373 c 0
 185 321 164 245 164 181 c 0
 164 103 208 54 277 54 c 0
 349 54 404 98 434 180 c 1
 518 180 l 1
 486 51 400 -19 271 -23 c 1
EndSplineSet
EndChar
StartChar: egrave
Encoding: 232 232 165
Width: 556
Flags: W
HStem: -23 77<278 298> 234 72<196 489> 462 77<372 391> 720 20G<278 384>
VStem: 84 88<169 190> 491.902 87.17<339 368>
Fore
563 234 m 1
 177 234 l 1
 173 219 172 209 172 188 c 0
 172 103 217 54 296 54 c 0
 363 54 416 90 452 159 c 1
 536 159 l 1
 505 51 402 -23 282 -23 c 0
 225 -23 181 -7 146 27 c 0
 107 64 84 119 84 173 c 0
 84 254 121 368 168 431 c 0
 218 498 302 539 389 539 c 0
 497 539 580 464 580 368 c 0
 580 341 575 299 566 251 c 2
 563 234 l 1
195 306 m 1
 489 306 l 1
 491 322 492 329 492 339 c 0
 492 414 447 462 376 462 c 0
 295 462 221 398 195 306 c 1
384 740 m 1
 456 592 l 1
 403 592 l 1
 278 740 l 1
 384 740 l 1
EndSplineSet
EndChar
StartChar: eacute
Encoding: 233 233 166
Width: 556
Flags: W
HStem: -23 77<281 298> 234 72<196 489> 462 77<372 391> 720 20G<468 580>
VStem: 84 88<169 190> 491.902 87.17<339 368>
Fore
563 234 m 1
 177 234 l 1
 173 219 172 209 172 188 c 0
 172 103 217 54 296 54 c 0
 363 54 416 90 452 159 c 1
 536 159 l 1
 505 51 402 -23 282 -23 c 0
 225 -23 181 -7 146 27 c 0
 107 64 84 119 84 173 c 0
 84 254 121 368 168 431 c 0
 218 498 302 539 389 539 c 0
 497 539 580 464 580 368 c 0
 580 341 575 299 566 251 c 2
 563 234 l 1
195 306 m 1
 489 306 l 1
 491 322 492 329 492 339 c 0
 492 414 447 462 376 462 c 0
 295 462 221 398 195 306 c 1
468 740 m 1
 580 740 l 1
 400 592 l 1
 340 592 l 1
 468 740 l 1
EndSplineSet
KernsSLIFO: 86 -26 0 0 87 -16 0 0 89 -33 0 0
EndChar
StartChar: ecircumflex
Encoding: 234 234 167
Width: 556
Flags: W
HStem: -23 77<281 298> 234 72<196 489> 462 77<372 391> 721 20G<389 484>
VStem: 84 88<169 190> 491.902 87.17<339 368>
Fore
563 234 m 1
 177 234 l 1
 173 219 172 209 172 188 c 0
 172 103 217 54 296 54 c 0
 363 54 416 90 452 159 c 1
 536 159 l 1
 505 51 402 -23 282 -23 c 0
 225 -23 181 -7 146 27 c 0
 107 64 84 119 84 173 c 0
 84 254 121 368 168 431 c 0
 218 498 302 539 389 539 c 0
 497 539 580 464 580 368 c 0
 580 341 575 299 566 251 c 2
 563 234 l 1
195 306 m 1
 489 306 l 1
 491 322 492 329 492 339 c 0
 492 414 447 462 376 462 c 0
 295 462 221 398 195 306 c 1
389 741 m 1
 484 741 l 1
 548 591 l 1
 485 591 l 1
 429 690 l 1
 325 591 l 1
 261 591 l 1
 389 741 l 1
EndSplineSet
KernsSLIFO: 86 -26 0 0 87 -16 0 0 89 -33 0 0
EndChar
StartChar: edieresis
Encoding: 235 235 168
Width: 556
Flags: W
HStem: -23 77<281 298> 234 72<196 489> 462 77<372 391> 612 103<296 378 457 539>
VStem: 84 88<169 190> 491.902 87.17<339 368>
Fore
563 234 m 1
 177 234 l 1
 173 219 172 209 172 188 c 0
 172 103 217 54 296 54 c 0
 363 54 416 90 452 159 c 1
 536 159 l 1
 505 51 402 -23 282 -23 c 0
 225 -23 181 -7 146 27 c 0
 107 64 84 119 84 173 c 0
 84 254 121 368 168 431 c 0
 218 498 302 539 389 539 c 0
 497 539 580 464 580 368 c 0
 580 341 575 299 566 251 c 2
 563 234 l 1
195 306 m 1
 489 306 l 1
 491 322 492 329 492 339 c 0
 492 414 447 462 376 462 c 0
 295 462 221 398 195 306 c 1
400 715 m 1
 378 612 l 1
 274 612 l 1
 296 715 l 1
 400 715 l 1
561 715 m 1
 539 612 l 1
 435 612 l 1
 457 715 l 1
 561 715 l 1
EndSplineSet
EndChar
StartChar: igrave
Encoding: 236 236 169
Width: 278
Flags: W
HStem: 0 21G<94 178> 507 20G<206 290> 720 20G<152 258>
Fore
290 527 m 1
 178 0 l 1
 94 0 l 1
 206 527 l 1
 290 527 l 1
258 740 m 1
 330 592 l 1
 277 592 l 1
 152 740 l 1
 258 740 l 1
EndSplineSet
EndChar
StartChar: iacute
Encoding: 237 237 170
Width: 278
Flags: W
HStem: 0 21G<94 178> 507 20G<206 290> 720 20G<319 431>
Fore
290 527 m 1
 178 0 l 1
 94 0 l 1
 206 527 l 1
 290 527 l 1
319 740 m 1
 431 740 l 1
 251 592 l 1
 191 592 l 1
 319 740 l 1
EndSplineSet
EndChar
StartChar: icircumflex
Encoding: 238 238 171
Width: 278
Flags: W
HStem: 0 21G<94 178> 507 20G<206 290> 721 20G<247 342>
Fore
290 527 m 1
 178 0 l 1
 94 0 l 1
 206 527 l 1
 290 527 l 1
247 741 m 1
 342 741 l 1
 406 591 l 1
 343 591 l 1
 287 690 l 1
 183 591 l 1
 119 591 l 1
 247 741 l 1
EndSplineSet
EndChar
StartChar: idieresis
Encoding: 239 239 172
Width: 278
Flags: W
HStem: 0 21G<94 178> 507 20G<206 290> 605 103<154 236 315 397>
Fore
290 527 m 1
 178 0 l 1
 94 0 l 1
 206 527 l 1
 290 527 l 1
258 708 m 1
 236 605 l 1
 132 605 l 1
 154 708 l 1
 258 708 l 1
419 708 m 1
 397 605 l 1
 293 605 l 1
 315 708 l 1
 419 708 l 1
EndSplineSet
EndChar
StartChar: eth
Encoding: 240 240 173
Width: 556
Flags: W
HStem: -23 77<272 297> 462 72<353 384>
VStem: 80 88<164 186> 488 88<329 349>
Fore
251 564 m 1
 219 603 l 1
 308 644 l 1
 299 652 291 659 288 661 c 0
 286 663 276 669 261 679 c 0
 257 681 245 689 233 698 c 1
 275 743 l 1
 297 729 l 2
 316 718 328 710 332 707 c 0
 345 698 357 690 369 681 c 0
 370 681 373 679 377 676 c 1
 476 719 l 1
 515 681 l 1
 420 640 l 1
 525 550 576 454 576 347 c 0
 576 265 542 155 497 93 c 0
 443 17 364 -23 273 -23 c 0
 215 -23 168 -6 135 26 c 0
 101 60 80 111 80 164 c 0
 80 248 113 358 158 423 c 0
 206 493 284 534 369 534 c 0
 395 534 407 531 435 517 c 1
 403 559 387 576 351 609 c 1
 251 564 l 1
371 462 m 0
 305 462 249 425 212 357 c 0
 185 307 168 241 168 184 c 0
 168 104 212 54 283 54 c 0
 352 54 406 90 444 159 c 0
 471 209 488 274 488 333 c 0
 488 414 445 462 371 462 c 0
EndSplineSet
EndChar
StartChar: ntilde
Encoding: 241 241 174
Width: 556
Flags: W
HStem: 0 21G<70 154 406 490> 466.995 72.0047<399 438> 504 20G<181 257> 612 70<479 492> 644 70<342 358>
VStem: 485.994 88.0059<386 414>
Fore
181 524 m 1
 257 524 l 1
 244 459 l 1
 296 512 362 539 438 539 c 0
 521 539 574 490 574 414 c 0
 574 401 573 389 570 376 c 1
 490 0 l 1
 406 0 l 1
 480 349 l 1
 484 365 486 380 486 386 c 0
 486 432 449 467 399 467 c 0
 309 467 239 399 215 289 c 1
 154 0 l 1
 70 0 l 1
 181 524 l 1
536 719 m 1
 589 719 l 1
 568 654 526 612 481 612 c 0
 459 612 442 616 378 638 c 0
 367 642 357 644 351 644 c 0
 332 644 320 638 308 620 c 0
 306 618 304 615 301 611 c 1
 248 611 l 1
 260 646 268 663 280 678 c 0
 296 699 327 714 352 714 c 0
 369 714 386 710 425 697 c 0
 451 688 478 682 488 682 c 0
 508 682 518 690 536 719 c 1
EndSplineSet
EndChar
StartChar: ograve
Encoding: 242 242 175
Width: 556
Flags: W
HStem: -23 77<268 288> 462 77<368 386> 720 20G<274 380>
VStem: 80 88<164 186> 488 88<329 353>
Fore
384 539 m 0
 442 539 487 523 521 490 c 0
 556 456 576 405 576 352 c 0
 576 265 543 156 497 93 c 0
 441 16 365 -23 269 -23 c 0
 157 -23 80 53 80 164 c 0
 80 249 113 359 158 423 c 0
 209 497 291 539 384 539 c 0
371 462 m 0
 305 462 249 425 212 357 c 0
 185 307 168 241 168 184 c 0
 168 104 212 54 283 54 c 0
 352 54 406 90 444 159 c 0
 471 209 488 274 488 333 c 0
 488 414 445 462 371 462 c 0
380 740 m 1
 452 592 l 1
 399 592 l 1
 274 740 l 1
 380 740 l 1
EndSplineSet
KernsSLIFO: 86 -27 0 0 87 -16 0 0 89 -34 0 0
EndChar
StartChar: oacute
Encoding: 243 243 176
Width: 556
Flags: W
HStem: -23 77<268 288> 462 77<368 386> 720 20G<464 576>
VStem: 80 88<164 186> 488 88<329 353>
Fore
384 539 m 0
 442 539 487 523 521 490 c 0
 556 456 576 405 576 352 c 0
 576 265 543 156 497 93 c 0
 441 16 365 -23 269 -23 c 0
 157 -23 80 53 80 164 c 0
 80 249 113 359 158 423 c 0
 209 497 291 539 384 539 c 0
371 462 m 0
 305 462 249 425 212 357 c 0
 185 307 168 241 168 184 c 0
 168 104 212 54 283 54 c 0
 352 54 406 90 444 159 c 0
 471 209 488 274 488 333 c 0
 488 414 445 462 371 462 c 0
464 740 m 1
 576 740 l 1
 396 592 l 1
 336 592 l 1
 464 740 l 1
EndSplineSet
KernsSLIFO: 86 -27 0 0 87 -16 0 0 89 -34 0 0
EndChar
StartChar: ocircumflex
Encoding: 244 244 177
Width: 556
Flags: W
HStem: -23 77<268 288> 462 77<368 386> 721 20G<383 478>
VStem: 80 88<164 186> 488 88<329 353>
Fore
384 539 m 0
 442 539 487 523 521 490 c 0
 556 456 576 405 576 352 c 0
 576 265 543 156 497 93 c 0
 441 16 365 -23 269 -23 c 0
 157 -23 80 53 80 164 c 0
 80 249 113 359 158 423 c 0
 209 497 291 539 384 539 c 0
371 462 m 0
 305 462 249 425 212 357 c 0
 185 307 168 241 168 184 c 0
 168 104 212 54 283 54 c 0
 352 54 406 90 444 159 c 0
 471 209 488 274 488 333 c 0
 488 414 445 462 371 462 c 0
383 741 m 1
 478 741 l 1
 542 591 l 1
 479 591 l 1
 423 690 l 1
 319 591 l 1
 255 591 l 1
 383 741 l 1
EndSplineSet
KernsSLIFO: 84 -17 0 0
EndChar
StartChar: otilde
Encoding: 245 245 178
Width: 556
Flags: W
HStem: -23 77<268 295> 462 77<368 386> 612 70<474 487> 644 70<336 352>
VStem: 80 88<164 186> 488 88<329 353>
Fore
384 539 m 0
 442 539 487 523 521 490 c 0
 556 456 576 405 576 352 c 0
 576 265 543 156 497 93 c 0
 441 16 365 -23 269 -23 c 0
 157 -23 80 53 80 164 c 0
 80 249 113 359 158 423 c 0
 209 497 291 539 384 539 c 0
371 462 m 0
 305 462 249 425 212 357 c 0
 185 307 168 241 168 184 c 0
 168 104 212 54 283 54 c 0
 352 54 406 90 444 159 c 0
 471 209 488 274 488 333 c 0
 488 414 445 462 371 462 c 0
530 719 m 1
 583 719 l 1
 562 654 520 612 475 612 c 0
 453 612 436 616 372 638 c 0
 361 642 351 644 345 644 c 0
 326 644 314 638 302 620 c 0
 300 618 298 615 295 611 c 1
 242 611 l 1
 254 646 262 663 274 678 c 0
 290 699 321 714 346 714 c 0
 363 714 380 710 419 697 c 0
 445 688 472 682 482 682 c 0
 502 682 512 690 530 719 c 1
EndSplineSet
EndChar
StartChar: odieresis
Encoding: 246 246 179
Width: 556
Flags: W
HStem: -23 77<268 293> 462 77<368 386> 612 103<291 373 452 534>
VStem: 80 88<164 186> 488 88<329 353>
Fore
384 539 m 0
 442 539 487 523 521 490 c 0
 556 456 576 405 576 352 c 0
 576 265 543 156 497 93 c 0
 441 16 365 -23 269 -23 c 0
 157 -23 80 53 80 164 c 0
 80 249 113 359 158 423 c 0
 209 497 291 539 384 539 c 0
371 462 m 0
 305 462 249 425 212 357 c 0
 185 307 168 241 168 184 c 0
 168 104 212 54 283 54 c 0
 352 54 406 90 444 159 c 0
 471 209 488 274 488 333 c 0
 488 414 445 462 371 462 c 0
395 715 m 1
 373 612 l 1
 269 612 l 1
 291 715 l 1
 395 715 l 1
556 715 m 1
 534 612 l 1
 430 612 l 1
 452 715 l 1
 556 715 l 1
EndSplineSet
KernsSLIFO: 84 -17 0 0 86 -27 0 0 87 -16 0 0 88 -35 0 0 89 -34 0 0
EndChar
StartChar: divide
Encoding: 247 247 180
Width: 584
Flags: W
HStem: 0 104<300 307> 197 72<107 576> 358 104<369.088 381>
VStem: 253 104<48 54> 327 104<408 416>
Fore
591 269 m 1
 576 197 l 1
 92 197 l 1
 107 269 l 1
 591 269 l 1
305 104 m 0
 334 104 357 81 357 51 c 0
 357 24 333 0 305 0 c 128
 277 0 253 24 253 52 c 128
 253 80 277 104 305 104 c 0
379 462 m 0
 408 462 431 439 431 409 c 0
 431 382 407 358 379 358 c 128
 351 358 327 382 327 410 c 0
 327 439 350 462 379 462 c 0
EndSplineSet
EndChar
StartChar: oslash
Encoding: 248 248 181
Width: 611
Flags: W
HStem: -23 77<273 291> 462 77<368 387>
VStem: 81 88<161 182> 489 87.0443<327 338>
Fore
19 -2 m 1
 102 74 l 1
 87 106 81 133 81 164 c 0
 81 248 114 359 159 423 c 0
 211 498 291 539 383 539 c 0
 454 539 504 517 537 472 c 1
 613 541 l 1
 639 511 l 1
 558 437 l 1
 571 408 577 383 577 354 c 0
 577 265 544 157 498 93 c 0
 443 17 365 -23 274 -23 c 0
 206 -23 153 -1 123 41 c 1
 45 -30 l 1
 19 -2 l 1
175 141 m 1
 470 410 l 1
 451 444 415 462 369 462 c 0
 305 462 249 425 213 357 c 0
 185 306 169 242 169 180 c 0
 169 163 170 156 175 141 c 1
484 370 m 1
 190 102 l 1
 209 71 245 54 289 54 c 0
 353 54 410 93 446 159 c 0
 470 204 489 280 489 328 c 0
 489 339 488 350 484 370 c 1
EndSplineSet
EndChar
StartChar: ugrave
Encoding: 249 249 182
Width: 556
Flags: W
HStem: -22.9987 71.9987<226 268> 0 21G<407 483> 504 20G<177 261 510 594> 720 20G<270 376>
Fore
483 0 m 1
 407 0 l 1
 419 57 l 1
 361 1 304 -23 226 -23 c 0
 140 -23 88 18 88 86 c 0
 88 99 89 110 91 120 c 2
 177 524 l 1
 261 524 l 1
 182 153 l 2
 180 143 179 134 179 126 c 0
 179 79 214 49 268 49 c 0
 353 49 424 119 447 227 c 2
 510 524 l 1
 594 524 l 1
 483 0 l 1
376 740 m 1
 448 592 l 1
 395 592 l 1
 270 740 l 1
 376 740 l 1
EndSplineSet
EndChar
StartChar: uacute
Encoding: 250 250 183
Width: 556
Flags: W
HStem: -22.9987 71.9987<226 268> 0 21G<407 483> 504 20G<177 261 510 594> 720 20G<463 575>
Fore
483 0 m 1
 407 0 l 1
 419 57 l 1
 361 1 304 -23 226 -23 c 0
 140 -23 88 18 88 86 c 0
 88 99 89 110 91 120 c 2
 177 524 l 1
 261 524 l 1
 182 153 l 2
 180 143 179 134 179 126 c 0
 179 79 214 49 268 49 c 0
 353 49 424 119 447 227 c 2
 510 524 l 1
 594 524 l 1
 483 0 l 1
463 740 m 1
 575 740 l 1
 395 592 l 1
 335 592 l 1
 463 740 l 1
EndSplineSet
EndChar
StartChar: ucircumflex
Encoding: 251 251 184
Width: 556
Flags: W
HStem: -22.044 71.9768<226 268> 0 21G<407 483> 504 20G<177 261 510 594> 721 20G<380 475>
Fore
483 0 m 1
 407 0 l 1
 419 57 l 1
 361 1 304 -23 226 -23 c 0
 140 -23 88 18 88 86 c 0
 88 99 89 110 91 120 c 2
 177 524 l 1
 261 524 l 1
 182 153 l 2
 180 143 179 134 179 126 c 0
 179 79 214 49 268 49 c 0
 353 49 424 119 447 227 c 2
 510 524 l 1
 594 524 l 1
 483 0 l 1
380 741 m 1
 475 741 l 1
 539 591 l 1
 476 591 l 1
 420 690 l 1
 316 591 l 1
 252 591 l 1
 380 741 l 1
EndSplineSet
EndChar
StartChar: udieresis
Encoding: 252 252 185
Width: 556
Flags: W
HStem: -22.9987 71.9987<226 268> 0 21G<407 483> 504 20G<177 261 510 594> 612 103<290 372 451 533>
Fore
483 0 m 1
 407 0 l 1
 419 57 l 1
 361 1 304 -23 226 -23 c 0
 140 -23 88 18 88 86 c 0
 88 99 89 110 91 120 c 2
 177 524 l 1
 261 524 l 1
 182 153 l 2
 180 143 179 134 179 126 c 0
 179 79 214 49 268 49 c 0
 353 49 424 119 447 227 c 2
 510 524 l 1
 594 524 l 1
 483 0 l 1
394 715 m 1
 372 612 l 1
 268 612 l 1
 290 715 l 1
 394 715 l 1
555 715 m 1
 533 612 l 1
 429 612 l 1
 451 715 l 1
 555 715 l 1
EndSplineSet
EndChar
StartChar: yacute
Encoding: 253 253 186
Width: 500
Flags: W
HStem: -218 81<56 72> 504 20G<132 222 501 590> 720 20G<434 546>
Fore
501 524 m 1
 590 524 l 1
 222 -110 l 2
 179 -184 128 -218 57 -218 c 0
 38 -218 26 -216 8 -208 c 1
 24 -133 l 1
 51 -136 58 -137 68 -137 c 0
 105 -137 121 -127 148 -85 c 2
 200 -4 l 1
 132 524 l 1
 222 524 l 1
 268 117 l 1
 501 524 l 1
434 740 m 1
 546 740 l 1
 366 592 l 1
 306 592 l 1
 434 740 l 1
EndSplineSet
EndChar
StartChar: thorn
Encoding: 254 254 187
Width: 556
Flags: W
HStem: -213 21G<7 91> -23 77<290 311> 461.997 77.0031<379 412> 709 20G<207 291>
VStem: 498 88<315 345>
Fore
7 -213 m 1
 207 729 l 1
 291 729 l 1
 230 440 l 1
 260 498 336 539 412 539 c 0
 519 539 586 464 586 344 c 0
 586 246 552 142 498 76 c 0
 447 13 372 -23 294 -23 c 0
 223 -23 182 3 151 68 c 1
 91 -213 l 1
 7 -213 l 1
379 462 m 0
 317 462 267 428 230 361 c 0
 200 309 183 244 183 184 c 0
 183 104 229 54 302 54 c 0
 367 54 417 87 454 155 c 0
 481 205 498 270 498 324 c 0
 498 410 454 462 379 462 c 0
EndSplineSet
EndChar
StartChar: ydieresis
Encoding: 255 255 188
Width: 500
Flags: W
HStem: -218 81<56 72> 504 20G<132 222 501 590> 612 103<268 350 429 511>
Fore
501 524 m 1
 590 524 l 1
 222 -110 l 2
 179 -184 128 -218 57 -218 c 0
 38 -218 26 -216 8 -208 c 1
 24 -133 l 1
 51 -136 58 -137 68 -137 c 0
 105 -137 121 -127 148 -85 c 2
 200 -4 l 1
 132 524 l 1
 222 524 l 1
 268 117 l 1
 501 524 l 1
372 715 m 1
 350 612 l 1
 246 612 l 1
 268 715 l 1
 372 715 l 1
533 715 m 1
 511 612 l 1
 407 612 l 1
 429 715 l 1
 533 715 l 1
EndSplineSet
EndChar
StartChar: Amacron
Encoding: 256 256 189
Width: 667
Flags: W
HStem: 0 21G<17 116 551 653> 219 78<284 513> 709 20G<432 552> 826 69<388 648>
Fore
524 219 m 1
 239 219 l 1
 116 0 l 1
 17 0 l 1
 432 729 l 1
 552 729 l 1
 653 0 l 1
 551 0 l 1
 524 219 l 1
514 297 m 1
 474 630 l 1
 283 297 l 1
 514 297 l 1
663 895 m 1
 648 826 l 1
 373 826 l 1
 388 895 l 1
 663 895 l 1
EndSplineSet
EndChar
StartChar: amacron
Encoding: 257 257 190
Width: 556
Flags: W
HStem: -22.5409 72.3163<209 242> 462 76.3338<369 385> 627 69<292 552>
VStem: 65 88<104 121> 477.989 90.0112<398 426>
Fore
552 51 m 1
 539 -14 l 1
 533 -15 527 -16 525 -17 c 0
 500 -23 497 -23 486 -23 c 0
 438 -23 410 2 410 43 c 2
 410 47 l 1
 410 54 l 1
 369 18 354 8 322 -3 c 0
 286 -16 244 -23 209 -23 c 0
 119 -23 65 25 65 105 c 0
 65 163 95 216 147 249 c 0
 196 280 238 290 372 302 c 0
 445 309 464 320 473 361 c 1
 476 379 l 1
 477 387 478 394 478 398 c 0
 478 435 432 462 372 462 c 0
 329 462 287 447 265 425 c 0
 251 411 244 397 235 369 c 1
 151 369 l 1
 170 480 255 539 394 539 c 0
 499 539 568 494 568 426 c 0
 568 416 568 416 562 389 c 1
 498 88 l 1
 497 85 497 82 497 78 c 0
 497 58 509 49 535 49 c 0
 539 49 543 49 552 51 c 1
431 164 m 2
 451 258 l 1
 407 243 399 242 305 229 c 0
 256 222 226 214 202 199 c 0
 172 181 153 148 153 115 c 0
 153 73 185 49 242 49 c 0
 330 49 418 102 431 164 c 2
567 696 m 1
 552 627 l 1
 277 627 l 1
 292 696 l 1
 567 696 l 1
EndSplineSet
EndChar
StartChar: Abreve
Encoding: 258 258 191
Width: 667
Flags: W
HStem: 0 21G<17 116 551 653> 219 78<284 513> 709 20G<432 552> 793 72<503 523>
VStem: 377.004 57.9958<892 915>
Fore
524 219 m 1
 239 219 l 1
 116 0 l 1
 17 0 l 1
 432 729 l 1
 552 729 l 1
 653 0 l 1
 551 0 l 1
 524 219 l 1
514 297 m 1
 474 630 l 1
 283 297 l 1
 514 297 l 1
382 928 m 1
 435 928 l 1
 435 920 l 1
 435 915 l 2
 435 885 468 865 517 865 c 0
 576 865 617 888 627 928 c 1
 683 928 l 1
 672 884 661 863 637 842 c 0
 604 812 553 793 504 793 c 0
 429 793 377 833 377 892 c 0
 377 901 378 909 382 928 c 1
EndSplineSet
EndChar
StartChar: abreve
Encoding: 259 259 192
Width: 556
Flags: W
HStem: -22.5409 72.3163<209 242> 462 76.3338<369 385> 594 72<401 418> 709 20G<281 334 526 582>
VStem: 65 88<104 121> 276.004 57.9958<693 716> 477.989 90.0112<398 426>
Fore
552 51 m 1
 539 -14 l 1
 533 -15 527 -16 525 -17 c 0
 500 -23 497 -23 486 -23 c 0
 438 -23 410 2 410 43 c 2
 410 47 l 1
 410 54 l 1
 369 18 354 8 322 -3 c 0
 286 -16 244 -23 209 -23 c 0
 119 -23 65 25 65 105 c 0
 65 163 95 216 147 249 c 0
 196 280 238 290 372 302 c 0
 445 309 464 320 473 361 c 1
 476 379 l 1
 477 387 478 394 478 398 c 0
 478 435 432 462 372 462 c 0
 329 462 287 447 265 425 c 0
 251 411 244 397 235 369 c 1
 151 369 l 1
 170 480 255 539 394 539 c 0
 499 539 568 494 568 426 c 0
 568 416 568 416 562 389 c 1
 498 88 l 1
 497 85 497 82 497 78 c 0
 497 58 509 49 535 49 c 0
 539 49 543 49 552 51 c 1
431 164 m 2
 451 258 l 1
 407 243 399 242 305 229 c 0
 256 222 226 214 202 199 c 0
 172 181 153 148 153 115 c 0
 153 73 185 49 242 49 c 0
 330 49 418 102 431 164 c 2
281 729 m 1
 334 729 l 1
 334 721 l 1
 334 716 l 2
 334 686 367 666 416 666 c 0
 475 666 516 689 526 729 c 1
 582 729 l 1
 571 685 560 664 536 643 c 0
 503 613 452 594 403 594 c 0
 328 594 276 634 276 693 c 0
 276 702 277 710 281 729 c 1
EndSplineSet
EndChar
StartChar: Aogonek
Encoding: 260 260 193
Width: 667
Flags: W
HStem: -205 45<581 597> 0 21G<17 116> 219 78<284 513> 709 20G<432 552>
VStem: 452.006 74.9937<-130 -116>
Fore
524 219 m 1
 226 219 l 1
 116 0 l 1
 17 0 l 1
 432 729 l 1
 552 729 l 1
 653 0 l 1
 564 -39 527 -73 527 -116 c 0
 527 -143 554 -160 595 -160 c 0
 619 -160 643 -157 663 -150 c 1
 654 -195 l 1
 612 -204 605 -205 582 -205 c 0
 502 -205 452 -176 452 -130 c 0
 452 -96 474 -59 509 -35 c 0
 529 -21 545 -13 582 0 c 1
 551 0 l 1
 524 219 l 1
514 297 m 1
 474 630 l 1
 283 297 l 1
 514 297 l 1
EndSplineSet
EndChar
StartChar: aogonek
Encoding: 261 261 194
Width: 556
Flags: W
HStem: -205 45<489 513> -22.5409 72.3163<209 242> 462 76.3338<369 385>
VStem: 65 88<104 117> 360.524 74.4758<-117 -114> 477.989 90.0112<398 426>
Fore
552 51 m 1
 539 -14 l 1
 484 -27 435 -75 435 -116 c 0
 435 -143 462 -160 503 -160 c 0
 527 -160 551 -157 571 -150 c 1
 562 -195 l 1
 522 -204 513 -205 490 -205 c 0
 408 -205 360 -177 360 -128 c 0
 360 -83 384 -56 455 -19 c 1
 425 -10 410 11 410 43 c 2
 410 47 l 1
 410 54 l 1
 369 18 354 8 322 -3 c 0
 286 -16 244 -23 209 -23 c 0
 119 -23 65 25 65 105 c 0
 65 163 95 216 147 249 c 0
 196 280 238 290 372 302 c 0
 445 309 464 320 473 361 c 1
 476 379 l 1
 477 387 478 394 478 398 c 0
 478 435 432 462 372 462 c 0
 329 462 287 447 265 425 c 0
 251 411 244 397 235 369 c 1
 151 369 l 1
 170 480 255 539 394 539 c 0
 499 539 568 494 568 426 c 0
 568 416 568 416 562 389 c 1
 498 88 l 1
 497 85 497 82 497 78 c 0
 497 58 509 49 535 49 c 0
 539 49 543 49 552 51 c 1
431 164 m 2
 451 258 l 1
 407 243 399 242 305 229 c 0
 256 222 226 214 202 199 c 0
 172 181 153 148 153 115 c 0
 153 73 185 49 242 49 c 0
 330 49 418 102 431 164 c 2
EndSplineSet
EndChar
StartChar: Cacute
Encoding: 262 262 195
Width: 722
Flags: W
HStem: -23 81<366 384> 660 81<512 534>
VStem: 112 96<241 268>
Fore
770 503 m 1
 674 503 l 1
 666 611 616 660 515 660 c 0
 423 660 350 617 289 527 c 0
 238 451 208 351 208 260 c 0
 208 139 277 58 381 58 c 0
 460 58 536 95 578 155 c 0
 596 179 612 209 637 266 c 1
 735 266 l 1
 701 185 669 130 630 87 c 0
 565 16 473 -23 367 -23 c 0
 278 -23 215 4 169 62 c 0
 132 109 112 172 112 242 c 0
 112 367 161 505 240 600 c 0
 318 694 415 741 532 741 c 0
 626 741 697 704 738 634 c 0
 757 600 767 562 770 503 c 1
621 939 m 1
 733 939 l 1
 553 791 l 1
 493 791 l 1
 621 939 l 1
EndSplineSet
EndChar
StartChar: cacute
Encoding: 263 263 196
Width: 500
Flags: W
HStem: -23 77<262 284> 462 77<364 383> 720 20G<463 575>
VStem: 76 88<169 185> 467.996 86.004<370 392>
Fore
551 348 m 1
 467 348 l 1
 468 357 468 364 468 370 c 0
 468 427 429 462 366 462 c 0
 305 462 255 432 218 373 c 0
 185 321 164 245 164 181 c 0
 164 103 208 54 277 54 c 0
 349 54 404 98 434 180 c 1
 518 180 l 1
 502 124 486 90 460 60 c 0
 414 6 345 -23 263 -23 c 0
 199 -23 154 -4 120 39 c 0
 92 74 76 123 76 170 c 0
 76 262 110 371 157 432 c 0
 210 501 291 539 381 539 c 0
 438 539 479 524 510 492 c 0
 536 465 554 425 554 392 c 0
 554 389 553 378 552 363 c 2
 551 348 l 1
463 740 m 1
 575 740 l 1
 395 592 l 1
 335 592 l 1
 463 740 l 1
EndSplineSet
EndChar
StartChar: Ccaron
Encoding: 268 268 201
Width: 722
Flags: W
HStem: -23 81<366 384> 660 81<503 534>
VStem: 112 96<241 268>
Fore
770 503 m 1
 674 503 l 1
 666 611 616 660 515 660 c 0
 423 660 350 617 289 527 c 0
 238 451 208 351 208 260 c 0
 208 139 277 58 381 58 c 0
 460 58 536 95 578 155 c 0
 596 179 612 209 637 266 c 1
 735 266 l 1
 701 185 669 130 630 87 c 0
 565 16 473 -23 367 -23 c 0
 278 -23 215 4 169 62 c 0
 132 109 112 172 112 242 c 0
 112 367 161 505 240 600 c 0
 318 694 415 741 532 741 c 0
 626 741 697 704 738 634 c 0
 757 600 767 562 770 503 c 1
596 791 m 1
 501 791 l 1
 437 939 l 1
 500 939 l 1
 556 841 l 1
 660 939 l 1
 724 939 l 1
 596 791 l 1
EndSplineSet
EndChar
StartChar: ccaron
Encoding: 269 269 202
Width: 500
Flags: W
HStem: -23 77<262 284> 462 77<364 383> 720 20G<276 339 499 563>
VStem: 76 88<169 185> 467.996 86.004<370 392>
Fore
551 348 m 1
 467 348 l 1
 468 357 468 364 468 370 c 0
 468 427 429 462 366 462 c 0
 305 462 255 432 218 373 c 0
 185 321 164 245 164 181 c 0
 164 103 208 54 277 54 c 0
 349 54 404 98 434 180 c 1
 518 180 l 1
 502 124 486 90 460 60 c 0
 414 6 345 -23 263 -23 c 0
 199 -23 154 -4 120 39 c 0
 92 74 76 123 76 170 c 0
 76 262 110 371 157 432 c 0
 210 501 291 539 381 539 c 0
 438 539 479 524 510 492 c 0
 536 465 554 425 554 392 c 0
 554 389 553 378 552 363 c 2
 551 348 l 1
435 592 m 1
 340 592 l 1
 276 740 l 1
 339 740 l 1
 395 642 l 1
 499 740 l 1
 563 740 l 1
 435 592 l 1
EndSplineSet
EndChar
StartChar: Dcaron
Encoding: 270 270 203
Width: 722
Flags: W
HStem: 0 82<201 393> 647 82<321 505>
VStem: 663 96<464 496>
Fore
89 0 m 1
 244 729 l 1
 526 729 l 2
 591 729 644 711 682 677 c 0
 729 635 759 561 759 488 c 0
 759 363 711 217 643 134 c 0
 570 45 479 0 371 0 c 2
 89 0 l 1
200 82 m 1
 372 82 l 2
 463 82 539 125 591 205 c 0
 631 268 663 388 663 480 c 0
 663 584 599 647 492 647 c 2
 321 647 l 1
 200 82 l 1
536 791 m 1
 441 791 l 1
 377 939 l 1
 440 939 l 1
 496 841 l 1
 600 939 l 1
 664 939 l 1
 536 791 l 1
EndSplineSet
EndChar
StartChar: dcaron
Encoding: 271 271 204
Width: 650
Flags: W
HStem: -22.9975 76.9975<244 278> 0 21G<414 495> 462 77<345 372> 505.339 37.6606<671 672> 631 98<710 743>
VStem: 73 88<169 201>
Fore
650 729 m 1
 495 0 l 1
 414 0 l 1
 430 76 l 1
 416 48 403 33 373 15 c 0
 333 -9 287 -23 244 -23 c 0
 140 -23 73 53 73 170 c 0
 73 381 197 539 363 539 c 0
 434 539 474 513 506 448 c 1
 566 729 l 1
 650 729 l 1
355 462 m 0
 291 462 243 430 205 361 c 0
 178 310 161 246 161 190 c 0
 161 104 204 54 278 54 c 0
 339 54 388 88 427 155 c 0
 457 207 473 268 473 327 c 0
 473 412 429 462 355 462 c 0
710 729 m 1
 810 729 l 1
 791 636 l 1
 773 554 725 505 662 505 c 1
 670 543 l 1
 709 543 733 572 744 631 c 1
 689 631 l 1
 710 729 l 1
EndSplineSet
EndChar
StartChar: Dcroat
Encoding: 272 272 205
Width: 722
Flags: W
HStem: 0 82<201 393> 341 67<106 160 271 422> 647 82<321 505>
VStem: 663 96<464 496>
Fore
161 341 m 1
 93 341 l 1
 106 408 l 1
 176 408 l 1
 244 729 l 1
 526 729 l 2
 591 729 644 711 682 677 c 0
 729 635 759 561 759 488 c 0
 759 363 711 217 643 134 c 0
 570 45 479 0 371 0 c 2
 89 0 l 1
 161 341 l 1
255 341 m 1
 200 82 l 1
 372 82 l 2
 463 82 539 125 591 205 c 0
 631 268 663 389 663 480 c 0
 663 585 599 647 492 647 c 2
 321 647 l 1
 270 408 l 1
 436 408 l 1
 422 341 l 1
 255 341 l 1
EndSplineSet
EndChar
StartChar: dcroat
Encoding: 273 273 206
Width: 556
Flags: W
HStem: -22.9975 76.9975<244 278> 0 21G<414 495> 462 77<345 372> 600 53<400 537 635 684> 600 129<622 634>
VStem: 73 88<169 192>
Fore
550 653 m 1
 566 729 l 1
 650 729 l 1
 634 653 l 1
 695 653 l 1
 684 600 l 1
 622 600 l 1
 495 0 l 1
 414 0 l 1
 430 76 l 1
 416 48 403 33 373 15 c 0
 333 -9 287 -23 244 -23 c 0
 140 -23 73 53 73 170 c 0
 73 271 107 376 160 440 c 0
 212 503 286 539 363 539 c 0
 433 539 474 513 506 448 c 1
 538 600 l 1
 388 600 l 1
 400 653 l 1
 550 653 l 1
355 462 m 0
 291 462 243 430 205 361 c 0
 178 310 161 246 161 190 c 0
 161 104 204 54 278 54 c 0
 339 54 388 88 427 155 c 0
 457 207 473 268 473 327 c 0
 473 412 429 462 355 462 c 0
EndSplineSet
EndChar
StartChar: Emacron
Encoding: 274 274 207
Width: 667
Flags: W
HStem: 0 82<202 613> 332 82<273 650> 647 82<322 734> 826 69<392 652>
Fore
255 332 m 1
 201 82 l 1
 630 82 l 1
 613 0 l 1
 90 0 l 1
 245 729 l 1
 751 729 l 1
 734 647 l 1
 322 647 l 1
 272 414 l 1
 668 414 l 1
 650 332 l 1
 255 332 l 1
667 895 m 1
 652 826 l 1
 377 826 l 1
 392 895 l 1
 667 895 l 1
EndSplineSet
EndChar
StartChar: emacron
Encoding: 275 275 208
Width: 556
Flags: W
HStem: -23 77<281 298> 234 72<196 489> 462 77<372 391> 627 69<288 548>
VStem: 84 88<169 190> 491.902 87.17<339 368>
Fore
563 234 m 1
 177 234 l 1
 173 219 172 209 172 188 c 0
 172 103 217 54 296 54 c 0
 363 54 416 90 452 159 c 1
 536 159 l 1
 505 51 402 -23 282 -23 c 0
 225 -23 181 -7 146 27 c 0
 107 64 84 119 84 173 c 0
 84 254 121 368 168 431 c 0
 218 498 302 539 389 539 c 0
 497 539 580 464 580 368 c 0
 580 341 575 299 566 251 c 2
 563 234 l 1
195 306 m 1
 489 306 l 1
 491 322 492 329 492 339 c 0
 492 414 447 462 376 462 c 0
 295 462 221 398 195 306 c 1
563 696 m 1
 548 627 l 1
 273 627 l 1
 288 696 l 1
 563 696 l 1
EndSplineSet
EndChar
StartChar: Edotaccent
Encoding: 278 278 211
Width: 667
Flags: W
HStem: 0 82<202 613> 332 82<273 650> 647 82<322 734> 811 103<481 563>
Fore
255 332 m 1
 201 82 l 1
 630 82 l 1
 613 0 l 1
 90 0 l 1
 245 729 l 1
 751 729 l 1
 734 647 l 1
 322 647 l 1
 272 414 l 1
 668 414 l 1
 650 332 l 1
 255 332 l 1
585 914 m 1
 563 811 l 1
 459 811 l 1
 481 914 l 1
 585 914 l 1
EndSplineSet
EndChar
StartChar: edotaccent
Encoding: 279 279 212
Width: 556
Flags: W
HStem: -23 77<281 298> 234 72<196 489> 462 77<372 391> 612 103<378 460>
VStem: 84 88<169 190> 491.902 87.17<339 368>
Fore
563 234 m 1
 177 234 l 1
 173 219 172 209 172 188 c 0
 172 103 217 54 296 54 c 0
 363 54 416 90 452 159 c 1
 536 159 l 1
 505 51 402 -23 282 -23 c 0
 225 -23 181 -7 146 27 c 0
 107 64 84 119 84 173 c 0
 84 254 121 368 168 431 c 0
 218 498 302 539 389 539 c 0
 497 539 580 464 580 368 c 0
 580 341 575 299 566 251 c 2
 563 234 l 1
195 306 m 1
 489 306 l 1
 491 322 492 329 492 339 c 0
 492 414 447 462 376 462 c 0
 295 462 221 398 195 306 c 1
482 715 m 1
 460 612 l 1
 356 612 l 1
 378 715 l 1
 482 715 l 1
EndSplineSet
EndChar
StartChar: Eogonek
Encoding: 280 280 213
Width: 667
Flags: W
HStem: -205 45<541 557> 0 82<202 541> 332 82<273 650> 647 82<322 734>
VStem: 412.006 74.9937<-130 -116>
Fore
255 332 m 1
 201 82 l 1
 630 82 l 1
 613 0 l 1
 551 -29 539 -37 522 -52 c 0
 499 -73 487 -94 487 -116 c 0
 487 -142 514 -160 555 -160 c 0
 579 -160 603 -157 623 -150 c 1
 614 -195 l 1
 572 -204 565 -205 542 -205 c 0
 462 -205 412 -176 412 -130 c 0
 412 -96 434 -59 469 -35 c 0
 489 -21 505 -14 542 0 c 1
 90 0 l 1
 245 729 l 1
 751 729 l 1
 734 647 l 1
 322 647 l 1
 272 414 l 1
 668 414 l 1
 650 332 l 1
 255 332 l 1
EndSplineSet
EndChar
StartChar: eogonek
Encoding: 281 281 214
Width: 556
Flags: W
HStem: -205 45<386 404> -23 77<279 298> 234 72<196 489> 462 77<372 393>
VStem: 84 88<172 195> 253.722 73.2781<-115 -113> 491.287 88.3854<339 368>
Fore
464 -150 m 1
 455 -195 l 1
 434 -202 416 -205 387 -205 c 0
 351 -205 310 -197 289 -186 c 0
 265 -174 253 -154 253 -127 c 0
 253 -86 276 -58 346 -16 c 1
 314 -22 300 -23 280 -23 c 0
 225 -23 181 -7 146 27 c 0
 107 64 84 119 84 173 c 0
 84 254 121 368 168 431 c 0
 218 498 302 539 389 539 c 0
 497 539 580 464 580 368 c 0
 580 341 575 299 566 251 c 2
 563 234 l 1
 177 234 l 1
 173 219 172 209 172 188 c 0
 172 103 217 54 296 54 c 0
 363 54 416 90 452 159 c 1
 536 159 l 1
 520 100 479 50 395 -14 c 0
 354 -46 327 -86 327 -114 c 0
 327 -141 355 -160 394 -160 c 0
 421 -160 446 -156 464 -150 c 1
195 306 m 1
 489 306 l 1
 491 322 492 329 492 339 c 0
 492 414 447 462 376 462 c 0
 295 462 221 398 195 306 c 1
EndSplineSet
EndChar
StartChar: Ecaron
Encoding: 282 282 215
Width: 667
Flags: W
HStem: 0 82<202 613> 332 82<273 650> 647 82<322 734>
Fore
255 332 m 1
 201 82 l 1
 630 82 l 1
 613 0 l 1
 90 0 l 1
 245 729 l 1
 751 729 l 1
 734 647 l 1
 322 647 l 1
 272 414 l 1
 668 414 l 1
 650 332 l 1
 255 332 l 1
555 791 m 1
 460 791 l 1
 396 939 l 1
 459 939 l 1
 515 841 l 1
 619 939 l 1
 683 939 l 1
 555 791 l 1
EndSplineSet
EndChar
StartChar: ecaron
Encoding: 283 283 216
Width: 556
Flags: W
HStem: -23 77<281 298> 234 72<196 489> 462 77<372 391> 720 20G<291 354 514 578>
VStem: 84 88<169 190> 491.902 87.17<339 368>
Fore
563 234 m 1
 177 234 l 1
 173 219 172 209 172 188 c 0
 172 103 217 54 296 54 c 0
 363 54 416 90 452 159 c 1
 536 159 l 1
 505 51 402 -23 282 -23 c 0
 225 -23 181 -7 146 27 c 0
 107 64 84 119 84 173 c 0
 84 254 121 368 168 431 c 0
 218 498 302 539 389 539 c 0
 497 539 580 464 580 368 c 0
 580 341 575 299 566 251 c 2
 563 234 l 1
195 306 m 1
 489 306 l 1
 491 322 492 329 492 339 c 0
 492 414 447 462 376 462 c 0
 295 462 221 398 195 306 c 1
450 592 m 1
 355 592 l 1
 291 740 l 1
 354 740 l 1
 410 642 l 1
 514 740 l 1
 578 740 l 1
 450 592 l 1
EndSplineSet
EndChar
StartChar: Gbreve
Encoding: 286 286 219
Width: 778
Flags: W
HStem: -22.497 80.8346<378 411> 303 82<489 692> 660 81<525 557> 793 72<564 580>
VStem: 109 96<260 281> 438.004 57.9958<892 915> 718 91<508.063 526>
Fore
793 385 m 1
 710 -4 l 1
 651 -4 l 1
 647 86 l 1
 609 54 590 40 566 26 c 0
 512 -5 443 -23 378 -23 c 0
 310 -23 245 -2 199 36 c 0
 143 81 109 167 109 261 c 0
 109 391 167 527 263 623 c 0
 341 701 439 741 555 741 c 0
 712 741 809 658 809 525 c 2
 809 519 l 1
 809 515 l 1
 809 508 l 1
 718 508 l 1
 717 554 707 581 681 607 c 0
 648 642 598 660 537 660 c 0
 440 660 354 617 293 538 c 0
 240 468 205 365 205 277 c 0
 205 220 219 167 242 132 c 0
 273 86 337 58 411 58 c 0
 480 58 538 79 592 123 c 0
 643 165 672 211 687 277 c 2
 693 303 l 1
 471 303 l 1
 489 385 l 1
 793 385 l 1
443 928 m 1
 496 928 l 1
 496 920 l 1
 496 915 l 2
 496 885 529 865 578 865 c 0
 637 865 678 888 688 928 c 1
 744 928 l 1
 733 884 722 863 698 842 c 0
 665 812 614 793 565 793 c 0
 490 793 438 833 438 892 c 0
 438 901 439 909 443 928 c 1
EndSplineSet
EndChar
StartChar: gbreve
Encoding: 287 287 220
Width: 556
Flags: W
HStem: -218 72<207 228> -16.8153 72.6922<247 271> 462 77<352 371> 504 20G<525 601> 594 72<405 425> 709 20G<288 341 533 589>
VStem: 33 85<-75 -73> 74 88<166 186> 283.004 57.9958<693 716>
Fore
525 524 m 1
 601 524 l 1
 508 85 l 2
 481 -42 454 -103 404 -151 c 0
 359 -194 288 -218 209 -218 c 0
 102 -218 32 -168 32 -91 c 0
 32 -87 32 -81 33 -73 c 1
 34 -60 l 1
 118 -60 l 1
 118 -68 l 1
 118 -74 l 2
 118 -119 158 -146 226 -146 c 0
 332 -146 386 -92 415 44 c 2
 419 63 l 1
 369 10 310 -17 247 -17 c 0
 145 -17 74 59 74 168 c 0
 74 260 112 373 165 439 c 0
 214 501 292 539 369 539 c 0
 403 539 435 528 461 509 c 0
 483 493 493 479 508 446 c 1
 525 524 l 1
363 462 m 0
 300 462 244 425 208 360 c 0
 179 308 162 244 162 184 c 0
 162 105 204 55 271 55 c 0
 331 55 390 93 423 154 c 0
 451 203 469 277 469 339 c 0
 469 414 427 462 363 462 c 0
288 729 m 1
 341 729 l 1
 341 721 l 1
 341 716 l 2
 341 686 374 666 423 666 c 0
 482 666 523 689 533 729 c 1
 589 729 l 1
 578 685 567 664 543 643 c 0
 510 613 459 594 410 594 c 0
 335 594 283 634 283 693 c 0
 283 702 284 710 288 729 c 1
EndSplineSet
EndChar
StartChar: Gcommaaccent
Encoding: 290 290 223
Width: 778
Flags: W
HStem: -283.661 37.6606<292 295> -158 98<331 364> -22.497 80.8346<378 411> 303 82<489 692> 660 81<525 557>
VStem: 109 96<260 279> 718 91<508.063 526>
Fore
793 385 m 1
 710 -4 l 1
 651 -4 l 1
 647 86 l 1
 609 54 590 40 566 26 c 0
 512 -5 443 -23 378 -23 c 0
 310 -23 245 -2 199 36 c 0
 143 81 109 167 109 261 c 0
 109 391 167 527 263 623 c 0
 341 701 439 741 555 741 c 0
 712 741 809 658 809 525 c 2
 809 519 l 1
 809 515 l 1
 809 508 l 1
 718 508 l 1
 717 554 707 581 681 607 c 0
 648 642 598 660 537 660 c 0
 440 660 354 617 293 538 c 0
 240 468 205 365 205 277 c 0
 205 220 219 167 242 132 c 0
 273 86 337 58 411 58 c 0
 480 58 538 79 592 123 c 0
 643 165 672 211 687 277 c 2
 693 303 l 1
 471 303 l 1
 489 385 l 1
 793 385 l 1
331 -60 m 1
 431 -60 l 1
 412 -153 l 1
 394 -235 346 -284 283 -284 c 1
 291 -246 l 1
 330 -246 354 -217 365 -158 c 1
 310 -158 l 1
 331 -60 l 1
EndSplineSet
EndChar
StartChar: gcommaaccent
Encoding: 291 291 224
Width: 527
Flags: W
HStem: -218 72<178 199> -16.8153 72.6922<218 242> 462 77<323 349> 504 20G<496 572> 589 98<397 430> 775 37.4899<467 470>
VStem: 4 85<-75 -73> 45 88<166 186>
Fore
496 524 m 1
 572 524 l 1
 479 85 l 2
 452 -42 425 -103 375 -151 c 0
 330 -194 259 -218 180 -218 c 0
 73 -218 3 -168 3 -91 c 0
 3 -87 3 -81 4 -73 c 1
 5 -60 l 1
 89 -60 l 1
 89 -68 l 1
 89 -74 l 2
 89 -119 129 -146 197 -146 c 0
 303 -146 357 -92 386 44 c 2
 390 63 l 1
 340 10 281 -17 218 -17 c 0
 116 -17 45 59 45 168 c 0
 45 260 83 373 136 439 c 0
 185 501 263 539 340 539 c 0
 374 539 406 528 432 509 c 0
 454 493 464 479 479 446 c 1
 496 524 l 1
334 462 m 0
 271 462 215 425 179 360 c 0
 150 308 133 244 133 184 c 0
 133 105 175 55 242 55 c 0
 302 55 361 93 394 154 c 0
 422 203 440 277 440 339 c 0
 440 414 398 462 334 462 c 0
430 589 m 1
 330 589 l 1
 350 682 l 2
 368 764 415 813 478 813 c 1
 470 775 l 1
 431 775 407 746 396 687 c 1
 451 687 l 1
 430 589 l 1
EndSplineSet
EndChar
StartChar: Hbar
Encoding: 294 294 227
Width: 722
Flags: W
HStem: 0 21G<6 100 474 567> 332 82<187 544> 506 70<83 113 221 581 689 718> 709 20G<160 253 628 721>
Fore
206 504 m 1
 187 414 l 1
 562 414 l 1
 581 504 l 1
 206 504 l 1
128 576 m 1
 160 729 l 1
 253 729 l 1
 221 576 l 1
 596 576 l 1
 628 729 l 1
 721 729 l 1
 689 576 l 1
 733 576 l 1
 718 506 l 1
 674 506 l 1
 567 0 l 1
 474 0 l 1
 544 332 l 1
 170 332 l 1
 100 0 l 1
 6 0 l 1
 113 506 l 1
 69 506 l 1
 84 576 l 1
 128 576 l 1
EndSplineSet
EndChar
StartChar: hbar
Encoding: 295 295 228
Width: 556
Flags: W
HStem: 0 21G<-7 76 326 409> 466 73<317 358> 600 53<67 120 214 353> 709 20G<147 230>
Fore
214 653 m 1
 364 653 l 1
 353 600 l 1
 203 600 l 1
 172 452 l 1
 234 516 284 539 358 539 c 0
 446 539 496 498 496 430 c 0
 496 419 495 408 493 396 c 2
 409 0 l 1
 326 0 l 1
 403 363 l 2
 405 374 406 384 406 393 c 0
 406 441 363 466 317 466 c 0
 231 466 160 396 137 289 c 2
 76 0 l 1
 -7 0 l 1
 120 600 l 1
 57 600 l 1
 68 653 l 1
 131 653 l 1
 147 729 l 1
 230 729 l 1
 214 653 l 1
EndSplineSet
EndChar
StartChar: Imacron
Encoding: 298 298 231
Width: 278
Flags: W
HStem: 0 21G<100 194> 709 20G<255 349> 826 69<211 443>
Fore
349 729 m 1
 194 0 l 1
 100 0 l 1
 255 729 l 1
 349 729 l 1
458 895 m 1
 443 826 l 1
 195 826 l 1
 211 895 l 1
 458 895 l 1
EndSplineSet
EndChar
StartChar: imacron
Encoding: 299 299 232
Width: 222
Flags: W
HStem: 0 21G<66 150> 504 20G<177 261> 627 69<139 358>
Fore
261 524 m 1
 150 0 l 1
 66 0 l 1
 177 524 l 1
 261 524 l 1
373 696 m 1
 358 627 l 1
 124 627 l 1
 139 696 l 1
 373 696 l 1
EndSplineSet
EndChar
StartChar: Iogonek
Encoding: 302 302 235
Width: 278
Flags: W
HStem: -204.654 45.6536<156 163> 709 20G<255 349>
VStem: 28.8533 74.1467<-116 -115>
Fore
349 729 m 1
 194 0 l 1
 189 -4 184 -8 178 -12 c 0
 128 -51 103 -86 103 -115 c 0
 103 -142 127 -159 163 -159 c 0
 178 -159 184 -158 209 -150 c 1
 200 -195 l 1
 176 -203 164 -205 143 -205 c 0
 76 -205 28 -174 28 -129 c 0
 28 -96 43 -71 85 -35 c 0
 103 -20 112 -13 135 0 c 1
 100 0 l 1
 255 729 l 1
 349 729 l 1
EndSplineSet
EndChar
StartChar: iogonek
Encoding: 303 303 236
Width: 222
Flags: W
HStem: -204.997 45.9969<102 128> 504 20G<177 261> 626 103<221 282>
VStem: 0.0668501 72.9332<-128 -116>
Fore
261 524 m 1
 150 0 l 1
 105 -35 73 -84 73 -116 c 0
 73 -142 94 -159 128 -159 c 0
 140 -159 142 -158 164 -150 c 1
 155 -195 l 1
 133 -202 120 -205 102 -205 c 0
 42 -205 0 -173 0 -128 c 0
 0 -88 36 -42 100 0 c 1
 66 0 l 1
 177 524 l 1
 261 524 l 1
305 729 m 1
 282 626 l 1
 198 626 l 1
 221 729 l 1
 305 729 l 1
EndSplineSet
EndChar
StartChar: Idotaccent
Encoding: 304 304 237
Width: 278
Flags: W
HStem: 0 21G<100 194> 709 20G<255 349> 811 103<285 367>
Fore
349 729 m 1
 194 0 l 1
 100 0 l 1
 255 729 l 1
 349 729 l 1
389 914 m 1
 367 811 l 1
 263 811 l 1
 285 914 l 1
 389 914 l 1
EndSplineSet
EndChar
StartChar: dotlessi
Encoding: 305 305 238
Width: 278
Flags: HW
HStem: 0 21G<94 178> 507 20G<206 290>
Fore
289.361 524 m 1
 178.361 0 l 1
 94.3613 0 l 1
 205.361 524 l 1
 289.361 524 l 1
EndSplineSet
EndChar
StartChar: jcircumflex
Encoding: 309 309 242
Width: 222
HStem: -217.878 71.8777<-33 -17> 504 20G<180 264>
Fore
180 524 m 1
 264 524 l 1
 130 -109 l 1
 112 -191 69 -218 -46 -218 c 0
 -55 -218 -58 -217 -65 -215 c 1
 -50 -144 l 1
 -32 -146 -30 -146 -25 -146 c 0
 26 -146 41 -132 53 -76 c 2
 180 524 l 1
227.811 828 m 1
 322.811 828 l 1
 386.811 678 l 1
 323.811 678 l 1
 267.811 777 l 1
 163.811 678 l 1
 99.8105 678 l 1
 227.811 828 l 1
EndSplineSet
EndChar
StartChar: Kcommaaccent
Encoding: 310 310 243
Width: 667
Flags: W
HStem: -283.661 37.6606<247 250> -158 98<286 319> 0 21G<79 173 548 658> 709 20G<234 328 693 813>
Fore
226 249 m 1
 173 0 l 1
 79 0 l 1
 234 729 l 1
 328 729 l 1
 249 356 l 1
 693 729 l 1
 813 729 l 1
 452 431 l 1
 658 0 l 1
 548 0 l 1
 380 376 l 1
 226 249 l 1
286 -60 m 1
 386 -60 l 1
 367 -153 l 1
 349 -235 301 -284 238 -284 c 1
 246 -246 l 1
 285 -246 309 -217 320 -158 c 1
 265 -158 l 1
 286 -60 l 1
EndSplineSet
EndChar
StartChar: kcommaaccent
Encoding: 311 311 244
Width: 500
Flags: W
HStem: -283.661 37.6606<168 170> -158 98<207 240> 0 21G<58 142 406 502> 504 20G<476 584> 709 20G<213 297>
Fore
297 729 m 1
 207 306 l 1
 476 524 l 1
 584 524 l 1
 362 343 l 1
 502 0 l 1
 406 0 l 1
 292 291 l 1
 185 203 l 1
 142 0 l 1
 58 0 l 1
 213 729 l 1
 297 729 l 1
207 -60 m 1
 307 -60 l 1
 288 -153 l 1
 270 -235 222 -284 159 -284 c 1
 167 -246 l 1
 206 -246 230 -217 241 -158 c 1
 186 -158 l 1
 207 -60 l 1
EndSplineSet
EndChar
StartChar: kgreenlandic
Encoding: 312 312 245
Width: 510
Flags: W
HStem: 0 21G<70 153 411 514> 504 20G<181 264 486 593>
Fore
264 524 m 1
 217 302 l 1
 486 524 l 1
 593 524 l 1
 266 264 l 1
 514 0 l 1
 411 0 l 1
 199 216 l 1
 153 0 l 1
 70 0 l 1
 181 524 l 1
 264 524 l 1
EndSplineSet
EndChar
StartChar: Lacute
Encoding: 313 313 246
Width: 556
Flags: W
HStem: 0 82<192 534> 709 20G<235 329>
Fore
329 729 m 1
 191 82 l 1
 551 82 l 1
 534 0 l 1
 80 0 l 1
 235 729 l 1
 329 729 l 1
368 939 m 1
 480 939 l 1
 300 791 l 1
 240 791 l 1
 368 939 l 1
EndSplineSet
EndChar
StartChar: lacute
Encoding: 314 314 247
Width: 222
Flags: W
HStem: 0 21G<68 152> 709 20G<223 307>
Fore
307 729 m 1
 152 0 l 1
 68 0 l 1
 223 729 l 1
 307 729 l 1
351 939 m 1
 463 939 l 1
 283 791 l 1
 223 791 l 1
 351 939 l 1
EndSplineSet
EndChar
StartChar: Lcommaaccent
Encoding: 315 315 248
Width: 556
Flags: W
HStem: -283.661 37.6606<205 208> -158 98<244 277> 0 82<192 534> 709 20G<235 329>
Fore
329 729 m 1
 191 82 l 1
 551 82 l 1
 534 0 l 1
 80 0 l 1
 235 729 l 1
 329 729 l 1
244 -60 m 1
 344 -60 l 1
 325 -153 l 1
 307 -235 259 -284 196 -284 c 1
 204 -246 l 1
 243 -246 267 -217 278 -158 c 1
 223 -158 l 1
 244 -60 l 1
EndSplineSet
EndChar
StartChar: lcommaaccent
Encoding: 316 316 249
Width: 222
Flags: W
HStem: -283.661 37.6606<8 9> -158 98<47 80> 0 21G<68 152> 709 20G<223 307>
Fore
307 729 m 1
 152 0 l 1
 68 0 l 1
 223 729 l 1
 307 729 l 1
47 -60 m 1
 147 -60 l 1
 128 -153 l 1
 110 -235 62 -284 -1 -284 c 1
 7 -246 l 1
 46 -246 70 -217 81 -158 c 1
 26 -158 l 1
 47 -60 l 1
EndSplineSet
EndChar
StartChar: Lcaron
Encoding: 317 317 250
Width: 556
Flags: W
HStem: 0 82<192 534> 505.339 37.6606<390 391> 631 98<429 462>
Fore
329 729 m 1
 191 82 l 1
 551 82 l 1
 534 0 l 1
 80 0 l 1
 235 729 l 1
 329 729 l 1
429 729 m 1
 529 729 l 1
 510 636 l 1
 492 554 444 505 381 505 c 1
 389 543 l 1
 428 543 452 572 463 631 c 1
 408 631 l 1
 429 729 l 1
EndSplineSet
EndChar
StartChar: lcaron
Encoding: 318 318 251
Width: 307
Flags: W
HStem: 0 21G<68 152> 505.339 37.6606<328 329> 631 98<367 400>
Fore
307 729 m 1
 152 0 l 1
 68 0 l 1
 223 729 l 1
 307 729 l 1
367 729 m 1
 467 729 l 1
 448 636 l 1
 430 554 382 505 319 505 c 1
 327 543 l 1
 366 543 390 572 401 631 c 1
 346 631 l 1
 367 729 l 1
EndSplineSet
EndChar
StartChar: Lslash
Encoding: 321 321 254
Width: 556
Flags: W
HStem: 0 82<212 552> 709 20G<255 349>
Fore
261 315 m 1
 211 82 l 1
 570 82 l 1
 552 0 l 1
 100 0 l 1
 158 276 l 1
 75 225 l 1
 92 304 l 1
 175 355 l 1
 255 729 l 1
 349 729 l 1
 278 394 l 1
 474 512 l 1
 457 433 l 1
 261 315 l 1
EndSplineSet
EndChar
StartChar: lslash
Encoding: 322 322 255
Width: 222
Flags: W
HStem: 0 21G<67 151> 709 20G<222 306>
Fore
239 414 m 1
 312 456 l 1
 298 389 l 1
 225 347 l 1
 151 0 l 1
 67 0 l 1
 134 314 l 1
 62 270 l 1
 76 337 l 1
 149 382 l 1
 222 729 l 1
 306 729 l 1
 239 414 l 1
EndSplineSet
EndChar
StartChar: Nacute
Encoding: 323 323 256
Width: 722
Flags: W
HStem: 0 21G<76 165 540 646> 709 20G<231 335 712 801>
Fore
801 729 m 1
 646 0 l 1
 540 0 l 1
 291 591 l 1
 165 0 l 1
 76 0 l 1
 231 729 l 1
 335 729 l 1
 585 131 l 1
 712 729 l 1
 801 729 l 1
594 939 m 1
 706 939 l 1
 526 791 l 1
 466 791 l 1
 594 939 l 1
EndSplineSet
EndChar
StartChar: nacute
Encoding: 324 324 257
Width: 556
Flags: W
HStem: 0 21G<70 154 406 490> 466.995 72.0047<399 438> 504 20G<181 257> 720 20G<468 580>
VStem: 485.994 88.0059<386 414>
Fore
181 524 m 1
 257 524 l 1
 244 459 l 1
 296 512 362 539 438 539 c 0
 521 539 574 490 574 414 c 0
 574 401 573 389 570 376 c 1
 490 0 l 1
 406 0 l 1
 480 349 l 1
 484 365 486 380 486 386 c 0
 486 432 449 467 399 467 c 0
 309 467 239 399 215 289 c 1
 154 0 l 1
 70 0 l 1
 181 524 l 1
468 740 m 1
 580 740 l 1
 400 592 l 1
 340 592 l 1
 468 740 l 1
EndSplineSet
EndChar
StartChar: Ncommaaccent
Encoding: 325 325 258
Width: 722
Flags: W
HStem: -283.661 37.6606<243 244> -158 98<282 315> 0 21G<76 165 540 646> 709 20G<231 335 712 801>
Fore
801 729 m 1
 646 0 l 1
 540 0 l 1
 291 591 l 1
 165 0 l 1
 76 0 l 1
 231 729 l 1
 335 729 l 1
 585 131 l 1
 712 729 l 1
 801 729 l 1
282 -60 m 1
 382 -60 l 1
 363 -153 l 1
 345 -235 297 -284 234 -284 c 1
 242 -246 l 1
 281 -246 305 -217 316 -158 c 1
 261 -158 l 1
 282 -60 l 1
EndSplineSet
EndChar
StartChar: ncommaaccent
Encoding: 326 326 259
Width: 556
Flags: W
HStem: -283.661 37.6606<178 183> -158 98<217 250> 0 21G<70 154 406 490> 466.995 72.0047<399 438> 504 20G<181 257>
VStem: 485.994 88.0059<386 414>
Fore
181 524 m 1
 257 524 l 1
 244 459 l 1
 296 512 362 539 438 539 c 0
 521 539 574 490 574 414 c 0
 574 401 573 389 570 376 c 1
 490 0 l 1
 406 0 l 1
 480 349 l 1
 484 365 486 380 486 386 c 0
 486 432 449 467 399 467 c 0
 309 467 239 399 215 289 c 1
 154 0 l 1
 70 0 l 1
 181 524 l 1
217 -60 m 1
 317 -60 l 1
 298 -153 l 1
 280 -235 232 -284 169 -284 c 1
 177 -246 l 1
 216 -246 240 -217 251 -158 c 1
 196 -158 l 1
 217 -60 l 1
EndSplineSet
EndChar
StartChar: Ncaron
Encoding: 327 327 260
Width: 722
Flags: W
HStem: 0 21G<76 165 540 646> 709 20G<231 335 712 801>
Fore
801 729 m 1
 646 0 l 1
 540 0 l 1
 291 591 l 1
 165 0 l 1
 76 0 l 1
 231 729 l 1
 335 729 l 1
 585 131 l 1
 712 729 l 1
 801 729 l 1
570 791 m 1
 475 791 l 1
 411 939 l 1
 474 939 l 1
 530 841 l 1
 634 939 l 1
 698 939 l 1
 570 791 l 1
EndSplineSet
EndChar
StartChar: ncaron
Encoding: 328 328 261
Width: 556
Flags: W
HStem: 0 21G<70 154 406 490> 466.995 72.0047<399 438> 504 20G<181 257> 720 20G<291 354 514 578>
VStem: 485.994 88.0059<386 414>
Fore
181 524 m 1
 257 524 l 1
 244 459 l 1
 296 512 362 539 438 539 c 0
 521 539 574 490 574 414 c 0
 574 401 573 389 570 376 c 1
 490 0 l 1
 406 0 l 1
 480 349 l 1
 484 365 486 380 486 386 c 0
 486 432 449 467 399 467 c 0
 309 467 239 399 215 289 c 1
 154 0 l 1
 70 0 l 1
 181 524 l 1
450 592 m 1
 355 592 l 1
 291 740 l 1
 354 740 l 1
 410 642 l 1
 514 740 l 1
 578 740 l 1
 450 592 l 1
EndSplineSet
EndChar
StartChar: napostrophe
Encoding: 329 329 262
Width: 556
Flags: W
HStem: 0 21G<70 154 406 490> 466.995 72.0047<399 438> 504 20G<181 257>
VStem: 485.994 88.0059<386 414>
Fore
181 524 m 1
 257 524 l 1
 244 459 l 1
 296 512 362 539 438 539 c 0
 521 539 574 490 574 414 c 0
 574 401 573 389 570 376 c 1
 490 0 l 1
 406 0 l 1
 480 349 l 1
 484 365 486 380 486 386 c 0
 486 432 449 467 399 467 c 0
 309 467 239 399 215 289 c 1
 154 0 l 1
 70 0 l 1
 181 524 l 1
EndSplineSet
EndChar
StartChar: Eng
Encoding: 330 330 263
Width: 722
Flags: W
HStem: 0 21G<76 165 540 646> 709 20G<231 335 712 801>
Fore
801 729 m 1
 646 0 l 1
 540 0 l 1
 291 591 l 1
 165 0 l 1
 76 0 l 1
 231 729 l 1
 335 729 l 1
 585 131 l 1
 712 729 l 1
 801 729 l 1
EndSplineSet
EndChar
StartChar: eng
Encoding: 331 331 264
Width: 556
Flags: W
HStem: 0 21G<70 154 406 490> 466.995 72.0047<399 438> 504 20G<181 257>
VStem: 485.994 88.0059<386 414>
Fore
181 524 m 1
 257 524 l 1
 244 459 l 1
 296 512 362 539 438 539 c 0
 521 539 574 490 574 414 c 0
 574 401 573 389 570 376 c 1
 490 0 l 1
 406 0 l 1
 480 349 l 1
 484 365 486 380 486 386 c 0
 486 432 449 467 399 467 c 0
 309 467 239 399 215 289 c 1
 154 0 l 1
 70 0 l 1
 181 524 l 1
EndSplineSet
EndChar
StartChar: Omacron
Encoding: 332 332 265
Width: 778
Flags: W
HStem: -23 81<390 422> 660 81<520 539> 826 69<438 698>
VStem: 104 96<249 281> 732 96<441 466>
Fore
537 741 m 0
 628 741 707 713 756 664 c 0
 800 619 828 543 828 464 c 0
 828 306 752 144 635 54 c 0
 570 4 485 -23 391 -23 c 0
 306 -23 225 6 177 54 c 0
 131 100 104 177 104 263 c 0
 104 390 157 522 246 614 c 0
 327 699 424 741 537 741 c 0
525 660 m 0
 431 660 342 613 284 533 c 0
 231 460 200 363 200 271 c 0
 200 213 214 164 241 130 c 0
 276 86 339 58 404 58 c 0
 501 58 589 104 647 185 c 0
 700 257 732 355 732 446 c 0
 732 505 718 553 691 588 c 0
 657 632 593 660 525 660 c 0
713 895 m 1
 698 826 l 1
 423 826 l 1
 438 895 l 1
 713 895 l 1
EndSplineSet
EndChar
StartChar: omacron
Encoding: 333 333 266
Width: 556
Flags: W
HStem: -23 77<268 288> 462 77<368 386> 627 69<284 544>
VStem: 80 88<164 186> 488 88<329 353>
Fore
384 539 m 0
 442 539 487 523 521 490 c 0
 556 456 576 405 576 352 c 0
 576 265 543 156 497 93 c 0
 441 16 365 -23 269 -23 c 0
 157 -23 80 53 80 164 c 0
 80 249 113 359 158 423 c 0
 209 497 291 539 384 539 c 0
371 462 m 0
 305 462 249 425 212 357 c 0
 185 307 168 241 168 184 c 0
 168 104 212 54 283 54 c 0
 352 54 406 90 444 159 c 0
 471 209 488 274 488 333 c 0
 488 414 445 462 371 462 c 0
559 696 m 1
 544 627 l 1
 269 627 l 1
 284 696 l 1
 559 696 l 1
EndSplineSet
EndChar
StartChar: Ohungarumlaut
Encoding: 336 336 269
Width: 778
Flags: W
HStem: -23 81<390 408> 660 81<520 539>
VStem: 104 96<249 281> 732 96<441 466>
Fore
537 741 m 0
 628 741 707 713 756 664 c 0
 800 619 828 543 828 464 c 0
 828 306 752 144 635 54 c 0
 570 4 485 -23 391 -23 c 0
 306 -23 225 6 177 54 c 0
 131 100 104 177 104 263 c 0
 104 390 157 522 246 614 c 0
 327 699 424 741 537 741 c 0
525 660 m 0
 431 660 342 613 284 533 c 0
 231 460 200 363 200 271 c 0
 200 213 214 164 241 130 c 0
 276 86 339 58 404 58 c 0
 501 58 589 104 647 185 c 0
 700 257 732 355 732 446 c 0
 732 505 718 553 691 588 c 0
 657 632 593 660 525 660 c 0
555 939 m 1
 667 939 l 1
 487 789 l 1
 427 789 l 1
 555 939 l 1
729 939 m 1
 841 939 l 1
 661 789 l 1
 601 789 l 1
 729 939 l 1
EndSplineSet
EndChar
StartChar: ohungarumlaut
Encoding: 337 337 270
Width: 556
Flags: W
HStem: -23 77<268 288> 462 77<368 386> 720 20G<397 509 571 683>
VStem: 80 88<164 186> 488 88<329 353>
Fore
384 539 m 0
 442 539 487 523 521 490 c 0
 556 456 576 405 576 352 c 0
 576 265 543 156 497 93 c 0
 441 16 365 -23 269 -23 c 0
 157 -23 80 53 80 164 c 0
 80 249 113 359 158 423 c 0
 209 497 291 539 384 539 c 0
371 462 m 0
 305 462 249 425 212 357 c 0
 185 307 168 241 168 184 c 0
 168 104 212 54 283 54 c 0
 352 54 406 90 444 159 c 0
 471 209 488 274 488 333 c 0
 488 414 445 462 371 462 c 0
397 740 m 1
 509 740 l 1
 329 590 l 1
 269 590 l 1
 397 740 l 1
571 740 m 1
 683 740 l 1
 503 590 l 1
 443 590 l 1
 571 740 l 1
EndSplineSet
EndChar
StartChar: OE
Encoding: 338 338 271
Width: 1000
Flags: W
HStem: -23 81<332 357> 0 82<635 957> 327 82<705 1013> 647 82<755 1091> 660 81<479 501>
VStem: 101 96<201 249>
Fore
687 327 m 1
 634 82 l 1
 974 82 l 1
 957 0 l 1
 523 0 l 1
 539 77 l 1
 482 7 419 -23 332 -23 c 0
 193 -23 101 73 101 219 c 0
 101 359 158 529 235 616 c 0
 304 693 404 741 496 741 c 0
 579 741 631 714 662 653 c 1
 678 729 l 1
 1108 729 l 1
 1091 647 l 1
 755 647 l 1
 704 409 l 1
 1031 409 l 1
 1013 327 l 1
 687 327 l 1
562 182 m 1
 638 539 l 1
 619 621 568 660 480 660 c 0
 393 660 320 613 269 523 c 0
 229 454 197 318 197 222 c 0
 197 120 256 58 352 58 c 0
 436 58 505 99 562 182 c 1
EndSplineSet
EndChar
StartChar: oe
Encoding: 339 339 272
Width: 944
Flags: W
HStem: -23 77<274 293 666 685> 234 72<582 875> 462 77<370 388 757 777>
VStem: 85 88<161 185> 877.87 87.2021<338 368>
Fore
838 159 m 1
 922 159 l 1
 890 50 788 -23 667 -23 c 0
 598 -23 550 1 508 55 c 0
 499 66 496 72 491 84 c 1
 441 17 362 -23 275 -23 c 0
 217 -23 171 -7 139 26 c 0
 105 61 85 112 85 165 c 0
 85 246 117 354 162 422 c 0
 212 497 292 539 386 539 c 0
 470 539 529 503 558 436 c 1
 601 495 693 539 775 539 c 0
 883 539 966 464 966 368 c 0
 966 341 961 299 952 251 c 2
 949 234 l 1
 563 234 l 1
 558 208 556 196 556 176 c 0
 556 102 605 54 683 54 c 0
 749 54 802 90 838 159 c 1
371 462 m 0
 261 462 173 338 173 181 c 0
 173 103 216 54 285 54 c 0
 351 54 408 92 445 159 c 0
 471 207 487 275 487 334 c 0
 487 414 443 462 371 462 c 0
581 306 m 1
 875 306 l 1
 877 320 878 328 878 338 c 0
 878 414 833 462 764 462 c 0
 682 462 607 398 581 306 c 1
EndSplineSet
EndChar
StartChar: Racute
Encoding: 340 340 273
Width: 722
Flags: W
HStem: 0 21G<93 187 566 679> 314 82<272 511> 647 82<325 585>
VStem: 562.216 101.604<47 76> 593.995 96.005<239 264> 674 95.263<557 560>
Fore
254 314 m 1
 187 0 l 1
 93 0 l 1
 248 729 l 1
 584 729 l 2
 712 729 770 681 770 575 c 0
 770 513 743 446 703 409 c 0
 685 393 669 382 630 360 c 1
 677 329 690 308 690 264 c 0
 690 246 682 194 669 126 c 0
 665 105 663 88 663 76 c 0
 663 54 671 35 684 23 c 1
 679 0 l 1
 566 0 l 1
 563 21 562 32 562 47 c 0
 562 79 562 79 586 179 c 0
 591 201 594 222 594 239 c 0
 594 288 558 314 493 314 c 2
 254 314 l 1
271 396 m 1
 502 396 l 2
 566 396 608 413 637 449 c 0
 659 477 674 521 674 558 c 0
 674 582 666 605 653 619 c 0
 634 640 608 647 555 647 c 2
 325 647 l 1
 271 396 l 1
577 939 m 1
 689 939 l 1
 509 791 l 1
 449 791 l 1
 577 939 l 1
EndSplineSet
EndChar
StartChar: racute
Encoding: 341 341 274
Width: 333
Flags: W
HStem: 0 21G<69 153> 451.139 87.8615<385.028 404 404.016 417.905> 504 20G<180 256> 720 20G<386 498>
Fore
180 524 m 1
 256 524 l 1
 239 442 l 1
 301 513 346 539 404 539 c 0
 415 539 423 538 436 536 c 1
 418 451 l 1
 308 455 237 394 211 272 c 2
 153 0 l 1
 69 0 l 1
 180 524 l 1
386 740 m 1
 498 740 l 1
 318 592 l 1
 258 592 l 1
 386 740 l 1
EndSplineSet
EndChar
StartChar: Rcommaaccent
Encoding: 342 342 275
Width: 722
Flags: W
HStem: -283.661 37.6606<271 273> -158 98<310 343> 0 21G<93 187 566 679> 314 82<272 509> 647 82<325 585>
VStem: 562.436 100.924<47 76> 593.995 96.005<239 264> 674 95.263<557 564>
Fore
254 314 m 1
 187 0 l 1
 93 0 l 1
 248 729 l 1
 584 729 l 2
 712 729 770 681 770 575 c 0
 770 513 743 446 703 409 c 0
 685 393 669 382 630 360 c 1
 677 329 690 308 690 264 c 0
 690 246 682 194 669 126 c 0
 665 105 663 88 663 76 c 0
 663 54 671 35 684 23 c 1
 679 0 l 1
 566 0 l 1
 563 21 562 32 562 47 c 0
 562 79 562 79 586 179 c 0
 591 201 594 222 594 239 c 0
 594 288 558 314 493 314 c 2
 254 314 l 1
271 396 m 1
 502 396 l 2
 566 396 608 413 637 449 c 0
 659 477 674 521 674 558 c 0
 674 582 666 605 653 619 c 0
 634 640 608 647 555 647 c 2
 325 647 l 1
 271 396 l 1
310 -60 m 1
 410 -60 l 1
 391 -153 l 1
 373 -235 325 -284 262 -284 c 1
 270 -246 l 1
 309 -246 333 -217 344 -158 c 1
 289 -158 l 1
 310 -60 l 1
EndSplineSet
EndChar
StartChar: rcommaaccent
Encoding: 343 343 276
Width: 333
Flags: W
HStem: -283.661 37.6606<14 15> -158 98<53 86> 0 21G<69 153> 451 88<389 418> 504 20G<181 256>
Fore
181 524 m 1
 256 524 l 1
 239 442 l 1
 302 513 346 539 404 539 c 0
 415 539 423 538 436 536 c 1
 418 451 l 1
 408 451 l 2
 305 452 235 388 211 272 c 1
 153 0 l 1
 69 0 l 1
 181 524 l 1
53 -60 m 1
 153 -60 l 1
 134 -153 l 1
 116 -235 68 -284 5 -284 c 1
 13 -246 l 1
 52 -246 76 -217 87 -158 c 1
 32 -158 l 1
 53 -60 l 1
EndSplineSet
EndChar
StartChar: Rcaron
Encoding: 344 344 277
Width: 722
Flags: W
HStem: 0 21G<93 187 566 679> 314 82<272 509> 647 82<325 585>
VStem: 562.216 101.604<47 76> 593.995 96.005<239 264> 674 95.263<557 560>
Fore
254 314 m 1
 187 0 l 1
 93 0 l 1
 248 729 l 1
 584 729 l 2
 712 729 770 681 770 575 c 0
 770 513 743 446 703 409 c 0
 685 393 669 382 630 360 c 1
 677 329 690 308 690 264 c 0
 690 246 682 194 669 126 c 0
 665 105 663 88 663 76 c 0
 663 54 671 35 684 23 c 1
 679 0 l 1
 566 0 l 1
 563 21 562 32 562 47 c 0
 562 79 562 79 586 179 c 0
 591 201 594 222 594 239 c 0
 594 288 558 314 493 314 c 2
 254 314 l 1
271 396 m 1
 502 396 l 2
 566 396 608 413 637 449 c 0
 659 477 674 521 674 558 c 0
 674 582 666 605 653 619 c 0
 634 640 608 647 555 647 c 2
 325 647 l 1
 271 396 l 1
556 791 m 1
 461 791 l 1
 397 939 l 1
 460 939 l 1
 516 841 l 1
 620 939 l 1
 684 939 l 1
 556 791 l 1
EndSplineSet
EndChar
StartChar: rcaron
Encoding: 345 345 278
Width: 333
Flags: W
HStem: 0 21G<69 153> 451.139 87.8615<385.028 404 404.016 417.905> 504 20G<180 256> 720 20G<199 262 422 486>
Fore
180 524 m 1
 256 524 l 1
 239 442 l 1
 301 513 346 539 404 539 c 0
 415 539 423 538 436 536 c 1
 418 451 l 1
 308 455 237 394 211 272 c 2
 153 0 l 1
 69 0 l 1
 180 524 l 1
358 592 m 1
 263 592 l 1
 199 740 l 1
 262 740 l 1
 318 642 l 1
 422 740 l 1
 486 740 l 1
 358 592 l 1
EndSplineSet
EndChar
StartChar: Sacute
Encoding: 346 346 279
Width: 667
Flags: W
HStem: -23 81<318 361> 660 81<457 498>
VStem: 89.0062 91.9938<171 191> 178.621 96.1936<492 518> 572.995 96.0048<209 237> 621.995 92.0051<551 571>
Fore
706 515 m 1
 618 515 l 1
 621 535 622 542 622 551 c 0
 622 580 609 612 590 629 c 0
 568 649 526 660 470 660 c 0
 404 660 355 644 318 611 c 0
 289 584 274 553 274 518 c 0
 274 474 298 454 375 432 c 2
 547 383 l 2
 594 370 623 350 645 315 c 0
 660 291 669 263 669 237 c 0
 669 181 633 108 582 61 c 0
 523 6 435 -23 330 -23 c 0
 179 -23 89 49 89 169 c 0
 89 190 91 206 98 232 c 1
 185 232 l 1
 182 213 181 204 181 191 c 0
 181 100 233 58 346 58 c 0
 426 58 485 77 526 114 c 0
 554 140 573 178 573 209 c 0
 573 257 540 286 460 309 c 2
 289 357 l 2
 222 376 178 429 178 492 c 0
 178 543 209 614 250 656 c 0
 304 712 385 741 488 741 c 0
 566 741 619 725 660 689 c 0
 693 660 714 614 714 571 c 0
 714 556 712 543 706 515 c 1
566 939 m 1
 678 939 l 1
 498 791 l 1
 438 791 l 1
 566 939 l 1
EndSplineSet
EndChar
StartChar: sacute
Encoding: 347 347 280
Width: 500
Flags: W
HStem: -23 77<241 269> 462 77<333 358> 720 20G<433 545>
VStem: 61.498 93.0539<105 131> 123.892 87.6412<345 367> 404.81 87.2468<150 173> 430.377 89.1996<400 421>
Fore
514 378 m 1
 430 378 l 1
 431 386 431 393 431 400 c 0
 431 439 398 462 339 462 c 0
 295 462 265 452 241 429 c 0
 223 412 211 387 211 367 c 0
 211 341 240 321 296 307 c 2
 372 288 l 2
 460 266 493 234 493 173 c 0
 493 54 396 -23 247 -23 c 0
 131 -23 61 25 61 105 c 0
 61 121 62 133 67 156 c 1
 156 156 l 1
 155 146 154 137 154 131 c 0
 154 81 193 54 262 54 c 0
 305 54 348 67 373 88 c 0
 389 101 405 132 405 150 c 0
 405 159 399 174 392 183 c 0
 383 194 368 200 335 209 c 2
 261 228 l 2
 158 255 123 284 123 345 c 0
 123 392 147 444 183 479 c 0
 224 518 285 539 356 539 c 0
 453 539 520 491 520 421 c 0
 520 408 519 399 514 378 c 1
433 740 m 1
 545 740 l 1
 365 592 l 1
 305 592 l 1
 433 740 l 1
EndSplineSet
EndChar
StartChar: Scedilla
Encoding: 350 350 283
Width: 667
Flags: W
HStem: -214 43<251 280> -22 80<338.125 361> 660 81<457 490>
VStem: 89.0062 91.9938<171 191> 178.716 95.9692<492 518> 330 77.1123<-118 -114> 572.995 96.0048<209 237> 621.951 91.1406<551 571>
Fore
338 -22 m 1
 320 -56 l 1
 333 -54 336 -54 341 -54 c 0
 378 -54 408 -77 408 -105 c 0
 408 -168 347 -214 263 -214 c 0
 225 -214 197 -206 145 -180 c 1
 173 -142 l 1
 213 -163 239 -171 267 -171 c 0
 304 -171 330 -148 330 -116 c 0
 330 -104 315 -94 299 -94 c 0
 294 -94 294 -94 279 -97 c 2
 272 -98 l 1
 259 -92 l 1
 296 -22 l 1
 227 -13 199 -4 169 15 c 0
 118 49 89 105 89 169 c 0
 89 190 91 206 98 232 c 1
 185 232 l 1
 182 213 181 204 181 191 c 0
 181 100 233 58 346 58 c 0
 426 58 485 77 526 114 c 0
 554 140 573 179 573 209 c 0
 573 257 540 286 460 309 c 2
 289 357 l 2
 222 376 178 429 178 492 c 0
 178 543 209 614 250 656 c 0
 304 712 385 741 488 741 c 0
 566 741 619 725 660 689 c 0
 693 660 714 614 714 571 c 0
 714 555 712 543 706 515 c 1
 618 515 l 1
 621 535 622 543 622 551 c 0
 622 579 609 612 590 629 c 0
 568 649 526 660 470 660 c 0
 404 660 355 644 318 611 c 0
 289 584 274 553 274 518 c 0
 274 474 298 454 375 432 c 2
 547 383 l 2
 594 370 623 350 645 315 c 0
 660 291 669 263 669 237 c 0
 669 165 616 78 545 32 c 0
 489 -4 422 -22 338 -22 c 1
EndSplineSet
EndChar
StartChar: scedilla
Encoding: 351 351 284
Width: 500
Flags: W
HStem: -214 43<173 197> 462 77<333 358>
VStem: 61.8335 92.6108<105 131> 123.004 87.9964<345 367> 247 77.1123<-118 -114> 405.676 87.3538<150 173> 430.26 90.1302<400 421>
Fore
255 -23 m 1
 237 -56 l 1
 250 -54 253 -54 258 -54 c 0
 295 -54 325 -77 325 -105 c 0
 325 -168 264 -214 180 -214 c 0
 142 -214 113 -206 62 -180 c 1
 90 -142 l 1
 130 -163 156 -171 184 -171 c 0
 221 -171 247 -148 247 -116 c 0
 247 -104 233 -94 216 -94 c 0
 211 -94 211 -94 196 -97 c 2
 189 -98 l 1
 176 -92 l 1
 214 -22 l 1
 112 -9 61 33 61 105 c 0
 61 121 63 133 67 156 c 1
 156 156 l 1
 155 146 154 137 154 131 c 0
 154 81 193 54 262 54 c 0
 305 54 349 67 374 88 c 0
 390 101 406 132 406 150 c 0
 406 159 400 174 393 183 c 0
 384 194 369 200 335 209 c 2
 261 228 l 2
 158 255 123 284 123 345 c 0
 123 392 147 444 183 479 c 0
 224 518 286 539 356 539 c 0
 454 539 521 491 521 421 c 0
 521 409 519 399 514 378 c 1
 431 378 l 1
 431 389 l 1
 431 394 l 1
 431 400 l 2
 431 440 398 462 340 462 c 0
 295 462 265 452 241 429 c 0
 223 412 211 387 211 367 c 0
 211 341 240 321 296 307 c 2
 372 288 l 2
 461 266 494 234 494 173 c 0
 494 109 461 49 409 17 c 0
 366 -9 323 -20 255 -23 c 1
EndSplineSet
EndChar
StartChar: Scaron
Encoding: 352 352 285
Width: 667
Flags: W
HStem: -23 81<318 361> 660 81<457 490>
VStem: 89.0062 91.9938<171 191> 178.621 96.1936<492 518> 572.995 96.0048<209 237> 621.995 92.0051<551 571>
Fore
706 515 m 1
 618 515 l 1
 621 535 622 542 622 551 c 0
 622 580 609 612 590 629 c 0
 568 649 526 660 470 660 c 0
 404 660 355 644 318 611 c 0
 289 584 274 553 274 518 c 0
 274 474 298 454 375 432 c 2
 547 383 l 2
 594 370 623 350 645 315 c 0
 660 291 669 263 669 237 c 0
 669 181 633 108 582 61 c 0
 523 6 435 -23 330 -23 c 0
 179 -23 89 49 89 169 c 0
 89 190 91 206 98 232 c 1
 185 232 l 1
 182 213 181 204 181 191 c 0
 181 100 233 58 346 58 c 0
 426 58 485 77 526 114 c 0
 554 140 573 178 573 209 c 0
 573 257 540 286 460 309 c 2
 289 357 l 2
 222 376 178 429 178 492 c 0
 178 543 209 614 250 656 c 0
 304 712 385 741 488 741 c 0
 566 741 619 725 660 689 c 0
 693 660 714 614 714 571 c 0
 714 556 712 543 706 515 c 1
547 791 m 1
 452 791 l 1
 388 939 l 1
 451 939 l 1
 507 841 l 1
 611 939 l 1
 675 939 l 1
 547 791 l 1
EndSplineSet
EndChar
StartChar: scaron
Encoding: 353 353 286
Width: 500
Flags: W
HStem: -23 77<241 269> 462 77<333 358> 720 20G<260 323 483 547>
VStem: 61.498 93.0539<105 131> 123.892 87.6412<345 367> 404.81 87.2468<150 173> 430.377 89.1996<400 421>
Fore
514 378 m 1
 430 378 l 1
 431 386 431 393 431 400 c 0
 431 439 398 462 339 462 c 0
 295 462 265 452 241 429 c 0
 223 412 211 387 211 367 c 0
 211 341 240 321 296 307 c 2
 372 288 l 2
 460 266 493 234 493 173 c 0
 493 54 396 -23 247 -23 c 0
 131 -23 61 25 61 105 c 0
 61 121 62 133 67 156 c 1
 156 156 l 1
 155 146 154 137 154 131 c 0
 154 81 193 54 262 54 c 0
 305 54 348 67 373 88 c 0
 389 101 405 132 405 150 c 0
 405 159 399 174 392 183 c 0
 383 194 368 200 335 209 c 2
 261 228 l 2
 158 255 123 284 123 345 c 0
 123 392 147 444 183 479 c 0
 224 518 285 539 356 539 c 0
 453 539 520 491 520 421 c 0
 520 408 519 399 514 378 c 1
419 592 m 1
 324 592 l 1
 260 740 l 1
 323 740 l 1
 379 642 l 1
 483 740 l 1
 547 740 l 1
 419 592 l 1
EndSplineSet
EndChar
StartChar: Tcaron
Encoding: 356 356 289
Width: 611
Flags: W
HStem: 0 21G<261 355> 647 82<175 398 493 731>
Fore
493 647 m 1
 355 0 l 1
 261 0 l 1
 399 647 l 1
 158 647 l 1
 175 729 l 1
 748 729 l 1
 731 647 l 1
 493 647 l 1
524 791 m 1
 429 791 l 1
 365 939 l 1
 428 939 l 1
 484 841 l 1
 588 939 l 1
 652 939 l 1
 524 791 l 1
EndSplineSet
EndChar
StartChar: tcaron
Encoding: 357 357 290
Width: 319
Flags: W
HStem: -22.0467 71.8808<186 219> 457 67<122 178 278 352> 457 211<263 277> 577.339 37.6606<353 354> 703 98<392 425>
VStem: 97.8996 85.2698<56 76>
Fore
366 524 m 1
 352 457 l 1
 263 457 l 1
 185 90 l 1
 184 84 183 79 183 76 c 0
 183 60 197 49 219 49 c 0
 231 49 236 50 267 57 c 1
 251 -16 l 1
 237 -20 206 -23 186 -23 c 0
 131 -23 97 7 97 56 c 0
 97 66 98 77 100 87 c 2
 179 457 l 1
 108 457 l 1
 122 524 l 1
 193 524 l 1
 224 668 l 1
 308 668 l 1
 277 524 l 1
 366 524 l 1
392 801 m 1
 492 801 l 1
 473 708 l 1
 455 626 407 577 344 577 c 1
 352 615 l 1
 391 615 415 644 426 703 c 1
 371 703 l 1
 392 801 l 1
EndSplineSet
EndChar
StartChar: Tbar
Encoding: 358 358 291
Width: 611
Flags: W
HStem: 0 21G<261 355> 647 82<175 398 493 731>
Fore
493 647 m 1
 355 0 l 1
 261 0 l 1
 399 647 l 1
 158 647 l 1
 175 729 l 1
 748 729 l 1
 731 647 l 1
 493 647 l 1
EndSplineSet
EndChar
StartChar: tbar
Encoding: 359 359 292
Width: 278
Flags: W
HStem: -22.0467 71.8808<186 219> 457 67<122 178 278 352> 457 211<263 277>
VStem: 97.8996 85.2698<56 76>
Fore
366 524 m 1
 352 457 l 1
 263 457 l 1
 185 90 l 1
 184 84 183 79 183 76 c 0
 183 60 197 49 219 49 c 0
 231 49 236 50 267 57 c 1
 251 -16 l 1
 237 -20 206 -23 186 -23 c 0
 131 -23 97 7 97 56 c 0
 97 66 98 77 100 87 c 2
 179 457 l 1
 108 457 l 1
 122 524 l 1
 193 524 l 1
 224 668 l 1
 308 668 l 1
 277 524 l 1
 366 524 l 1
EndSplineSet
EndChar
StartChar: Umacron
Encoding: 362 362 295
Width: 722
Flags: W
HStem: -23 81<362 383> 709 20G<240 334 706 800> 826 69<418 677>
VStem: 124.895 95.2169<155 174>
Fore
706 729 m 1
 800 729 l 1
 691 217 l 2
 660 71 531 -23 363 -23 c 0
 286 -23 220 -2 179 35 c 0
 147 64 124 114 124 155 c 0
 124 171 131 217 138 251 c 1
 240 729 l 1
 334 729 l 1
 225 217 l 2
 222 202 220 187 220 174 c 0
 220 104 285 58 381 58 c 0
 494 58 576 118 597 217 c 2
 706 729 l 1
692 895 m 1
 677 826 l 1
 403 826 l 1
 418 895 l 1
 692 895 l 1
EndSplineSet
EndChar
StartChar: umacron
Encoding: 363 363 296
Width: 556
Flags: W
HStem: -22.9987 71.9987<226 268> 0 21G<407 483> 504 20G<177 261 510 594> 627 69<285 545>
Fore
483 0 m 1
 407 0 l 1
 419 57 l 1
 361 1 304 -23 226 -23 c 0
 140 -23 88 18 88 86 c 0
 88 99 89 110 91 120 c 2
 177 524 l 1
 261 524 l 1
 182 153 l 2
 180 143 179 134 179 126 c 0
 179 79 214 49 268 49 c 0
 353 49 424 119 447 227 c 2
 510 524 l 1
 594 524 l 1
 483 0 l 1
560 696 m 1
 545 627 l 1
 270 627 l 1
 285 696 l 1
 560 696 l 1
EndSplineSet
EndChar
StartChar: Uring
Encoding: 366 366 299
Width: 722
Flags: W
HStem: -23 81<362 383> 709 20G<240 334 706 800> 778 44<532 542> 909 44<556 568>
VStem: 124.895 95.2169<155 174> 459 46<848 859> 594 44.0744<873 876>
Fore
706 729 m 1
 800 729 l 1
 691 217 l 2
 660 71 531 -23 363 -23 c 0
 286 -23 220 -2 179 35 c 0
 147 64 124 114 124 155 c 0
 124 171 131 217 138 251 c 1
 240 729 l 1
 334 729 l 1
 225 217 l 2
 222 202 220 187 220 174 c 0
 220 104 285 58 381 58 c 0
 494 58 576 118 597 217 c 2
 706 729 l 1
567 953 m 0
 608 953 639 924 639 886 c 0
 639 830 587 778 530 778 c 0
 490 778 459 809 459 848 c 0
 459 901 513 953 567 953 c 0
560 909 m 0
 532 909 505 883 505 857 c 0
 505 836 520 822 540 822 c 0
 567 822 594 848 594 874 c 0
 594 894 579 909 560 909 c 0
EndSplineSet
EndChar
StartChar: uring
Encoding: 367 367 300
Width: 556
Flags: W
HStem: -22.9987 71.9987<226 268> 0 21G<407 483> 504 20G<177 261 510 594> 579 44<397 408> 710 44<419 433>
VStem: 324 46<649 660> 459 44.0744<674 681>
Fore
483 0 m 1
 407 0 l 1
 419 57 l 1
 361 1 304 -23 226 -23 c 0
 140 -23 88 18 88 86 c 0
 88 99 89 110 91 120 c 2
 177 524 l 1
 261 524 l 1
 182 153 l 2
 180 143 179 134 179 126 c 0
 179 79 214 49 268 49 c 0
 353 49 424 119 447 227 c 2
 510 524 l 1
 594 524 l 1
 483 0 l 1
432 754 m 0
 473 754 504 725 504 687 c 0
 504 631 452 579 395 579 c 0
 355 579 324 610 324 649 c 0
 324 702 378 754 432 754 c 0
425 710 m 0
 397 710 370 684 370 658 c 0
 370 637 385 623 405 623 c 0
 432 623 459 649 459 675 c 0
 459 695 444 710 425 710 c 0
EndSplineSet
EndChar
StartChar: Uhungarumlaut
Encoding: 368 368 301
Width: 722
Flags: W
HStem: -23 81<362 392> 709 20G<240 334 706 800>
VStem: 124.895 95.2169<155 174>
Fore
706 729 m 1
 800 729 l 1
 691 217 l 2
 660 71 531 -23 363 -23 c 0
 286 -23 220 -2 179 35 c 0
 147 64 124 114 124 155 c 0
 124 171 131 217 138 251 c 1
 240 729 l 1
 334 729 l 1
 225 217 l 2
 222 202 220 187 220 174 c 0
 220 104 285 58 381 58 c 0
 494 58 576 118 597 217 c 2
 706 729 l 1
520 939 m 1
 632 939 l 1
 452 789 l 1
 392 789 l 1
 520 939 l 1
694 939 m 1
 806 939 l 1
 626 789 l 1
 566 789 l 1
 694 939 l 1
EndSplineSet
EndChar
StartChar: uhungarumlaut
Encoding: 369 369 302
Width: 556
Flags: W
HStem: -22.9987 71.9987<226 268> 0 21G<407 483> 504 20G<177 261 510 594> 720 20G<397 509 571 683>
Fore
483 0 m 1
 407 0 l 1
 419 57 l 1
 361 1 304 -23 226 -23 c 0
 140 -23 88 18 88 86 c 0
 88 99 89 110 91 120 c 2
 177 524 l 1
 261 524 l 1
 182 153 l 2
 180 143 179 134 179 126 c 0
 179 79 214 49 268 49 c 0
 353 49 424 119 447 227 c 2
 510 524 l 1
 594 524 l 1
 483 0 l 1
397 740 m 1
 509 740 l 1
 329 590 l 1
 269 590 l 1
 397 740 l 1
571 740 m 1
 683 740 l 1
 503 590 l 1
 443 590 l 1
 571 740 l 1
EndSplineSet
EndChar
StartChar: Uogonek
Encoding: 370 370 303
Width: 722
Flags: W
HStem: -205 45<486 516> -23 81<358 396> 709 20G<240 334 706 800>
VStem: 124.384 96.0826<155 173> 356.588 74.412<-117 -114>
Fore
568 -150 m 1
 559 -195 l 1
 537 -203 519 -205 487 -205 c 0
 403 -205 356 -177 356 -127 c 0
 356 -84 388 -46 453 -13 c 1
 415 -21 397 -23 366 -23 c 0
 285 -23 221 -3 179 35 c 0
 147 64 124 114 124 155 c 0
 124 170 131 218 138 251 c 2
 240 729 l 1
 334 729 l 1
 225 217 l 1
 222 201 220 187 220 173 c 0
 220 104 285 58 381 58 c 0
 494 58 576 118 597 217 c 2
 706 729 l 1
 800 729 l 1
 691 217 l 1
 668 121 624 65 514 -6 c 1
 463 -41 431 -84 431 -116 c 0
 431 -142 457 -160 497 -160 c 0
 524 -160 549 -156 568 -150 c 1
EndSplineSet
EndChar
StartChar: uogonek
Encoding: 371 371 304
Width: 556
Flags: W
HStem: -204.964 44.9642<424 440> -22.9987 71.9987<226 268> 504 20G<177 261 510 594>
VStem: 304.772 73.2282<-116 -115>
Fore
594 524 m 1
 483 0 l 1
 461 -12 447 -22 414 -53 c 0
 389 -75 378 -95 378 -115 c 0
 378 -140 403 -160 433 -160 c 0
 453 -160 478 -156 495 -150 c 1
 486 -195 l 1
 465 -202 446 -205 419 -205 c 0
 348 -205 304 -175 304 -127 c 128
 304 -79 348 -33 427 0 c 1
 407 0 l 1
 419 57 l 1
 361 1 304 -23 226 -23 c 0
 140 -23 88 18 88 86 c 0
 88 99 89 110 91 120 c 2
 177 524 l 1
 261 524 l 1
 182 153 l 2
 180 143 179 134 179 126 c 0
 179 79 214 49 268 49 c 0
 353 49 424 119 447 227 c 2
 510 524 l 1
 594 524 l 1
EndSplineSet
EndChar
StartChar: Ydieresis
Encoding: 376 376 309
Width: 667
Flags: W
HStem: 0 21G<293 387> 709 20G<168 280 705 816> 811 103<400 482 561 643>
Fore
448 286 m 1
 387 0 l 1
 293 0 l 1
 354 286 l 1
 168 729 l 1
 280 729 l 1
 416 372 l 1
 705 729 l 1
 816 729 l 1
 448 286 l 1
504 914 m 1
 482 811 l 1
 378 811 l 1
 400 914 l 1
 504 914 l 1
665 914 m 1
 643 811 l 1
 539 811 l 1
 561 914 l 1
 665 914 l 1
EndSplineSet
EndChar
StartChar: Zacute
Encoding: 377 377 310
Width: 611
Flags: W
HStem: 0 82<164 584> 647 82<212 600>
Fore
737 729 m 1
 719 645 l 1
 163 82 l 1
 601 82 l 1
 584 0 l 1
 28 0 l 1
 46 84 l 1
 601 647 l 1
 195 647 l 1
 212 729 l 1
 737 729 l 1
552 939 m 1
 664 939 l 1
 484 791 l 1
 424 791 l 1
 552 939 l 1
EndSplineSet
EndChar
StartChar: zacute
Encoding: 378 378 311
Width: 500
Flags: W
HStem: 0 72<148 458> 452 72<165 443> 720 20G<440 552>
Fore
557 524 m 1
 539 449 l 1
 147 72 l 1
 473 72 l 1
 458 0 l 1
 31 0 l 1
 49 74 l 1
 444 452 l 1
 150 452 l 1
 165 524 l 1
 557 524 l 1
440 740 m 1
 552 740 l 1
 372 592 l 1
 312 592 l 1
 440 740 l 1
EndSplineSet
EndChar
StartChar: Zdotaccent
Encoding: 379 379 312
Width: 611
Flags: W
HStem: 0 82<164 584> 647 82<212 600> 811 103<458 540>
Fore
737 729 m 1
 719 645 l 1
 163 82 l 1
 601 82 l 1
 584 0 l 1
 28 0 l 1
 46 84 l 1
 601 647 l 1
 195 647 l 1
 212 729 l 1
 737 729 l 1
562 914 m 1
 540 811 l 1
 436 811 l 1
 458 914 l 1
 562 914 l 1
EndSplineSet
EndChar
StartChar: zdotaccent
Encoding: 380 380 313
Width: 500
Flags: W
HStem: 0 72<148 458> 452 72<165 443> 612 103<346 428>
Fore
557 524 m 1
 539 449 l 1
 147 72 l 1
 473 72 l 1
 458 0 l 1
 31 0 l 1
 49 74 l 1
 444 452 l 1
 150 452 l 1
 165 524 l 1
 557 524 l 1
450 715 m 1
 428 612 l 1
 324 612 l 1
 346 715 l 1
 450 715 l 1
EndSplineSet
EndChar
StartChar: Zcaron
Encoding: 381 381 314
Width: 611
Flags: W
HStem: 0 82<164 584> 647 82<212 600>
Fore
737 729 m 1
 719 645 l 1
 163 82 l 1
 601 82 l 1
 584 0 l 1
 28 0 l 1
 46 84 l 1
 601 647 l 1
 195 647 l 1
 212 729 l 1
 737 729 l 1
531 791 m 1
 436 791 l 1
 372 939 l 1
 435 939 l 1
 491 841 l 1
 595 939 l 1
 659 939 l 1
 531 791 l 1
EndSplineSet
EndChar
StartChar: zcaron
Encoding: 382 382 315
Width: 500
Flags: W
HStem: 0 72<148 458> 452 72<165 443> 720 20G<261 324 484 548>
Fore
557 524 m 1
 539 449 l 1
 147 72 l 1
 473 72 l 1
 458 0 l 1
 31 0 l 1
 49 74 l 1
 444 452 l 1
 150 452 l 1
 165 524 l 1
 557 524 l 1
420 592 m 1
 325 592 l 1
 261 740 l 1
 324 740 l 1
 380 642 l 1
 484 740 l 1
 548 740 l 1
 420 592 l 1
EndSplineSet
EndChar
StartChar: longs
Encoding: 383 383 316
Width: 278
Flags: W
HStem: 0 21G<89 173> 457 67<130 185> 660 72<361 377>
Fore
173 0 m 1
 89 0 l 1
 186 457 l 1
 116 457 l 1
 130 524 l 1
 200 524 l 1
 219 613 l 2
 235 687 291 732 368 732 c 0
 384 732 395 731 413 727 c 1
 398 658 l 1
 384 660 378 660 371 660 c 0
 328 660 309.641 643.078 299 593 c 2
 173 0 l 1
EndSplineSet
EndChar
StartChar: florin
Encoding: 402 402 317
Width: 278
Flags: W
HStem: -218 72<-30.5 31.5> 457 67<130 200 284 356> 660 72<329.5 376>
Fore
370 524 m 1
 356 457 l 1
 270 457 l 1
 150 -109 l 2
 132 -191 89 -218 -26 -218 c 0
 -35 -218 -38 -217 -45 -215 c 1
 -30 -144 l 1
 -12 -146 -10 -146 -5 -146 c 0
 46 -146 61 -132 73 -76 c 2
 186 457 l 1
 116 457 l 1
 130 524 l 1
 200 524 l 5
 219 613 l 6
 235 687 291 732 368 732 c 4
 384 732 395 731 413 727 c 5
 398 658 l 5
 384 660 378 660 371 660 c 4
 328 660 310 643 299 593 c 6
 284 524 l 5
 370 524 l 1
EndSplineSet
EndChar
StartChar: kappa
Encoding: 954 954 381
Width: 516
Flags: W
HStem: 0 21G<1 89 323 431>
Fore
431 0 m 1
 323 0 l 1
 217 266 l 1
 140 206 l 1
 89 0 l 1
 1 0 l 1
 130 518 l 1
 218 518 l 1
 166 308 l 1
 426 518 l 1
 540 518 l 1
 294 326 l 1
 431 0 l 1
EndSplineSet
EndChar
StartChar: lambda
Encoding: 955 955 382
Width: 560
Flags: W
HStem: 646 86<191 224>
Fore
469 14 m 1
 434 -2 405 -10 383 -10 c 0
 350 -10 330 6 326 38 c 0
 326 43 325 47 324 52 c 0
 322 57 322 63 321 68 c 1
 292 304 l 1
 287 348 287 387 287 422 c 1
 282 413 271 392 254 359 c 0
 248 349 243 341 240 335 c 0
 236 330 233 324 230 319 c 0
 226 313 223 307 219 302 c 1
 36 2 l 1
 -60 2 l 1
 268 522 l 1
 266 542 l 1
 264 568 261 588 256 603 c 128
 251 618 241 630 228 639 c 0
 221 644 208 646 191 646 c 0
 181 646 171 645 161 643 c 0
 156 642 151 641 147 640 c 0
 142 639 138 639 135 638 c 1
 166 720 l 1
 189 728 209 732 224 732 c 0
 248 732 267 729 278 722 c 0
 290 715 303 702 315 683 c 0
 327 662 334 641 337 622 c 0
 341 602 345 571 350 530 c 2
 400 120 l 1
 407 92 l 2
 410 79 417 73 430 73 c 0
 435 73 439 74 445 75 c 0
 450 77 455 79 459 80 c 0
 462 82 466 83 467 84 c 1
 469 14 l 1
EndSplineSet
EndChar
StartChar: uni03BC
Encoding: 956 956 383
Width: 607
Flags: W
HStem: -10 74<252 274>
Fore
528 21 m 1
 513 12 501 6 495 4 c 0
 488 1 480 0 470 0 c 0
 445 0 429 7 419 20 c 0
 411 32 407 50 407 74 c 1
 388 49 364 29 336 13 c 0
 310 -2 282 -10 253 -10 c 128
 224 -10 200 -4 181 8 c 0
 162 19 148 37 140 62 c 1
 75 -200 l 1
 -13 -200 l 1
 166 518 l 1
 254 518 l 1
 177 208 l 1
 173 193 171 180 171 167 c 0
 171 129 188 98 221 76 c 0
 234 68 251 64 274 64 c 0
 320 64 357 81 384 114 c 0
 393 124 399 131 402 135 c 0
 407 141 412 147 415 152 c 0
 420 159 423 167 425 174 c 0
 428 179 431 191 435 208 c 2
 512 518 l 1
 598 518 l 1
 507 152 l 2
 500 124 497 104 497 93 c 0
 498 84 502 79 508 79 c 0
 509 79 512 80 516 81 c 1
 528 21 l 1
EndSplineSet
EndChar
StartChar: nu
Encoding: 957 957 384
Width: 504
Flags: W
HStem: 0 21G<145 227>
Fore
552 518 m 1
 227 0 l 1
 145 0 l 1
 78 518 l 1
 170 518 l 1
 205 208 l 1
 207 187 208 170 209 157 c 0
 210 132 211 115 211 104 c 1
 222 123 232 141 241 157 c 0
 252 176 262 191 269 202 c 2
 462 518 l 1
 552 518 l 1
EndSplineSet
EndChar
StartChar: xi
Encoding: 958 958 385
Width: 470
Flags: W
HStem: 0 70<196 237> 340 64<309 404> 648 70<151 235 336 507>
VStem: -10 90<130 166> 120 78<476 491>
Fore
366 -39 m 0
 356 -80 330 -131 289 -194 c 1
 222 -166 l 1
 257 -111 277 -75 282 -60 c 1
 284 -58 285 -53 287 -46 c 0
 288 -40 288 -34 288 -30 c 0
 288 -19 285 -12 277 -9 c 0
 266 -3 242 0 204 0 c 2
 185 0 l 2
 141 0 102 6 70 18 c 128
 38 30 15 50 1 78 c 0
 -7 93 -10 110 -10 130 c 0
 -10 147 -8 167 -2 188 c 0
 9 221 21 247 32 266 c 1
 45 285 63 303 85 320 c 0
 128 351 170 370 213 376 c 1
 178 381 153 397 136 422 c 0
 125 438 120 455 120 476 c 0
 120 488 122 502 126 516 c 0
 133 545 148 572 169 597 c 0
 190 620 211 637 235 648 c 1
 135 648 l 1
 152 718 l 1
 524 718 l 1
 507 648 l 1
 341 648 l 2
 322 648 303 641 284 628 c 0
 263 615 246 598 232 577 c 0
 217 556 206 535 202 516 c 0
 200 506 198 497 198 489 c 0
 198 453 221 427 267 412 c 0
 280 407 305 404 338 404 c 2
 420 404 l 1
 404 340 l 1
 294 340 l 2
 265 340 235 334 205 323 c 0
 176 311 150 294 128 272 c 0
 106 251 92 227 84 198 c 0
 81 187 80 176 80 166 c 0
 80 150 84 137 91 125 c 0
 103 105 121 91 144 83 c 0
 165 74 189 70 214 70 c 0
 262 70 297 68 318 63 c 0
 341 59 356 49 364 32 c 0
 368 22 371 10 371 -4 c 0
 371 -15 370 -26 366 -39 c 0
EndSplineSet
EndChar
StartChar: omicron
Encoding: 959 959 386
Width: 550
Flags: W
HStem: -12 74<207 230> 458 72<323 344>
VStem: 21 92<163 183>
AnchorPoint: "1 Top" 392 640 basechar 0
Fore
518 260 m 0
 504 203 481 154 450 113 c 0
 420 72 384 41 342 20 c 0
 299 -1 254 -12 208 -12 c 0
 164 -12 126 -2 93 17 c 0
 61 37 40 67 29 108 c 0
 24 126 21 145 21 167 c 0
 21 195 26 226 34 260 c 0
 56 350 96 418 152 463 c 0
 209 508 272 530 343 530 c 128
 414 530 467 508 500 463 c 0
 521 436 531 400 531 356 c 0
 531 327 527 295 518 260 c 0
428 260 m 0
 436 291 438 318 438 342 c 0
 437 365 432 386 423 405 c 0
 414 423 402 436 385 445 c 0
 369 454 349 458 325 458 c 128
 301 458 279 454 259 445 c 0
 238 436 218 423 201 405 c 0
 184 388 168 367 155 342 c 0
 142 316 131 289 124 260 c 0
 117 230 113 204 113 181 c 0
 113 153 118 131 129 113 c 0
 148 79 180 62 226 62 c 0
 271 62 313 79 349 113 c 0
 385 146 412 195 428 260 c 0
EndSplineSet
EndChar
StartChar: pi
Encoding: 960 960 387
Width: 661
Flags: W
HStem: 450 70<118 172 264 501 588 654>
VStem: 408 148<43 64>
Fore
556 14 m 1
 542 9 527 5 512 1 c 0
 499 -2 487 -4 478 -4 c 0
 441 -4 419 6 413 25 c 0
 410 33 408 43 408 55 c 0
 408 71 411 91 417 114 c 2
 501 450 l 1
 265 450 l 1
 153 0 l 1
 59 -2 l 1
 172 450 l 1
 102 450 l 1
 119 520 l 1
 671 520 l 1
 653 450 l 1
 589 450 l 1
 506 116 l 1
 504 102 502 91 502 75 c 0
 503 68 510 64 523 64 c 0
 532 64 538 65 542 68 c 0
 543 69 547 71 550 73 c 0
 553 74 555 75 556 76 c 1
 556 14 l 1
EndSplineSet
EndChar
StartChar: rho
Encoding: 961 961 388
Width: 566
Flags: W
HStem: -10 74<253 275> 460 72<365 389>
VStem: 486 93<336 357>
Fore
567 270 m 0
 551 204 531 156 508 126 c 0
 486 97 467 76 449 61 c 0
 432 46 407 31 374 15 c 0
 341 -2 301 -10 254 -10 c 0
 223 -10 195 -4 171 8 c 0
 149 19 131 37 119 61 c 1
 54 -200 l 1
 -34 -200 l 1
 83 270 l 2
 106 362 147 429 204 470 c 128
 261 511 324 532 389 532 c 0
 462 532 515 509 548 462 c 0
 568 433 579 397 579 355 c 0
 579 329 575 301 567 270 c 0
476 264 m 0
 483 291 486 316 486 338 c 0
 486 367 480 391 468 410 c 0
 447 443 415 460 371 460 c 0
 326 460 285 443 250 410 c 1
 213 379 186 329 169 262 c 0
 162 232 158 205 158 182 c 0
 158 154 164 131 175 113 c 0
 196 80 228 64 272 64 c 0
 315 64 356 80 394 112 c 1
 432 147 459 198 476 264 c 0
EndSplineSet
EndChar
StartChar: sigma1
Encoding: 962 962 389
Width: 535
Flags: W
HStem: 458 78<255 280>
VStem: 22 96<265 299> 402 98<-42 -28> 410 91<324.063 343.414>
Fore
501 324 m 1
 410 324 l 1
 410 364 398 397 374 422 c 1
 349 446 315 458 270 458 c 0
 245 458 221 452 198 440 c 0
 174 427 155 407 140 380 c 128
 125 353 118 318 118 274 c 0
 118 245 123 218 132 194 c 0
 149 153 191 121 257 100 c 0
 268 97 286 94 311 92 c 128
 336 90 354 88 364 87 c 0
 414 80 449 69 468 54 c 0
 489 37 500 9 500 -28 c 0
 500 -44 496 -63 489 -85 c 0
 479 -114 467 -147 452 -182 c 1
 362 -150 l 1
 367 -139 372 -127 377 -115 c 0
 382 -104 386 -94 389 -85 c 128
 392 -76 394 -68 397 -60 c 0
 399 -52 401 -46 402 -42 c 0
 403 -40 403 -37 403 -34 c 0
 403 -21 390 -11 365 -6 c 0
 355 -5 339 -3 318 -2 c 128
 297 -1 280 1 265 3 c 0
 250 4 234 7 216 12 c 0
 192 18 162 35 125 62 c 0
 94 83 69 113 50 151 c 0
 31 186 22 227 22 276 c 0
 22 331 33 378 56 417 c 0
 80 457 111 487 148 506 c 0
 187 526 231 536 278 536 c 0
 343 536 396 517 438 479 c 0
 480 440 501 388 501 324 c 1
EndSplineSet
EndChar
StartChar: sigma
Encoding: 963 963 390
Width: 616
Flags: W
HStem: -12 74<207 230> 444 82<500 636> 458 72<323 344>
VStem: 21 92<163 183> 438 89<323 343>
Fore
636 444 m 1
 500 444 l 1
 518 409 527 372 527 333 c 0
 527 309 524 285 518 260 c 0
 504 203 481 154 450 113 c 0
 420 72 384 41 342 20 c 0
 299 -1 254 -12 208 -12 c 0
 164 -12 126 -2 93 17 c 0
 61 37 40 67 29 108 c 0
 24 126 21 145 21 167 c 0
 21 195 26 226 34 260 c 0
 56 350 96 418 152 463 c 0
 209 508 272 530 343 530 c 0
 362 530 379 529 392 526 c 1
 656 526 l 1
 636 444 l 1
428 260 m 0
 436 291 438 318 438 342 c 0
 437 365 432 386 423 405 c 0
 414 423 402 436 385 445 c 0
 369 454 349 458 325 458 c 128
 301 458 279 454 259 445 c 0
 238 436 218 423 201 405 c 0
 184 388 168 367 155 342 c 0
 142 316 131 289 124 260 c 0
 117 230 113 204 113 181 c 0
 113 153 118 131 129 113 c 0
 148 79 180 62 226 62 c 0
 271 62 313 79 349 113 c 0
 385 146 412 195 428 260 c 0
EndSplineSet
EndChar
StartChar: tau
Encoding: 964 964 391
Width: 532
Flags: W
HStem: 450 68<106 254 341 542>
VStem: 167 166<52 80>
Fore
542 450 m 1
 342 450 l 1
 268 152 l 2
 262 127 260 111 260 104 c 0
 262 96 265 90 270 86 c 128
 275 82 285 80 300 80 c 0
 305 80 310 80 313 81 c 0
 325 83 331 84 334 85 c 1
 333 6 l 1
 325 4 312 2 296 -1 c 0
 282 -3 271 -4 263 -4 c 0
 232 -4 209 1 194 12 c 1
 177 22 169 35 167 52 c 0
 166 62 166 73 166 86 c 1
 168 99 172 119 178 144 c 2
 254 450 l 1
 90 450 l 1
 107 518 l 1
 559 518 l 1
 542 450 l 1
EndSplineSet
EndChar
StartChar: upsilon
Encoding: 965 965 392
Width: 515
Flags: W
HStem: -14 76<192 221>
VStem: 12 94<108 133>
AnchorPoint: "1 Top" 350 640 basechar 0
Fore
464 198 m 1
 455 160 444 130 434 108 c 0
 424 87 411 67 395 50 c 0
 385 40 361 25 324 6 c 0
 298 -7 255 -14 196 -14 c 0
 133 -14 90 -7 70 6 c 0
 43 25 27 40 21 50 c 1
 15 67 12 87 12 108 c 0
 12 130 17 160 26 198 c 1
 106 518 l 1
 194 518 l 1
 123 232 l 2
 112 187 106 154 106 133 c 128
 106 112 111 98 122 89 c 0
 133 79 143 73 153 70 c 0
 168 65 187 62 212 62 c 0
 235 62 256 65 273 70 c 0
 285 73 299 79 314 89 c 0
 329 98 342 112 352 133 c 128
 362 154 374 187 385 232 c 2
 456 518 l 1
 544 518 l 1
 464 198 l 1
EndSplineSet
EndChar
StartChar: phi
Encoding: 966 966 393
Width: 741
Flags: W
HStem: -10 81<270 291 399 430>
VStem: 642 87<304 324>
Fore
719 249 m 0
 708 204 688 161 659 122 c 0
 631 83 595 51 551 26 c 0
 508 2 462 -10 411 -10 c 2
 379 -10 l 1
 331 -200 l 1
 243 -200 l 1
 291 -10 l 1
 269 -10 l 2
 227 -10 190 -3 161 11 c 0
 131 25 108 44 91 69 c 0
 74 93 65 121 62 152 c 0
 61 163 61 173 61 184 c 0
 62 206 63 228 68 250 c 0
 77 285 92 319 112 352 c 128
 132 385 158 416 189 445 c 0
 221 474 257 497 294 514 c 1
 319 446 l 1
 274 421 236 391 208 357 c 0
 180 322 162 288 153 254 c 0
 149 239 148 225 148 211 c 0
 148 194 150 178 155 163 c 0
 163 136 178 113 203 96 c 0
 226 79 256 71 291 71 c 2
 311 71 l 1
 423 522 l 1
 511 522 l 2
 570 522 617 509 652 483 c 0
 687 458 711 424 721 382 c 0
 726 363 729 343 729 322 c 0
 729 298 725 274 719 249 c 0
635 250 m 0
 640 269 642 288 642 306 c 0
 642 317 641 328 639 339 c 0
 632 366 619 389 596 406 c 0
 574 423 546 432 509 432 c 2
 489 432 l 1
 399 71 l 1
 423 71 l 2
 460 71 492 79 521 96 c 128
 550 113 575 135 595 163 c 0
 614 190 628 219 635 250 c 0
EndSplineSet
EndChar
StartChar: chi
Encoding: 967 967 394
Width: 572
Flags: W
Fore
482 -200 m 1
 463 -208 445 -212 428 -212 c 2
 420 -212 l 2
 398 -212 378 -203 362 -186 c 1
 348 -173 336 -152 327 -123 c 1
 279 74 l 1
 27 -200 l 1
 -77 -200 l 1
 247 160 l 1
 163 420 l 2
 158 436 152 446 147 450 c 0
 141 455 130 458 114 458 c 1
 103 455 95 454 89 454 c 1
 109 532 l 1
 114 533 119 533 124 534 c 128
 129 535 134 535 140 536 c 0
 155 537 163 538 166 538 c 0
 189 538 207 533 219 524 c 128
 231 515 242 500 249 478 c 1
 319 234 l 1
 543 518 l 1
 639 518 l 1
 355 160 l 1
 423 -91 l 2
 426 -102 431 -110 437 -117 c 1
 440 -124 450 -127 466 -127 c 0
 471 -127 478 -126 485 -125 c 128
 492 -124 498 -122 502 -121 c 1
 482 -200 l 1
EndSplineSet
EndChar
StartChar: psi
Encoding: 968 968 395
Width: 662
Flags: W
HStem: -200 272<247 266> -2 74<246 248 352 354>
VStem: 46 95<145 168>
Fore
633 214 m 2
 615 141 579 86 527 51 c 128
 475 16 411 -2 334 -2 c 1
 284 -200 l 1
 198 -200 l 1
 248 -2 l 1
 171 -2 115 16 81 51 c 1
 57 74 46 105 46 145 c 0
 46 166 49 189 55 214 c 2
 131 518 l 1
 221 518 l 1
 152 242 l 1
 146 213 142 189 141 168 c 0
 141 160 142 152 143 145 c 0
 147 120 158 102 178 90 c 128
 198 78 227 72 266 72 c 1
 373 500 l 1
 459 500 l 1
 352 72 l 1
 387 72 416 77 442 87 c 0
 467 97 489 115 507 140 c 128
 525 165 540 199 550 242 c 1
 619 518 l 1
 709 518 l 1
 633 214 l 2
EndSplineSet
EndChar
StartChar: omega
Encoding: 969 969 396
Width: 740
Flags: W
HStem: -9 72<159 181 461 469>
VStem: 20 84<140 168> 627 84<321 348>
Fore
700 241 m 0
 691 206 679 173 663 142 c 0
 648 111 629 85 608 63 c 128
 587 41 563 23 534 10 c 0
 508 -3 479 -9 448 -9 c 0
 413 -9 386 -1 365 16 c 0
 348 31 334 52 326 81 c 1
 304 52 281 31 255 16 c 0
 226 -1 195 -9 160 -9 c 0
 129 -9 103 -3 83 10 c 0
 62 23 45 41 36 63 c 0
 25 87 20 114 20 143 c 0
 20 174 24 207 32 241 c 0
 40 274 54 310 75 348 c 0
 96 388 119 424 143 455 c 0
 169 488 192 511 215 526 c 1
 289 500 l 1
 255 473 227 444 204 413 c 0
 181 384 161 354 147 323 c 0
 133 295 122 266 115 235 c 0
 108 207 104 181 104 158 c 0
 104 142 106 128 109 114 c 0
 118 80 142 63 181 63 c 0
 202 64 216 66 223 68 c 0
 232 71 243 78 258 89 c 0
 282 108 296 129 302 153 c 2
 358 376 l 1
 442 376 l 1
 386 153 l 2
 384 146 384 139 384 132 c 0
 385 117 388 102 398 89 c 0
 407 78 416 71 423 68 c 0
 428 66 441 64 462 63 c 0
 501 63 534 80 559 114 c 0
 585 148 603 188 615 235 c 0
 622 266 627 295 627 323 c 0
 627 354 623 384 615 413 c 0
 606 444 591 473 573 500 c 1
 659 526 l 1
 674 511 687 488 695 455 c 1
 705 424 710 388 711 348 c 0
 711 310 708 274 700 241 c 0
EndSplineSet
EndChar
StartChar: afii10051
Encoding: 1026 1026 404
Width: 766
Flags: HW
Fore
654.358 0 m 1
 640.33 -66 615.812 -96.667 559.576 -126 c 0
 531.792 -140.667 486.445 -147 457.112 -147 c 2
 456.112 -147 l 1
 374.9 -148 l 1
 388.929 -82 l 1
 487.929 -82 l 2
 522.596 -82 549.578 -60.126 558.958 -16 c 2
 561.083 -6 l 1
 630.313 315 l 2
 637.989 349.666 619.721 368.667 576.43 372 c 2
 566.43 372 l 1
 338.43 372 l 1
 259.358 0 l 1
 166.358 0 l 1
 303.096 648 l 1
 104.096 648 l 1
 121.1 728 l 1
 611.1 728 l 1
 594.096 648 l 1
 397.096 648 l 1
 355.859 454 l 1
 587.859 454 l 2
 653.859 454 696.212 429 714.918 379 c 0
 724.342 354.333 725.936 327.333 719.7 298 c 2
 719.488 297 l 1
 654.358 0 l 1
EndSplineSet
EndChar
StartChar: afii10053
Encoding: 1028 1028 406
Width: 722
Flags: HW
HStem: -23 82<248.5 353> 332 82<156 502> 659 81
VStem: 35 95
Fore
136 332 m 1
 108 164 176 59 314 59 c 0
 392 59 461 93 504 153 c 0
 525 182 543 216 561 266 c 1
 657 266 l 1
 594 73 474 -23 296 -23 c 0
 201 -23 135 4 91 62 c 0
 37 133 22 236 47 356 c 0
 72 474 131 578 212 650 c 0
 279 710 364 741 462 741 c 0
 622 741 698 663 693 503 c 1
 598 503 l 1
 598 557 590 588 568 613 c 0
 544 641 493 659 434 659 c 0
 308 659 205 567 156 414 c 1
 520 414 l 1
 502 332 l 1
 136 332 l 1
EndSplineSet
EndChar
StartChar: afii10056
Encoding: 1031 1031 409
Width: 278
Flags: HW
HStem: 0 21<100 194 100 100> 709 20<255 349 349 349> 804 103<202 284 363 445>
Fore
349 729 m 1
 194 0 l 1
 100 0 l 1
 255 729 l 1
 349 729 l 1
306 907 m 1
 284 804 l 1
 180 804 l 1
 202 907 l 1
 306 907 l 1
467 907 m 1
 445 804 l 1
 341 804 l 1
 363 907 l 1
 467 907 l 1
EndSplineSet
EndChar
StartChar: afii10058
Encoding: 1033 1033 411
Width: 968
Flags: HW
Fore
436.523 0 m 1
 573.047 647 l 1
 348.047 647 l 1
 316.872 500.333 296.459 409 286.807 373 c 0
 227.944 155.667 149.275 33.333 50.7988 6 c 0
 36.6152 2 21.5234 0 5.52344 0 c 1
 25.5039 94 l 1
 80.1699 94 129.028 162.333 172.077 299 c 0
 191.539 362.333 221.839 492.333 262.975 689 c 1
 271.477 729 l 1
 684.477 729 l 1
 617.734 415 l 1
 761.734 415 l 2
 915.876 415.667 991.98 355 990.049 233 c 0
 989.682 225 989.244 216.667 988.735 208 c 1
 976.265 149.333 947.183 100.333 901.489 61 c 0
 854.845 20.333 797.523 -0 729.523 0 c 2
 436.523 0 l 1
546.953 82 m 1
 737.953 82 l 2
 781.286 82 816.1 93.667 842.393 117 c 0
 870.019 140.333 887.658 170 895.31 206 c 2
 895.522 207 l 2
 903.316 243.667 898.692 273.667 881.652 297 c 2
 880.865 298 l 2
 864.491 321.333 834.638 333 791.305 333 c 2
 600.305 333 l 1
 546.953 82 l 1
EndSplineSet
EndChar
StartChar: afii10059
Encoding: 1034 1034 412
Width: 1173
Flags: HW
HStem: 0 82<583 802> 332 82<187 543>
VStem: 970 92
Fore
473 0 m 1
 543 332 l 1
 170 332 l 1
 100 0 l 1
 6 0 l 1
 160 729 l 1
 253 729 l 1
 187 414 l 1
 561 414 l 1
 627 729 l 1
 720 729 l 1
 654 415 l 1
 834 415 l 2
 1012 416 1072 338 1061 208 c 1
 1049 151 1018 99 973 61 c 1
 926 19 871 0 802 0 c 2
 473 0 l 1
583 82 m 1
 810 82 l 2
 855 82 887 93 914 117 c 0
 941 140 960 172 968 207 c 0
 975 243 970 275 953 298 c 0
 936 322 908 333 863 333 c 2
 636 333 l 1
 583 82 l 1
EndSplineSet
EndChar
StartChar: afii10060
Encoding: 1035 1035 413
Width: 766
Flags: HW
Fore
340.13 454 m 1
 572.13 454 l 2
 638.13 454 680.483 429 699.188 379 c 0
 708.612 354.333 710.206 327.333 703.972 298 c 2
 703.759 297 l 1
 640.63 0 l 1
 547.63 0 l 1
 614.585 315 l 2
 621.953 349.667 603.992 368.667 560.7 372 c 2
 550.7 372 l 1
 322.7 372 l 1
 243.63 0 l 1
 150.63 0 l 1
 287.366 648 l 1
 88.3662 648 l 1
 105.37 728 l 1
 595.37 728 l 1
 578.366 648 l 1
 381.366 648 l 1
 340.13 454 l 1
EndSplineSet
EndChar
StartChar: afii10145
Encoding: 1039 1039 417
Width: 722
Flags: HW
HStem: 0 82<194 332 412 412 412 567> 709 20<238 332 332 332 705 799 799 799>
Fore
332 0 m 1
 83 0 l 1
 238 729 l 1
 332 729 l 1
 194 82 l 1
 567 82 l 1
 705 729 l 1
 799 729 l 1
 644 0 l 1
 412 0 l 1
 383 -135 l 1
 303 -135 l 1
 332 0 l 1
EndSplineSet
EndChar
StartChar: afii10018
Encoding: 1041 1041 419
Width: 639
Flags: HW
HStem: 0 82<189 408> 333 82<260 440> 647 82<310 706 310 310>
VStem: 577 91
Fore
667 208 m 1
 655 151 624 99 580 61 c 0
 532 19 477 0 408 0 c 2
 79 0 l 1
 234 729 l 1
 723 729 l 1
 706 647 l 1
 310 647 l 1
 260 415 l 1
 440 415 l 2
 618 416 679 338 667 208 c 1
189 82 m 1
 416 82 l 2
 461 82 494 93 521 117 c 0
 548 140 567 172 574 207 c 0
 582 243 576 275 559 298 c 0
 542 322 515 333 470 333 c 2
 243 333 l 1
 189 82 l 1
EndSplineSet
EndChar
StartChar: afii10020
Encoding: 1043 1043 421
Width: 611
Flags: HW
HStem: 0 21<90 183 90 90> 647 82<321 717 321 321>
Fore
183 0 m 1
 90 0 l 1
 245 729 l 1
 734 729 l 1
 717 647 l 1
 321 647 l 1
 183 0 l 1
EndSplineSet
EndChar
StartChar: afii10021
Encoding: 1044 1044 422
Width: 816
Flags: HW
HStem: -135 209<76 111 729 775> 0 74<140 168 140 140> 0 82<305 636> 647 82<494 756 494 494>
Fore
726 0 m 0
305 82 m 1,1,-1
 636 82 l 1,2,-1
 756 647 l 1,3,-1
 494 647 l 1,4,5
 459 481 419 215 305 82 c 1,1,-1
168 74 m 1,6,7
 305 132 353 424 418 729 c 1,8,-1
 868 729 l 1,9,-1
 729 74 l 1,10,-1
 820 74 l 1,11,-1
 775 -135 l 1,12,-1
 695 -135 l 1,13,-1
 724 0 l 1,14,-1
 140 0 l 1,15,-1
 111 -135 l 1,16,-1
 31 -135 l 1,17,-1
 76 74 l 1,18,-1
 168 74 l 1,6,7
EndSplineSet
EndChar
StartChar: afii10024
Encoding: 1046 1046 424
Width: 897
Flags: HW
HStem: 0 21<22 132 22 22 418 418 418 511 797 797 797 907> 709 20<215 335 335 335 573 666 666 666 904 1024 1024 1024>
Fore
487 324 m 1
 132 0 l 1
 22 0 l 1
 427 375 l 1
 215 729 l 1
 335 729 l 1
 508 421 l 1
 573 729 l 1
 666 729 l 1
 601 421 l 1
 904 729 l 1
 1024 729 l 1
 662 375 l 1
 907 0 l 1
 797 0 l 1
 580 324 l 1
 511 0 l 1
 418 0 l 1
 487 324 l 1
EndSplineSet
EndChar
StartChar: afii10025
Encoding: 1047 1047 425
Width: 652
Flags: HW
HStem: -23 82<296.5 356.5> 321 82<324 412 412 415> 663 78<404 511>
VStem: 602 93
Fore
307 321 m 1
 324 403 l 1
 412 403 l 2
 501 403 587 484 599 540 c 0
 615 614 560 663 462 663 c 0
 346 663 270 610 249 515 c 1
 161 515 l 1
 192 658 308 741 476 741 c 0
 636 741 718 659 690 527 c 0
 674 452 626 403 552 374 c 1
 629 343 662 282 645 200 c 0
 632 137 587 72 530 33 c 0
 475 -3 400 -23 313 -23 c 0
 202 -23 125 13 90 81 c 0
 69 121 66 165 79 232 c 1
 167 232 l 1
 156 187 161 152 181 120 c 0
 207 78 257 59 336 59 c 0
 395 59 443 70 477 90 c 0
 512 112 542 152 550 191 c 0
 562 248 510 321 415 321 c 2
 307 321 l 1
EndSplineSet
EndChar
StartChar: afii10026
Encoding: 1048 1048 426
Width: 731
Flags: HW
HStem: 0 21<83 188 83 83 565 653 565 565> 709 20<238 326 326 326 707 808 808 808>
Fore
238 729 m 1
 326 729 l 1
 199 133 l 1
 707 729 l 1
 808 729 l 1
 653 0 l 1
 565 0 l 1
 691 591 l 1
 188 0 l 1
 83 0 l 1
 238 729 l 1
EndSplineSet
EndChar
StartChar: afii10027
Encoding: 1049 1049 427
Width: 731
Flags: HW
HStem: 0 21<83 188 83 83 565 653 565 565> 709 20<238 326 326 326 707 808 808 808> 793 72<526.5 562.5>
VStem: 411 58
Fore
416 928 m 1
 469 928 l 1
 469 920 l 1
 469 915 l 2
 469 885 502 865 551 865 c 0
 610 865 651 888 661 928 c 1
 717 928 l 1
 706 884 695 863 671 842 c 0
 638 812 587 793 538 793 c 0
 463 793 411 833 411 892 c 0
 411 901 412 909 416 928 c 1
238 729 m 1
 326 729 l 1
 199 133 l 1
 707 729 l 1
 808 729 l 1
 653 0 l 1
 565 0 l 1
 691 591 l 1
 188 0 l 1
 83 0 l 1
 238 729 l 1
EndSplineSet
EndChar
StartChar: afii10028
Encoding: 1050 1050 428
Width: 664
Flags: HW
HStem: 0 21<79 172 79 79 548 548 548 658> 709 20<234 327 327 327 690 810 810 810>
Fore
172 0 m 1
 79 0 l 1
 234 729 l 1
 327 729 l 1
 260 414 l 1
 690 729 l 1
 810 729 l 1
 323 375 l 1
 658 0 l 1
 548 0 l 1
 241 324 l 1
 172 0 l 1
EndSplineSet
EndChar
StartChar: afii10029
Encoding: 1051 1051 429
Width: 646
Flags: HW
HStem: 0 21<6 119.5 473 473 473 567> 647 82<348 610 348 348>
Fore
610 647 m 1
 348 647 l 1
 300 422 233 0 6 0 c 1
 26 94 l 1
 151 94 207 424 271 729 c 1
 721 729 l 1
 567 0 l 1
 473 0 l 1
 610 647 l 1
EndSplineSet
EndChar
StartChar: afii10033
Encoding: 1055 1055 433
Width: 722
Flags: HW
HStem: 0 21<83 177 83 83 550 550 550 644> 647 82<315 688 315 315>
Fore
688 647 m 1
 315 647 l 1
 177 0 l 1
 83 0 l 1
 238 729 l 1
 799 729 l 1
 644 0 l 1
 550 0 l 1
 688 647 l 1
EndSplineSet
EndChar
StartChar: afii10037
Encoding: 1059 1059 437
Width: 530
Flags: HW
HStem: 0 21<22 135 22 22> 709 20<64 177 177 177 546 657 657 657>
Fore
135 0 m 1
 22 0 l 1
 203 244 l 1
 64 729 l 1
 177 729 l 1
 281 350 l 1
 546 729 l 1
 657 729 l 1
 135 0 l 1
EndSplineSet
EndChar
StartChar: afii10038
Encoding: 1060 1060 438
Width: 891
Flags: HW
HStem: 0 21<380 474 380 380> 94 94<379.5 399 514 553.5> 541 94 709 20<535 629 629 629>
VStem: 99 103
Fore
399 94 m 1
 252 94 52 108 109 375 c 0
 165 638 373 636 514 635 c 1
 535 729 l 1
 629 729 l 1
 609 635 l 1
 750 636 960 638 904 375 c 0
 847 108 641 94 494 94 c 1
 474 0 l 1
 380 0 l 1
 399 94 l 1
419 188 m 1
 494 541 l 1
 421 540 246 550 209 375 c 0
 164 166 340 188 419 188 c 1
514 188 m 1
 593 188 759 166 804 375 c 0
 841 550 662 540 589 541 c 1
 514 188 l 1
EndSplineSet
EndChar
StartChar: afii10040
Encoding: 1062 1062 440
Width: 722
Flags: HW
HStem: -135 209<660 707> 0 82<194 567> 709 20<238 332 332 332 705 799 799 799>
Fore
567 82 m 1
 705 729 l 1
 799 729 l 1
 660 74 l 1
 752 74 l 1
 707 -135 l 1
 627 -135 l 1
 656 0 l 1
 83 0 l 1
 238 729 l 1
 332 729 l 1
 194 82 l 1
 567 82 l 1
EndSplineSet
EndChar
StartChar: afii10041
Encoding: 1063 1063 441
Width: 642
Flags: HW
HStem: 0 21<443 536 443 443> 302 82<239 507>
Fore
507 302 m 1
 222 302 l 2
 170 302 135 326 146 383 c 1
 220 729 l 1
 313 729 l 1
 239 384 l 1
 524 384 l 1
 598 729 l 1
 691 729 l 1
 536 0 l 1
 443 0 l 1
 507 302 l 1
EndSplineSet
EndChar
StartChar: afii10042
Encoding: 1064 1064 442
Width: 836
Flags: HW
HStem: 0 82<171 365 459 653> 709 20<215 309 309 309 503 597 597 597 791 885 885 885>
Fore
459 82 m 1
 653 82 l 1
 791 729 l 1
 885 729 l 1
 730 0 l 1
 60 0 l 1
 215 729 l 1
 309 729 l 1
 171 82 l 1
 365 82 l 1
 503 729 l 1
 597 729 l 1
 459 82 l 1
EndSplineSet
EndChar
StartChar: afii10043
Encoding: 1065 1065 443
Width: 837
Flags: HW
HStem: -135 209<746 793> 0 82<171 365 459 653> 709 20<215 309 309 309 503 597 597 597 791 885 885 885>
Fore
742 0 m 1
 60 0 l 1
 215 729 l 1
 309 729 l 1
 171 82 l 1
 365 82 l 1
 503 729 l 1
 597 729 l 1
 459 82 l 1
 653 82 l 1
 791 729 l 1
 885 729 l 1
 746 74 l 1
 838 74 l 1
 793 -135 l 1
 713 -135 l 1
 742 0 l 1
EndSplineSet
EndChar
StartChar: afii10044
Encoding: 1066 1066 444
Width: 866
Flags: HW
HStem: 0 82<362 580> 333 82<433 613> 647 82<175 388>
VStem: 749 92
Fore
840 208 m 1
 828 151 796 99 752 61 c 0
 704 19 649 0 580 0 c 2
 251 0 l 1
 388 647 l 1
 158 647 l 1
 175 729 l 1
 499 729 l 1
 433 415 l 1
 613 415 l 2
 791 416 851 338 840 208 c 1
362 82 m 1
 589 82 l 2
 634 82 666 93 693 117 c 0
 720 140 739 172 746 207 c 0
 754 243 749 275 732 298 c 0
 715 322 687 333 642 333 c 2
 415 333 l 1
 362 82 l 1
EndSplineSet
EndChar
StartChar: afii10045
Encoding: 1067 1067 445
Width: 886
Flags: HW
HStem: 0 82<193 412> 333 82<264 444>
VStem: 581 91
Fore
963 729 m 1
 808 0 l 1
 714 0 l 1
 869 729 l 1
 963 729 l 1
671 208 m 1
 659 151 628 99 584 61 c 0
 536 19 481 0 412 0 c 2
 83 0 l 1
 238 729 l 1
 331 729 l 1
 264 415 l 1
 444 415 l 2
 622 416 683 338 671 208 c 1
193 82 m 1
 420 82 l 2
 465 82 498 93 525 117 c 0
 552 140 571 172 578 207 c 0
 586 243 580 275 563 298 c 0
 546 322 519 333 474 333 c 2
 247 333 l 1
 193 82 l 1
EndSplineSet
EndChar
StartChar: afii10046
Encoding: 1068 1068 446
Width: 698
Flags: HW
HStem: 0 82<194 412> 333 82<265 445>
VStem: 581 92
Fore
672 208 m 1
 660 151 628 99 584 61 c 0
 536 19 481 0 412 0 c 2
 83 0 l 1
 238 729 l 1
 331 729 l 1
 265 415 l 1
 445 415 l 2
 623 416 683 338 672 208 c 1
194 82 m 1
 421 82 l 2
 466 82 498 93 525 117 c 0
 552 140 571 172 578 207 c 0
 586 243 581 275 564 298 c 0
 547 322 519 333 474 333 c 2
 247 333 l 1
 194 82 l 1
EndSplineSet
EndChar
StartChar: afii10047
Encoding: 1069 1069 447
Width: 717
Flags: HW
HStem: -23 82<323 392.5> 332 82<307 656> 659 82<467.5 553>
VStem: 104 98 673 93
Fore
656 332 m 1
 290 332 l 1
 307 414 l 1
 671 414 l 1
 687 567 623 659 497 659 c 0
 438 659 379 641 343 613 c 0
 311 588 290 557 267 503 c 1
 172 503 l 1
 235 663 344 741 504 741 c 0
 602 741 674 710 715 650 c 0
 766 578 780 474 755 356 c 0
 729 236 670 133 586 62 c 0
 518 4 440 -23 345 -23 c 0
 167 -23 88 73 107 266 c 1
 203 266 l 1
 200 216 203 182 212 153 c 0
 229 93 284 59 362 59 c 0
 500 59 613 164 656 332 c 1
EndSplineSet
EndChar
StartChar: afii10048
Encoding: 1070 1070 448
Width: 1079
Flags: HW
HStem: -23 82<624.5 729> 0 21<60 154 60 60> 332 82<241 409> 659 82<752 908>
VStem: 403 96 1034 95
Fore
409 332 m 1
 224 332 l 1
 154 0 l 1
 60 0 l 1
 215 729 l 1
 308 729 l 1
 241 414 l 1
 429 414 l 1
 492 611 655 741 846 741 c 0
 1060 741 1167 588 1117 353 c 0
 1092 234 1021 121 927 54 c 0
 858 4 773 -23 685 -23 c 0
 483 -23 375 119 409 332 c 1
829 659 m 0
 675 659 545 539 507 359 c 128
 469 179 547 59 702 59 c 0
 856 59 987 179 1024 355 c 0
 1063 539 987 659 829 659 c 0
EndSplineSet
EndChar
StartChar: afii10049
Encoding: 1071 1071 449
Width: 691
Flags: HW
HStem: 0 21<22 132 22 22 520 520 520 613> 314 82<476 476 476 587> 647 82<439 658>
VStem: 179 91
Fore
476 314 m 1
 132 0 l 1
 22 0 l 1
 362 315 l 1
 220 322 169 401 180 521 c 1
 192 578 223 630 267 668 c 0
 315 710 370 729 439 729 c 2
 768 729 l 1
 613 0 l 1
 520 0 l 1
 587 314 l 1
 476 314 l 1
658 647 m 1
 431 647 l 2
 386 647 353 636 326 612 c 0
 299 589 280 557 273 522 c 0
 265 486 271 454 288 431 c 0
 305 407 332 396 377 396 c 2
 604 396 l 1
 658 647 l 1
EndSplineSet
EndChar
StartChar: afii10066
Encoding: 1073 1073 451
Width: 556
Flags: HW
HStem: -23 77<229.5 322> 462 77<357.5 410>
VStem: 72 90 477 88
Fore
263 514 m 1
 298 530 337 539 378 539 c 0
 529 539 594 435 555 254 c 0
 519 82 407 -23 260 -23 c 0
 111 -23 45 82 82 258 c 0
 121 442 195 664 330 690 c 0
 368 697 429 704 484 716 c 0
 514 723 546 748 552 775 c 1
 626 776 l 1
 614 716 602 666 486 640 c 0
 436 629 405 626 360 611 c 0
 310 594 292 558 263 514 c 1
363 462 m 0
 270 462 196 384 169 258 c 0
 142 131 183 54 276 54 c 0
 368 54 443 132 469 255 c 0
 496 385 457 462 363 462 c 0
EndSplineSet
EndChar
StartChar: afii10067
Encoding: 1074 1074 452
Width: 538
Flags: HW
HStem: 0 76<170 322 322 333> 231 76<219 337 337 355> 449 76<250 368 250 250>
VStem: 434 90
Fore
70 0 m 1
 182 525 l 1
 421 525 l 2
 472 525 503 513 525 488 c 128
 547 463 553 430 545 392 c 0
 533 338 503 300 451 277 c 1
 513 251 534 213 520 150 c 0
 511 109 489 72 457 44 c 0
 422 14 383 0 333 0 c 2
 70 0 l 1
219 307 m 1
 337 307 l 2
 374 307 397 312 417 325 c 0
 440 340 451 348 457 376 c 0
 463 405 455 415 440 430 c 0
 425 444 405 449 368 449 c 2
 250 449 l 1
 219 307 l 1
170 76 m 1
 322 76 l 2
 354 76 377 84 397 102 c 0
 416 118 425 130 430 155 c 0
 436 181 440 196 420 211 c 0
 403 224 387 231 355 231 c 2
 203 231 l 1
 170 76 l 1
EndSplineSet
EndChar
StartChar: afii10068
Encoding: 1075 1075 453
Width: 430
Flags: HW
HStem: 0 21<70 154 70 70> 448 76<249 460 249 249>
Fore
181 524 m 1
 476 524 l 1
 460 448 l 1
 249 448 l 1
 154 0 l 1
 70 0 l 1
 181 524 l 1
EndSplineSet
EndChar
StartChar: afii10069
Encoding: 1076 1076 454
Width: 640
Flags: HW
HStem: -120 184<21 52 499 524> 0 64<77 78 77 77> 0 76<196 417> 448 76<324 496 324 324>
Fore
78 64 m 1
 149 71 208 292 257 524 c 1
 596 524 l 1
 499 64 l 1
 563 64 l 1
 524 -120 l 1
 454 -120 l 1
 479 0 l 1
 77 0 l 1
 52 -120 l 1
 -18 -120 l 1
 21 64 l 1
 78 64 l 1
196 76 m 1
 417 76 l 1
 496 448 l 1
 324 448 l 1
 303 341 270 173 196 76 c 1
EndSplineSet
EndChar
StartChar: afii10072
Encoding: 1078 1078 456
Width: 818
Flags: HW
HStem: 0 21<17 120 17 17 378 378 378 461 719 719 719 822> 504 20<160 267 267 267 489 572 572 572 794 901 901 901>
Fore
424 216 m 1
 120 0 l 1
 17 0 l 1
 377 264 l 1
 160 524 l 1
 267 524 l 1
 442 302 l 1
 489 524 l 1
 572 524 l 1
 525 302 l 1
 794 524 l 1
 901 524 l 1
 574 264 l 1
 822 0 l 1
 719 0 l 1
 507 216 l 1
 461 0 l 1
 378 0 l 1
 424 216 l 1
EndSplineSet
EndChar
StartChar: afii10073
Encoding: 1079 1079 457
Width: 495
Flags: HW
HStem: -23 77<236.5 295.5> 221 76<253 311> 462 77<302.5 370>
VStem: 432 87
Fore
237 221 m 1
 253 297 l 1
 315 297 l 2
 385 297 422 346 430 383 c 0
 440 431 404 462 336 462 c 0
 269 462 227 433 213 378 c 1
 125 378 l 1
 148 481 228 539 349 539 c 0
 471 539 537 476 516 379 c 0
 505 326 479 293 427 267 c 1
 481 241 500 203 487 143 c 0
 466 42 368 -23 236 -23 c 0
 99 -23 43 35 65 156 c 1
 153 156 l 1
 150 119 153 104 163 89 c 0
 179 67 214 54 259 54 c 0
 332 54 384 87 395 136 c 0
 403 174 370 221 311 221 c 2
 237 221 l 1
EndSplineSet
EndChar
StartChar: afii10074
Encoding: 1080 1080 458
Width: 560
Flags: HW
HStem: 0 21<70 169 70 70 404 487 404 404> 504 20<181 265 265 265 500 598 598 598>
Fore
181 524 m 1
 265 524 l 1
 177 111 l 1
 500 524 l 1
 598 524 l 1
 487 0 l 1
 404 0 l 1
 491 413 l 1
 169 0 l 1
 70 0 l 1
 181 524 l 1
EndSplineSet
EndChar
StartChar: afii10075
Encoding: 1081 1081 459
Width: 560
Flags: HW
HStem: 0 21<70 169 70 70 404 487 404 404> 504 20<181 265 265 265 500 598 598 598> 594 72<404.5 440.5> 709 20<294 347 347 347 539 595 595 595>
VStem: 289 58
Fore
294 729 m 1
 347 729 l 1
 347 721 l 1
 347 716 l 2
 347 686 380 666 429 666 c 0
 488 666 529 689 539 729 c 1
 595 729 l 1
 584 685 573 664 549 643 c 0
 516 613 465 594 416 594 c 0
 341 594 289 634 289 693 c 0
 289 702 290 710 294 729 c 1
181 524 m 1
 265 524 l 1
 177 111 l 1
 500 524 l 1
 598 524 l 1
 487 0 l 1
 404 0 l 1
 491 413 l 1
 169 0 l 1
 70 0 l 1
 181 524 l 1
EndSplineSet
EndChar
StartChar: afii10076
Encoding: 1082 1082 460
Width: 510
Flags: HW
HStem: 0 21<70 153 70 70 411 514 411 411> 504 20<181 264 264 264 486 593 593 593>
Fore
264 524 m 1
 217 302 l 1
 486 524 l 1
 593 524 l 1
 266 264 l 1
 514 0 l 1
 411 0 l 1
 199 216 l 1
 153 0 l 1
 70 0 l 1
 181 524 l 1
 264 524 l 1
EndSplineSet
EndChar
StartChar: afii10077
Encoding: 1083 1083 461
Width: 556
Flags: HW
HStem: 0 21<14 97 347 431 347 347> 448 76<271 443 271 271>
Fore
204 524 m 1
 543 524 l 1
 431 0 l 1
 347 0 l 1
 443 448 l 1
 271 448 l 1
 238 292 180 0 14 0 c 1
 31 80 l 1
 111 80 154 292 204 524 c 1
EndSplineSet
EndChar
StartChar: afii10078
Encoding: 1084 1084 462
Width: 621
Flags: HW
HStem: 0 21<70 154 70 70 464 548 464 464> 504 20<181 265 265 265 575 659 659 659>
Fore
181 524 m 1
 265 524 l 1
 354 213 l 1
 575 524 l 1
 659 524 l 1
 548 0 l 1
 464 0 l 1
 538 348 l 1
 352 86 l 1
 302 86 l 1
 228 348 l 1
 154 0 l 1
 70 0 l 1
 181 524 l 1
EndSplineSet
EndChar
StartChar: afii10079
Encoding: 1085 1085 463
Width: 561
Flags: HW
HStem: 0 21<70 154 70 70 404 488 404 404> 233 76<219 453>
Fore
181 524 m 1
 265 524 l 1
 219 309 l 1
 469 309 l 1
 515 524 l 1
 599 524 l 1
 488 0 l 1
 404 0 l 1
 453 233 l 1
 203 233 l 1
 154 0 l 1
 70 0 l 1
 181 524 l 1
EndSplineSet
EndChar
StartChar: afii10081
Encoding: 1087 1087 465
Width: 560
Flags: HW
HStem: 0 21<70 154 70 70 403 487 403 403> 448 76<249 498 249 249>
Fore
181 524 m 1
 598 524 l 1
 487 0 l 1
 403 0 l 1
 498 448 l 1
 249 448 l 1
 154 0 l 1
 70 0 l 1
 181 524 l 1
EndSplineSet
EndChar
StartChar: afii10084
Encoding: 1090 1090 468
Width: 400
Flags: HW
HStem: 0 21<149 233 149 149> 448 76<116 244 328 472 328 328>
Fore
116 524 m 1
 488 524 l 1
 472 448 l 1
 328 448 l 1
 233 0 l 1
 149 0 l 1
 244 448 l 1
 100 448 l 1
 116 524 l 1
EndSplineSet
EndChar
StartChar: afii10086
Encoding: 1092 1092 470
Width: 916
Flags: HW
HStem: -23 78<233 283.5 619 699.5> 461 78<320 404.5 735.5 787>
VStem: 72 90 857 88
Fore
591 445 m 1
 633 506 700 539 771 539 c 0
 910 539 973 429 935 253 c 0
 900 86 788 -23 653 -23 c 0
 585 -23 541 1 508 55 c 1
 450 -218 l 1
 367 -218 l 1
 426 60 l 1
 375 3 320 -23 247 -23 c 0
 109 -23 45 82 81 252 c 0
 118 426 232 539 370 539 c 0
 439 539 490 502 508 445 c 1
 557 674 l 1
 640 674 l 1
 591 445 l 1
741 461 m 0
 653 461 578 381 551 258 c 0
 525 135 566 55 654 55 c 0
 745 55 823 136 849 255 c 0
 875 380 833 461 741 461 c 0
366 461 m 0
 274 461 195 379 169 258 c 0
 143 136 187 55 279 55 c 0
 367 55 442 135 468 255 c 0
 495 381 455 461 366 461 c 0
EndSplineSet
EndChar
